<svg width="249" height="300" viewBox="0 0 249 300" fill="none" xmlns="http://www.w3.org/2000/svg">
<g filter="url(#filter0_dddd_24_2377)">
<path d="M193 64.7975C193 60.491 189.509 57 185.203 57H152.798C148.492 57 145 60.4911 145 64.7975V97.2025C145 101.509 148.492 105 152.798 105H185.203C189.509 105 193 101.509 193 97.2025V64.7975Z" fill="white" shape-rendering="crispEdges"/>
<path d="M185.203 57.2441H152.798C148.626 57.2441 145.245 60.626 145.245 64.7979V97.2021C145.245 101.374 148.626 104.756 152.798 104.756H185.203C189.374 104.756 192.756 101.374 192.756 97.2021V64.7979C192.756 60.626 189.374 57.2441 185.203 57.2441Z" stroke="#E4E4E4" stroke-width="0.487342" shape-rendering="crispEdges"/>
<path d="M169 76.1265V89.7721" stroke="#1E3A8A" stroke-width="1.29958" stroke-linecap="round" stroke-linejoin="round"/>
<path d="M177.773 86.8481C178.031 86.8481 178.279 86.7454 178.462 86.5626C178.645 86.3798 178.748 86.1319 178.748 85.8734V73.2025C178.748 72.944 178.645 72.6961 178.462 72.5133C178.279 72.3305 178.031 72.2278 177.773 72.2278H172.899C171.865 72.2278 170.874 72.6385 170.143 73.3697C169.411 74.1009 169.001 75.0925 169.001 76.1265C169.001 75.0925 168.59 74.1009 167.859 73.3697C167.128 72.6385 166.136 72.2278 165.102 72.2278H160.229C159.97 72.2278 159.722 72.3305 159.539 72.5133C159.357 72.6961 159.254 72.944 159.254 73.2025V85.8734C159.254 86.1319 159.357 86.3798 159.539 86.5626C159.722 86.7454 159.97 86.8481 160.229 86.8481H166.077C166.852 86.8481 167.596 87.1561 168.144 87.7045C168.693 88.2529 169.001 88.9966 169.001 89.7721C169.001 88.9966 169.309 88.2529 169.857 87.7045C170.406 87.1561 171.149 86.8481 171.925 86.8481H177.773Z" stroke="#1E3A8A" stroke-width="1.29958" stroke-linecap="round" stroke-linejoin="round"/>
</g>
<path d="M145.47 80.7556C145.47 81.4734 144.888 82.0552 144.17 82.0552C143.453 82.0552 142.871 81.4734 142.871 80.7556C142.871 80.0379 143.453 79.456 144.17 79.456C144.888 79.456 145.47 80.0379 145.47 80.7556ZM0 152.022L2.43671 150.615V153.429L0 152.022ZM144.17 80.7556V80.9993H141.95V80.7556V80.5119H144.17V80.7556ZM137.51 80.7556V80.9993H133.07V80.7556V80.5119H137.51V80.7556ZM128.63 80.7556V80.9993H124.19V80.7556V80.5119H128.63V80.7556ZM119.75 80.7556V80.9993H115.31V80.7556V80.5119H119.75V80.7556ZM110.87 80.7556V80.9993H106.43V80.7556V80.5119H110.87V80.7556ZM101.99 80.7556V80.9993H97.5497V80.7556V80.5119H101.99V80.7556ZM93.1096 80.7556V80.9993H88.6695V80.7556V80.5119H93.1096V80.7556ZM84.2294 80.7556V80.9993H79.7894V80.7556V80.5119H84.2294V80.7556ZM75.3493 80.7556V80.9993H70.9092V80.7556V80.5119H75.3493V80.7556ZM66.4692 80.7556V80.9993H62.0291V80.7556V80.5119H66.4692V80.7556ZM57.589 80.7556V80.9993H53.1489V80.7556V80.5119H57.589V80.7556ZM48.7089 80.7556V80.9993H46.4888V80.7556V80.5119H48.7089V80.7556ZM46.4888 80.7556V80.9993C46.0589 80.9993 45.6495 81.0848 45.2763 81.2396L45.183 81.0145L45.0896 80.7894C45.5209 80.6105 45.9937 80.5119 46.4888 80.5119V80.7556ZM43.3363 82.8612L43.5614 82.9545C43.4066 83.3277 43.3211 83.737 43.3211 84.167H43.0774H42.8338C42.8338 83.6719 42.9323 83.1991 43.1112 82.7678L43.3363 82.8612ZM43.0774 84.167H43.3211V86.4686H43.0774H42.8338V84.167H43.0774ZM43.0774 91.0716H43.3211V95.6747H43.0774H42.8338V91.0716H43.0774ZM43.0774 100.278H43.3211V104.881H43.0774H42.8338V100.278H43.0774ZM43.0774 109.484H43.3211V114.087H43.0774H42.8338V109.484H43.0774ZM43.0774 118.69H43.3211V123.293H43.0774H42.8338V118.69H43.0774ZM43.0774 127.896H43.3211V132.499H43.0774H42.8338V127.896H43.0774ZM43.0774 137.103H43.3211V141.706H43.0774H42.8338V137.103H43.0774ZM43.0774 146.309H43.3211V148.61H43.0774H42.8338V146.309H43.0774ZM43.0774 148.61H43.3211C43.3211 149.105 43.2225 149.578 43.0436 150.009L42.8186 149.916L42.5935 149.823C42.7482 149.45 42.8338 149.04 42.8338 148.61H43.0774ZM40.9719 151.763L41.0652 151.988C40.6339 152.167 40.1612 152.265 39.666 152.265V152.022V151.778C40.096 151.778 40.5054 151.692 40.8785 151.538L40.9719 151.763ZM39.666 152.022V152.265H37.6827V152.022V151.778H39.666V152.022ZM33.7161 152.022V152.265H29.7495V152.022V151.778H33.7161V152.022ZM25.7829 152.022V152.265H21.8163V152.022V151.778H25.7829V152.022ZM17.8497 152.022V152.265H13.8831V152.022V151.778H17.8497V152.022ZM9.9165 152.022V152.265H5.94991V152.022V151.778H9.9165V152.022Z" fill="#484849"/>
<g filter="url(#filter1_dddd_24_2377)">
<path d="M193 203.797C193 199.491 189.509 196 185.203 196H152.798C148.492 196 145 199.491 145 203.797V236.203C145 240.509 148.492 244 152.798 244H185.203C189.509 244 193 240.509 193 236.203V203.797Z" fill="white" shape-rendering="crispEdges"/>
<path d="M185.203 196.245H152.798C148.627 196.245 145.246 199.627 145.246 203.798V236.202C145.246 240.373 148.627 243.755 152.798 243.755H185.203C189.374 243.755 192.755 240.373 192.755 236.202V203.798C192.755 199.627 189.374 196.245 185.203 196.245Z" stroke="#E4E4E4" stroke-width="0.49" shape-rendering="crispEdges"/>
<path d="M159.818 218.949C159.644 218.872 159.496 218.746 159.393 218.585C159.289 218.425 159.235 218.238 159.237 218.047C159.239 217.857 159.297 217.671 159.404 217.513C159.51 217.354 159.661 217.231 159.837 217.158L168.191 213.353C168.445 213.237 168.721 213.177 169 213.177C169.279 213.177 169.555 213.237 169.809 213.353L178.162 217.154C178.335 217.23 178.483 217.355 178.587 217.513C178.69 217.672 178.746 217.857 178.746 218.047C178.746 218.236 178.69 218.421 178.587 218.58C178.483 218.739 178.335 218.863 178.162 218.939L169.809 222.749C169.555 222.864 169.279 222.924 169 222.924C168.721 222.924 168.445 222.864 168.191 222.749L159.818 218.949Z" stroke="#1E3A8A" stroke-width="1.29958" stroke-linecap="round" stroke-linejoin="round"/>
<path d="M159.253 218.051V223.899" stroke="#1E3A8A" stroke-width="1.29958" stroke-linecap="round" stroke-linejoin="round"/>
<path d="M174.848 220.487V223.898C174.848 224.674 174.232 225.418 173.135 225.966C172.039 226.514 170.551 226.823 169 226.823C167.449 226.823 165.962 226.514 164.865 225.966C163.768 225.418 163.152 224.674 163.152 223.898V220.487" stroke="#1E3A8A" stroke-width="1.29958" stroke-linecap="round" stroke-linejoin="round"/>
</g>
<path d="M145.47 220.83C145.47 220.113 144.888 219.531 144.17 219.531C143.453 219.531 142.871 220.113 142.871 220.83C142.871 221.548 143.453 222.13 144.17 222.13C144.888 222.13 145.47 221.548 145.47 220.83ZM0 152.022L2.43671 153.429V150.615L0 152.022ZM144.17 220.83V220.587H141.95V220.83V221.074H144.17V220.83ZM137.51 220.83V220.587H133.07V220.83V221.074H137.51V220.83ZM128.63 220.83V220.587H124.19V220.83V221.074H128.63V220.83ZM119.75 220.83V220.587H115.31V220.83V221.074H119.75V220.83ZM110.87 220.83V220.587H106.43V220.83V221.074H110.87V220.83ZM101.99 220.83V220.587H97.5497V220.83V221.074H101.99V220.83ZM93.1096 220.83V220.587H88.6695V220.83V221.074H93.1096V220.83ZM84.2294 220.83V220.587H79.7894V220.83V221.074H84.2294V220.83ZM75.3493 220.83V220.587H70.9092V220.83V221.074H75.3493V220.83ZM66.4692 220.83V220.587H62.0291V220.83V221.074H66.4692V220.83ZM57.589 220.83V220.587H53.1489V220.83V221.074H57.589V220.83ZM48.7089 220.83V220.587H46.4888V220.83V221.074H48.7089V220.83ZM46.4888 220.83V220.587C46.0589 220.587 45.6495 220.501 45.2763 220.346L45.183 220.571L45.0896 220.797C45.5209 220.975 45.9937 221.074 46.4888 221.074V220.83ZM43.3363 218.725L43.5614 218.631C43.4066 218.258 43.3211 217.849 43.3211 217.419H43.0774H42.8338C42.8338 217.914 42.9323 218.387 43.1112 218.818L43.3363 218.725ZM43.0774 217.419H43.3211V215.205H43.0774H42.8338V217.419H43.0774ZM43.0774 210.778H43.3211V206.35H43.0774H42.8338V210.778H43.0774ZM43.0774 201.922H43.3211V197.495H43.0774H42.8338V201.922H43.0774ZM43.0774 193.067H43.3211V188.64H43.0774H42.8338V193.067H43.0774ZM43.0774 184.212H43.3211V179.785H43.0774H42.8338V184.212H43.0774ZM43.0774 175.357H43.3211V170.93H43.0774H42.8338V175.357H43.0774ZM43.0774 166.502H43.3211V162.074H43.0774H42.8338V166.502H43.0774ZM43.0774 157.647H43.3211V155.433H43.0774H42.8338V157.647H43.0774ZM43.0774 155.433H43.3211C43.3211 154.938 43.2225 154.465 43.0436 154.034L42.8186 154.127L42.5935 154.221C42.7482 154.594 42.8338 155.003 42.8338 155.433H43.0774ZM40.9719 152.281L41.0652 152.055C40.6339 151.877 40.1612 151.778 39.666 151.778V152.022V152.265C40.096 152.265 40.5054 152.351 40.8785 152.506L40.9719 152.281ZM39.666 152.022V151.778H37.6827V152.022V152.265H39.666V152.022ZM33.7161 152.022V151.778H29.7495V152.022V152.265H33.7161V152.022ZM25.7829 152.022V151.778H21.8163V152.022V152.265H25.7829V152.022ZM17.8497 152.022V151.778H13.8831V152.022V152.265H17.8497V152.022ZM9.9165 152.022V151.778H5.94991V152.022V152.265H9.9165V152.022Z" fill="#484849"/>
<g filter="url(#filter2_dddd_24_2377)">
<path d="M135 138.797C135 134.491 131.509 131 127.203 131H94.798C90.4915 131 87.0005 134.491 87.0005 138.797V171.203C87.0005 175.509 90.4915 179 94.798 179H127.203C131.509 179 135 175.509 135 171.203V138.797Z" fill="white" shape-rendering="crispEdges"/>
<path d="M127.203 131.244H94.7983C90.6265 131.244 87.2446 134.626 87.2446 138.798V171.202C87.2446 175.374 90.6265 178.756 94.7983 178.756H127.203C131.374 178.756 134.756 175.374 134.756 171.202V138.798C134.756 134.626 131.374 131.244 127.203 131.244Z" stroke="#E4E4E4" stroke-width="0.487342" shape-rendering="crispEdges"/>
<path d="M107.101 162.798V147.203C107.101 146.686 107.307 146.19 107.672 145.824C108.038 145.459 108.534 145.253 109.051 145.253H112.95C113.467 145.253 113.962 145.459 114.328 145.824C114.694 146.19 114.899 146.686 114.899 147.203V162.798" stroke="#1E3A8A" stroke-width="1.29958" stroke-linecap="round" stroke-linejoin="round"/>
<path d="M103.203 149.152H118.798C119.875 149.152 120.748 150.024 120.748 151.101V160.848C120.748 161.924 119.875 162.797 118.798 162.797H103.203C102.127 162.797 101.254 161.924 101.254 160.848V151.101C101.254 150.024 102.127 149.152 103.203 149.152Z" stroke="#1E3A8A" stroke-width="1.29958" stroke-linecap="round" stroke-linejoin="round"/>
</g>
<path d="M89.0217 152.146C89.0217 152.864 88.4399 153.446 87.7222 153.446C87.0044 153.446 86.4226 152.864 86.4226 152.146C86.4226 151.429 87.0044 150.847 87.7222 150.847C88.4399 150.847 89.0217 151.429 89.0217 152.146ZM0.000526428 152.146L2.43724 150.74V153.553L0.000526428 152.146ZM87.7222 152.146V152.39H85.7285V152.146V151.903H87.7222V152.146ZM81.7411 152.146V152.39H77.7538V152.146V151.903H81.7411V152.146ZM73.7665 152.146V152.39H69.7791V152.146V151.903H73.7665V152.146ZM65.7918 152.146V152.39H61.8044V152.146V151.903H65.7918V152.146ZM57.8171 152.146V152.39H53.8297V152.146V151.903H57.8171V152.146ZM49.8424 152.146V152.39H45.855V152.146V151.903H49.8424V152.146ZM41.8677 152.146V152.39H37.8803V152.146V151.903H41.8677V152.146ZM33.893 152.146V152.39H29.9056V152.146V151.903H33.893V152.146ZM25.9183 152.146V152.39H21.9309V152.146V151.903H25.9183V152.146ZM17.9436 152.146V152.39H13.9562V152.146V151.903H17.9436V152.146ZM9.96889 152.146V152.39H5.98154V152.146V151.903H9.96889V152.146Z" fill="#484849"/>
<defs>
<filter id="filter0_dddd_24_2377" x="89.0005" y="0" width="160" height="161" filterUnits="userSpaceOnUse" color-interpolation-filters="sRGB">
<feFlood flood-opacity="0" result="BackgroundImageFix"/>
<feColorMatrix in="SourceAlpha" type="matrix" values="0 0 0 0 0 0 0 0 0 0 0 0 0 0 0 0 0 0 127 0" result="hardAlpha"/>
<feOffset dy="16"/>
<feGaussianBlur stdDeviation="20"/>
<feComposite in2="hardAlpha" operator="out"/>
<feColorMatrix type="matrix" values="0 0 0 0 1 0 0 0 0 1 0 0 0 0 1 0 0 0 1 0"/>
<feBlend mode="normal" in2="BackgroundImageFix" result="effect1_dropShadow_24_2377"/>
<feColorMatrix in="SourceAlpha" type="matrix" values="0 0 0 0 0 0 0 0 0 0 0 0 0 0 0 0 0 0 127 0" result="hardAlpha"/>
<feOffset dy="-17"/>
<feGaussianBlur stdDeviation="20"/>
<feComposite in2="hardAlpha" operator="out"/>
<feColorMatrix type="matrix" values="0 0 0 0 1 0 0 0 0 1 0 0 0 0 1 0 0 0 1 0"/>
<feBlend mode="normal" in2="effect1_dropShadow_24_2377" result="effect2_dropShadow_24_2377"/>
<feColorMatrix in="SourceAlpha" type="matrix" values="0 0 0 0 0 0 0 0 0 0 0 0 0 0 0 0 0 0 127 0" result="hardAlpha"/>
<feOffset dx="-16"/>
<feGaussianBlur stdDeviation="20"/>
<feComposite in2="hardAlpha" operator="out"/>
<feColorMatrix type="matrix" values="0 0 0 0 1 0 0 0 0 1 0 0 0 0 1 0 0 0 1 0"/>
<feBlend mode="normal" in2="effect2_dropShadow_24_2377" result="effect3_dropShadow_24_2377"/>
<feColorMatrix in="SourceAlpha" type="matrix" values="0 0 0 0 0 0 0 0 0 0 0 0 0 0 0 0 0 0 127 0" result="hardAlpha"/>
<feOffset dx="16"/>
<feGaussianBlur stdDeviation="20"/>
<feComposite in2="hardAlpha" operator="out"/>
<feColorMatrix type="matrix" values="0 0 0 0 1 0 0 0 0 1 0 0 0 0 1 0 0 0 1 0"/>
<feBlend mode="normal" in2="effect3_dropShadow_24_2377" result="effect4_dropShadow_24_2377"/>
<feBlend mode="normal" in="SourceGraphic" in2="effect4_dropShadow_24_2377" result="shape"/>
</filter>
<filter id="filter1_dddd_24_2377" x="89.0005" y="139" width="160" height="161" filterUnits="userSpaceOnUse" color-interpolation-filters="sRGB">
<feFlood flood-opacity="0" result="BackgroundImageFix"/>
<feColorMatrix in="SourceAlpha" type="matrix" values="0 0 0 0 0 0 0 0 0 0 0 0 0 0 0 0 0 0 127 0" result="hardAlpha"/>
<feOffset dy="16"/>
<feGaussianBlur stdDeviation="20"/>
<feComposite in2="hardAlpha" operator="out"/>
<feColorMatrix type="matrix" values="0 0 0 0 1 0 0 0 0 1 0 0 0 0 1 0 0 0 1 0"/>
<feBlend mode="normal" in2="BackgroundImageFix" result="effect1_dropShadow_24_2377"/>
<feColorMatrix in="SourceAlpha" type="matrix" values="0 0 0 0 0 0 0 0 0 0 0 0 0 0 0 0 0 0 127 0" result="hardAlpha"/>
<feOffset dy="-17"/>
<feGaussianBlur stdDeviation="20"/>
<feComposite in2="hardAlpha" operator="out"/>
<feColorMatrix type="matrix" values="0 0 0 0 1 0 0 0 0 1 0 0 0 0 1 0 0 0 1 0"/>
<feBlend mode="normal" in2="effect1_dropShadow_24_2377" result="effect2_dropShadow_24_2377"/>
<feColorMatrix in="SourceAlpha" type="matrix" values="0 0 0 0 0 0 0 0 0 0 0 0 0 0 0 0 0 0 127 0" result="hardAlpha"/>
<feOffset dx="-16"/>
<feGaussianBlur stdDeviation="20"/>
<feComposite in2="hardAlpha" operator="out"/>
<feColorMatrix type="matrix" values="0 0 0 0 1 0 0 0 0 1 0 0 0 0 1 0 0 0 1 0"/>
<feBlend mode="normal" in2="effect2_dropShadow_24_2377" result="effect3_dropShadow_24_2377"/>
<feColorMatrix in="SourceAlpha" type="matrix" values="0 0 0 0 0 0 0 0 0 0 0 0 0 0 0 0 0 0 127 0" result="hardAlpha"/>
<feOffset dx="16"/>
<feGaussianBlur stdDeviation="20"/>
<feComposite in2="hardAlpha" operator="out"/>
<feColorMatrix type="matrix" values="0 0 0 0 1 0 0 0 0 1 0 0 0 0 1 0 0 0 1 0"/>
<feBlend mode="normal" in2="effect3_dropShadow_24_2377" result="effect4_dropShadow_24_2377"/>
<feBlend mode="normal" in="SourceGraphic" in2="effect4_dropShadow_24_2377" result="shape"/>
</filter>
<filter id="filter2_dddd_24_2377" x="31.0005" y="74" width="160" height="161" filterUnits="userSpaceOnUse" color-interpolation-filters="sRGB">
<feFlood flood-opacity="0" result="BackgroundImageFix"/>
<feColorMatrix in="SourceAlpha" type="matrix" values="0 0 0 0 0 0 0 0 0 0 0 0 0 0 0 0 0 0 127 0" result="hardAlpha"/>
<feOffset dy="16"/>
<feGaussianBlur stdDeviation="20"/>
<feComposite in2="hardAlpha" operator="out"/>
<feColorMatrix type="matrix" values="0 0 0 0 1 0 0 0 0 1 0 0 0 0 1 0 0 0 1 0"/>
<feBlend mode="normal" in2="BackgroundImageFix" result="effect1_dropShadow_24_2377"/>
<feColorMatrix in="SourceAlpha" type="matrix" values="0 0 0 0 0 0 0 0 0 0 0 0 0 0 0 0 0 0 127 0" result="hardAlpha"/>
<feOffset dy="-17"/>
<feGaussianBlur stdDeviation="20"/>
<feComposite in2="hardAlpha" operator="out"/>
<feColorMatrix type="matrix" values="0 0 0 0 1 0 0 0 0 1 0 0 0 0 1 0 0 0 1 0"/>
<feBlend mode="normal" in2="effect1_dropShadow_24_2377" result="effect2_dropShadow_24_2377"/>
<feColorMatrix in="SourceAlpha" type="matrix" values="0 0 0 0 0 0 0 0 0 0 0 0 0 0 0 0 0 0 127 0" result="hardAlpha"/>
<feOffset dx="-16"/>
<feGaussianBlur stdDeviation="20"/>
<feComposite in2="hardAlpha" operator="out"/>
<feColorMatrix type="matrix" values="0 0 0 0 1 0 0 0 0 1 0 0 0 0 1 0 0 0 1 0"/>
<feBlend mode="normal" in2="effect2_dropShadow_24_2377" result="effect3_dropShadow_24_2377"/>
<feColorMatrix in="SourceAlpha" type="matrix" values="0 0 0 0 0 0 0 0 0 0 0 0 0 0 0 0 0 0 127 0" result="hardAlpha"/>
<feOffset dx="16"/>
<feGaussianBlur stdDeviation="20"/>
<feComposite in2="hardAlpha" operator="out"/>
<feColorMatrix type="matrix" values="0 0 0 0 1 0 0 0 0 1 0 0 0 0 1 0 0 0 1 0"/>
<feBlend mode="normal" in2="effect3_dropShadow_24_2377" result="effect4_dropShadow_24_2377"/>
<feBlend mode="normal" in="SourceGraphic" in2="effect4_dropShadow_24_2377" result="shape"/>
</filter>
</defs>
</svg>
