<svg width="92" height="111" viewBox="0 0 92 111" fill="none" xmlns="http://www.w3.org/2000/svg">
<g filter="url(#filter0_dddd_24_4679)">
<path d="M71.0889 23.9015C71.0889 22.3131 69.8012 21.0254 68.2127 21.0254H56.3077C54.7192 21.0254 53.4316 22.3131 53.4316 23.9015V35.8542C53.4316 37.4427 54.7192 38.7304 56.3077 38.7304H68.2127C69.8012 38.7304 71.0889 37.4427 71.0889 35.8542V23.9015Z" fill="white" shape-rendering="crispEdges"/>
<path d="M68.2129 21.1152H56.3076C54.7689 21.1153 53.5216 22.3627 53.5215 23.9014V35.8545C53.5216 37.3932 54.7689 38.6406 56.3076 38.6406H68.2129C69.7515 38.6405 70.9989 37.3931 70.999 35.8545V23.9014C70.9989 22.3627 69.7516 21.1153 68.2129 21.1152Z" stroke="#E4E4E4" stroke-width="0.179758" shape-rendering="crispEdges"/>
<g clip-path="url(#clip0_24_4679)">
<path d="M62.2607 28.0801V33.1133" stroke="#1E3A8A" stroke-width="0.479355" stroke-linecap="round" stroke-linejoin="round"/>
<path d="M65.4969 32.0353C65.5923 32.0353 65.6837 31.9974 65.7511 31.93C65.8186 31.8626 65.8564 31.7712 65.8564 31.6758V27.0021C65.8564 26.9067 65.8186 26.8153 65.7511 26.7479C65.6837 26.6805 65.5923 26.6426 65.4969 26.6426H63.6993C63.3179 26.6426 62.9522 26.7941 62.6825 27.0638C62.4128 27.3335 62.2613 27.6992 62.2613 28.0806C62.2613 27.6992 62.1098 27.3335 61.8401 27.0638C61.5704 26.7941 61.2046 26.6426 60.8232 26.6426H59.0256C58.9303 26.6426 58.8388 26.6805 58.7714 26.7479C58.704 26.8153 58.6661 26.9067 58.6661 27.0021V31.6758C58.6661 31.7712 58.704 31.8626 58.7714 31.93C58.8388 31.9974 58.9303 32.0353 59.0256 32.0353H61.1827C61.4688 32.0353 61.7431 32.149 61.9454 32.3512C62.1477 32.5535 62.2613 32.8278 62.2613 33.1139C62.2613 32.8278 62.3749 32.5535 62.5772 32.3512C62.7794 32.149 63.0538 32.0353 63.3398 32.0353H65.4969Z" stroke="#1E3A8A" stroke-width="0.479355" stroke-linecap="round" stroke-linejoin="round"/>
</g>
</g>
<path d="M53.6053 29.7871C53.6053 30.0518 53.3907 30.2665 53.126 30.2665C52.8612 30.2665 52.6466 30.0518 52.6466 29.7871C52.6466 29.5224 52.8612 29.3078 53.126 29.3078C53.3907 29.3078 53.6053 29.5224 53.6053 29.7871ZM53.126 29.7871V29.877H52.3094V29.7871V29.6972H53.126V29.7871ZM50.6762 29.7871V29.877H49.043V29.7871V29.6972H50.6762V29.7871ZM47.4099 29.7871V29.877H45.7767V29.7871V29.6972H47.4099V29.7871ZM44.1435 29.7871V29.877H42.5103V29.7871V29.6972H44.1435V29.7871ZM40.8772 29.7871V29.877H39.244V29.7871V29.6972H40.8772V29.7871ZM37.6108 29.7871V29.877H35.9777V29.7871V29.6972H37.6108V29.7871ZM34.3445 29.7871V29.877H32.7113V29.7871V29.6972H34.3445V29.7871ZM31.0781 29.7871V29.877H29.445V29.7871V29.6972H31.0781V29.7871ZM27.8118 29.7871V29.877H26.1786V29.7871V29.6972H27.8118V29.7871ZM24.5454 29.7871V29.877H22.9123V29.7871V29.6972H24.5454V29.7871ZM21.2791 29.7871V29.877H19.6459V29.7871V29.6972H21.2791V29.7871ZM18.0128 29.7871V29.877H17.1962V29.7871V29.6972H18.0128V29.7871ZM17.1962 29.7871V29.877C17.0376 29.877 16.8866 29.9085 16.7489 29.9656L16.7145 29.8826L16.6801 29.7996C16.8392 29.7336 17.0135 29.6972 17.1962 29.6972V29.7871ZM16.0333 30.5638L16.1164 30.5982C16.0593 30.7358 16.0277 30.8868 16.0277 31.0454H15.9379H15.848C15.848 30.8628 15.8843 30.6884 15.9503 30.5293L16.0333 30.5638ZM15.9379 31.0454H16.0277V31.8943H15.9379H15.848V31.0454H15.9379ZM15.9379 33.5922H16.0277V35.2901H15.9379H15.848V33.5922H15.9379ZM15.9379 36.9879H16.0277V38.6858H15.9379H15.848V36.9879H15.9379ZM15.9379 40.3837H16.0277V42.0816H15.9379H15.848V40.3837H15.9379ZM15.9379 43.7794H16.0277V45.4773H15.9379H15.848V43.7794H15.9379ZM15.9379 47.1752H16.0277V48.873H15.9379H15.848V47.1752H15.9379ZM15.9379 50.5709H16.0277V52.2688H15.9379H15.848V50.5709H15.9379ZM15.9379 53.9666H16.0277V54.8156H15.9379H15.848V53.9666H15.9379ZM15.9379 54.8156H16.0277C16.0277 54.9982 15.9914 55.1726 15.9254 55.3316L15.8424 55.2972L15.7593 55.2628C15.8164 55.1251 15.848 54.9741 15.848 54.8156H15.9379ZM15.1612 55.9784L15.1956 56.0614C15.0366 56.1274 14.8622 56.1637 14.6796 56.1637V56.0739V55.984C14.8381 55.984 14.9891 55.9524 15.1268 55.8954L15.1612 55.9784ZM14.6796 56.0739V56.1637H13.8464V56.0739V55.984H14.6796V56.0739ZM12.1802 56.0739V56.1637H10.514V56.0739V55.984H12.1802V56.0739ZM8.84773 56.0739V56.1637H7.1815V56.0739V55.984H8.84773V56.0739ZM5.51526 56.0739V56.1637H3.84903V56.0739V55.984H5.51526V56.0739ZM2.18279 56.0739V56.1637H1.34968V56.0739V55.984H2.18279V56.0739ZM1.34968 56.0739V56.1637C1.19108 56.1637 1.04008 56.1953 0.902443 56.2524L0.868011 56.1693L0.833584 56.0863C0.992672 56.0203 1.16704 55.984 1.34968 55.984V56.0739ZM0.186852 56.8505L0.269875 56.8849C0.212799 57.0226 0.181252 57.1736 0.181252 57.3322H0.0913734H0.00149155C0.00149155 57.1495 0.0378571 56.9752 0.103828 56.8161L0.186852 56.8505ZM0.0913734 57.3322H0.181252V58.1272H0.0913734H0.00149155V57.3322H0.0913734ZM0.0913734 59.7172H0.181252V61.3073H0.0913734H0.00149155V59.7172H0.0913734ZM0.0913734 62.8974H0.181252V64.4874H0.0913734H0.00149155V62.8974H0.0913734ZM0.0913734 66.0775H0.181252V67.6675H0.0913734H0.00149155V66.0775H0.0913734ZM0.0913734 69.2576H0.181252V70.8476H0.0913734H0.00149155V69.2576H0.0913734ZM0.0913734 72.4377H0.181252V74.0277H0.0913734H0.00149155V72.4377H0.0913734ZM0.0913734 75.6178H0.181252V77.2078H0.0913734H0.00149155V75.6178H0.0913734ZM0.0913734 78.7979H0.181252V80.3879H0.0913734H0.00149155V78.7979H0.0913734ZM0.0913734 81.978H0.181252V83.568H0.0913734H0.00149155V81.978H0.0913734ZM0.0913734 85.1581H0.181252V86.7482H0.0913734H0.00149155V85.1581H0.0913734ZM0.0913734 88.3382H0.181252V89.9283H0.0913734H0.00149155V88.3382H0.0913734ZM0.0913734 91.5183H0.181252V93.1084H0.0913734H0.00149155V91.5183H0.0913734ZM0.0913734 94.6984H0.181252V96.2885H0.0913734H0.00149155V94.6984H0.0913734ZM0.0913734 97.8785H0.181252V99.4686H0.0913734H0.00149155V97.8785H0.0913734ZM0.0913734 101.059H0.181252V102.649H0.0913734H0.00149155V101.059H0.0913734ZM0.0913734 104.239H0.181252V105.034H0.0913734H0.00149155V104.239H0.0913734Z" fill="#484849"/>
<g filter="url(#filter1_dddd_24_4679)">
<path d="M71.085 75.1711C71.085 73.5826 69.7973 72.2949 68.2088 72.2949H56.3038C54.7153 72.2949 53.4277 73.5826 53.4277 75.1711V87.1238C53.4277 88.7122 54.7153 89.9999 56.3038 89.9999H68.2088C69.7973 89.9999 71.085 88.7122 71.085 87.1238V75.1711Z" fill="white" shape-rendering="crispEdges"/>
<path d="M68.209 72.3857H56.3037C54.7653 72.3858 53.5177 73.6325 53.5176 75.1709V87.124C53.5177 88.6624 54.7653 89.9091 56.3037 89.9092H68.209C69.7474 89.9091 70.994 88.6624 70.9941 87.124V75.1709C70.9941 73.6325 69.7474 72.3858 68.209 72.3857Z" stroke="#E4E4E4" stroke-width="0.180738" shape-rendering="crispEdges"/>
<path d="M58.8668 80.76C58.8024 80.7317 58.7478 80.685 58.7097 80.6259C58.6716 80.5667 58.6516 80.4977 58.6524 80.4274C58.6531 80.3571 58.6744 80.2885 58.7138 80.2301C58.7531 80.1718 58.8087 80.1263 58.8736 80.0993L61.955 78.6957C62.0487 78.653 62.1504 78.6309 62.2534 78.6309C62.3564 78.6309 62.4581 78.653 62.5518 78.6957L65.6329 80.0978C65.6969 80.1258 65.7513 80.1719 65.7895 80.2304C65.8278 80.2889 65.8481 80.3573 65.8481 80.4271C65.8481 80.497 65.8278 80.5654 65.7895 80.6239C65.7513 80.6823 65.6969 80.7284 65.6329 80.7564L62.5518 82.1614C62.4581 82.2042 62.3564 82.2263 62.2534 82.2263C62.1504 82.2263 62.0487 82.2042 61.955 82.1614L58.8668 80.76Z" stroke="#1E3A8A" stroke-width="0.479355" stroke-linecap="round" stroke-linejoin="round"/>
<path d="M58.6597 80.4297V82.5868" stroke="#1E3A8A" stroke-width="0.479355" stroke-linecap="round" stroke-linejoin="round"/>
<path d="M64.4111 81.3281V82.5864C64.4111 82.8725 64.1839 83.1468 63.7793 83.3491C63.3748 83.5513 62.8261 83.665 62.254 83.665C61.6819 83.665 61.1333 83.5513 60.7287 83.3491C60.3242 83.1468 60.0969 82.8725 60.0969 82.5864V81.3281" stroke="#1E3A8A" stroke-width="0.479355" stroke-linecap="round" stroke-linejoin="round"/>
</g>
<path d="M53.6053 81.454C53.6053 81.1893 53.3907 80.9747 53.126 80.9747C52.8612 80.9747 52.6466 81.1893 52.6466 81.454C52.6466 81.7188 52.8612 81.9334 53.126 81.9334C53.3907 81.9334 53.6053 81.7188 53.6053 81.454ZM53.126 81.454V81.3642H52.3094V81.454V81.5439H53.126V81.454ZM50.6762 81.454V81.3642H49.043V81.454V81.5439H50.6762V81.454ZM47.4099 81.454V81.3642H45.7767V81.454V81.5439H47.4099V81.454ZM44.1435 81.454V81.3642H42.5103V81.454V81.5439H44.1435V81.454ZM40.8772 81.454V81.3642H39.244V81.454V81.5439H40.8772V81.454ZM37.6108 81.454V81.3642H35.9777V81.454V81.5439H37.6108V81.454ZM34.3445 81.454V81.3642H32.7113V81.454V81.5439H34.3445V81.454ZM31.0781 81.454V81.3642H29.445V81.454V81.5439H31.0781V81.454ZM27.8118 81.454V81.3642H26.1786V81.454V81.5439H27.8118V81.454ZM24.5454 81.454V81.3642H22.9123V81.454V81.5439H24.5454V81.454ZM21.2791 81.454V81.3642H19.6459V81.454V81.5439H21.2791V81.454ZM18.0128 81.454V81.3642H17.1962V81.454V81.5439H18.0128V81.454ZM17.1962 81.454V81.3642C17.0376 81.3642 16.8866 81.3326 16.7489 81.2755L16.7145 81.3586L16.6801 81.4416C16.8392 81.5076 17.0135 81.5439 17.1962 81.5439V81.454ZM16.0333 80.6774L16.1164 80.643C16.0593 80.5053 16.0277 80.3543 16.0277 80.1957H15.9379H15.848C15.848 80.3784 15.8843 80.5527 15.9503 80.7118L16.0333 80.6774ZM15.9379 80.1957H16.0277V79.3792H15.9379H15.848V80.1957H15.9379ZM15.9379 77.7461H16.0277V76.1129H15.9379H15.848V77.7461H15.9379ZM15.9379 74.4798H16.0277V72.8467H15.9379H15.848V74.4798H15.9379ZM15.9379 71.2136H16.0277V69.5805H15.9379H15.848V71.2136H15.9379ZM15.9379 67.9473H16.0277V66.3142H15.9379H15.848V67.9473H15.9379ZM15.9379 64.6811H16.0277V63.048H15.9379H15.848V64.6811H15.9379ZM15.9379 61.4148H16.0277V59.7817H15.9379H15.848V61.4148H15.9379ZM15.9379 58.1486H16.0277V57.332H15.9379H15.848V58.1486H15.9379ZM15.9379 57.332H16.0277C16.0277 57.1494 15.9914 56.975 15.9254 56.8159L15.8424 56.8504L15.7593 56.8848C15.8164 57.0224 15.848 57.1734 15.848 57.332H15.9379ZM15.1612 56.1692L15.1956 56.0862C15.0366 56.0202 14.8622 55.9839 14.6796 55.9839V56.0737V56.1636C14.8381 56.1636 14.9891 56.1952 15.1268 56.2522L15.1612 56.1692ZM14.6796 56.0737V55.9839H13.8464V56.0737V56.1636H14.6796V56.0737ZM12.1802 56.0737V55.9839H10.514V56.0737V56.1636H12.1802V56.0737ZM8.84773 56.0737V55.9839H7.1815V56.0737V56.1636H8.84773V56.0737ZM5.51526 56.0737V55.9839H3.84903V56.0737V56.1636H5.51526V56.0737ZM2.18279 56.0737V55.9839H1.34968V56.0737V56.1636H2.18279V56.0737ZM1.34968 56.0737V55.9839C1.16704 55.9839 0.992672 56.0202 0.833584 56.0862L0.868011 56.1692L0.902443 56.2522C1.04008 56.1952 1.19108 56.1636 1.34968 56.1636V56.0737ZM0.186852 56.8504L0.103828 56.8159C0.0378571 56.975 0.00149155 57.1494 0.00149155 57.332H0.0913734H0.181252C0.181252 57.1734 0.212799 57.0224 0.269875 56.8848L0.186852 56.8504ZM0.0913734 57.332H0.00149155V58.1271H0.0913734H0.181252V57.332H0.0913734ZM0.0913734 59.7171H0.00149155V61.3071H0.0913734H0.181252V59.7171H0.0913734ZM0.0913734 62.8972H0.00149155V64.4872H0.0913734H0.181252V62.8972H0.0913734ZM0.0913734 66.0773H0.00149155V67.6673H0.0913734H0.181252V66.0773H0.0913734ZM0.0913734 69.2573H0.00149155V70.8474H0.0913734H0.181252V69.2573H0.0913734ZM0.0913734 72.4374H0.00149155V74.0274H0.0913734H0.181252V72.4374H0.0913734ZM0.0913734 75.6175H0.00149155V77.2075H0.0913734H0.181252V75.6175H0.0913734ZM0.0913734 78.7976H0.00149155V80.3876H0.0913734H0.181252V78.7976H0.0913734ZM0.0913734 81.9776H0.00149155V83.5677H0.0913734H0.181252V81.9776H0.0913734ZM0.0913734 85.1577H0.00149155V86.7478H0.0913734H0.181252V85.1577H0.0913734ZM0.0913734 88.3378H0.00149155V89.9278H0.0913734H0.181252V88.3378H0.0913734ZM0.0913734 91.5179H0.00149155V93.1079H0.0913734H0.181252V91.5179H0.0913734ZM0.0913734 94.6979H0.00149155V96.288H0.0913734H0.181252V94.6979H0.0913734ZM0.0913734 97.878H0.00149155V99.4681H0.0913734H0.181252V97.878H0.0913734ZM0.0913734 101.058H0.00149155V102.648H0.0913734H0.181252V101.058H0.0913734ZM0.0913734 104.238H0.00149155V105.033H0.0913734H0.181252V104.238H0.0913734Z" fill="#484849"/>
<g filter="url(#filter2_dddd_24_4679)">
<path d="M49.751 51.1964C49.751 49.608 48.4633 48.3203 46.8748 48.3203H34.9698C33.3814 48.3203 32.0937 49.608 32.0937 51.1964V63.1492C32.0937 64.7376 33.3814 66.0253 34.9698 66.0253H46.8748C48.4633 66.0253 49.751 64.7376 49.751 63.1492V51.1964Z" fill="white" shape-rendering="crispEdges"/>
<path d="M46.875 48.4102H34.9697C33.431 48.4102 32.1837 49.6576 32.1836 51.1963V63.1494C32.1837 64.6881 33.431 65.9355 34.9697 65.9355H46.875C48.4136 65.9355 49.661 64.6881 49.6611 63.1494V51.1963C49.661 49.6576 48.4137 48.4102 46.875 48.4102Z" stroke="#E4E4E4" stroke-width="0.179758" shape-rendering="crispEdges"/>
<g clip-path="url(#clip1_24_4679)">
<path d="M39.4823 60.0494V54.2972C39.4823 54.1065 39.558 53.9236 39.6929 53.7887C39.8277 53.6539 40.0106 53.5781 40.2013 53.5781H41.6394C41.8301 53.5781 42.013 53.6539 42.1478 53.7887C42.2826 53.9236 42.3584 54.1065 42.3584 54.2972V60.0494" stroke="#1E3A8A" stroke-width="0.479355" stroke-linecap="round" stroke-linejoin="round"/>
<path d="M38.0458 55.0176H43.7981C44.1952 55.0176 44.5171 55.3395 44.5171 55.7366V59.3318C44.5171 59.7289 44.1952 60.0508 43.7981 60.0508H38.0458C37.6487 60.0508 37.3268 59.7289 37.3268 59.3318V55.7366C37.3268 55.3395 37.6487 55.0176 38.0458 55.0176Z" stroke="#1E3A8A" stroke-width="0.479355" stroke-linecap="round" stroke-linejoin="round"/>
</g>
</g>
<path d="M32.4042 56.3965C32.4042 56.6612 32.1895 56.8758 31.9248 56.8758C31.6601 56.8758 31.4454 56.6612 31.4454 56.3965C31.4454 56.1317 31.6601 55.9171 31.9248 55.9171C32.1895 55.9171 32.4042 56.1317 32.4042 56.3965ZM31.9248 56.3965V56.4864H31.5705V56.3965V56.3066H31.9248V56.3965ZM30.862 56.3965V56.4864H30.1535V56.3965V56.3066H30.862V56.3965ZM29.445 56.3965V56.4864H28.7365V56.3965V56.3066H29.445V56.3965ZM28.0279 56.3965V56.4864H27.3194V56.3965V56.3066H28.0279V56.3965ZM26.6109 56.3965V56.4864H25.9024V56.3965V56.3066H26.6109V56.3965ZM25.1938 56.3965V56.4864H24.4853V56.3965V56.3066H25.1938V56.3965ZM23.7768 56.3965V56.4864H23.0683V56.3965V56.3066H23.7768V56.3965ZM22.3597 56.3965V56.4864H21.6512V56.3965V56.3066H22.3597V56.3965ZM20.9427 56.3965V56.4864H20.2342V56.3965V56.3066H20.9427V56.3965ZM19.5257 56.3965V56.4864H18.8171V56.3965V56.3066H19.5257V56.3965ZM18.1086 56.3965V56.4864H17.4001V56.3965V56.3066H18.1086V56.3965ZM16.6916 56.3965V56.4864H15.983V56.3965V56.3066H16.6916V56.3965ZM15.2745 56.3965V56.4864H14.9203V56.3965V56.3066H15.2745V56.3965ZM14.9203 56.3965V56.4864H14.581V56.3965V56.3066H14.9203V56.3965ZM13.9023 56.3965V56.4864H13.2237V56.3965V56.3066H13.9023V56.3965ZM12.5451 56.3965V56.4864H11.8665V56.3965V56.3066H12.5451V56.3965ZM11.1879 56.3965V56.4864H10.5093V56.3965V56.3066H11.1879V56.3965ZM9.83071 56.3965V56.4864H9.15211V56.3965V56.3066H9.83071V56.3965ZM8.4735 56.3965V56.4864H7.7949V56.3965V56.3066H8.4735V56.3965ZM7.11629 56.3965V56.4864H6.43769V56.3965V56.3066H7.11629V56.3965ZM5.75908 56.3965V56.4864H5.08047V56.3965V56.3066H5.75908V56.3965ZM4.40187 56.3965V56.4864H3.72326V56.3965V56.3066H4.40187V56.3965ZM3.04465 56.3965V56.4864H2.36605V56.3965V56.3066H3.04465V56.3965ZM1.68744 56.3965V56.4864H1.34814V56.3965V56.3066H1.68744V56.3965ZM1.34814 56.3965V56.4864C1.18955 56.4864 1.03855 56.5179 0.900906 56.575L0.866478 56.492L0.832048 56.4089C0.991135 56.343 1.1655 56.3066 1.34814 56.3066V56.3965ZM0.185316 57.1731L0.268339 57.2076C0.211262 57.3452 0.179714 57.4962 0.179714 57.6548H0.0898342H-4.3869e-05C-4.3869e-05 57.4722 0.0363216 57.2978 0.102291 57.1387L0.185316 57.1731ZM0.0898342 57.6548H0.179714V58.0097H0.0898342H-4.3869e-05V57.6548H0.0898342ZM0.0898342 58.7194H0.179714V59.4292H0.0898342H-4.3869e-05V58.7194H0.0898342ZM0.0898342 60.1389H0.179714V60.8486H0.0898342H-4.3869e-05V60.1389H0.0898342ZM0.0898342 61.5584H0.179714V62.2681H0.0898342H-4.3869e-05V61.5584H0.0898342ZM0.0898342 62.9779H0.179714V63.6876H0.0898342H-4.3869e-05V62.9779H0.0898342ZM0.0898342 64.3974H0.179714V65.1071H0.0898342H-4.3869e-05V64.3974H0.0898342ZM0.0898342 65.8169H0.179714V66.5266H0.0898342H-4.3869e-05V65.8169H0.0898342ZM0.0898342 67.2364H0.179714V67.9461H0.0898342H-4.3869e-05V67.2364H0.0898342ZM0.0898342 68.6559H0.179714V69.3656H0.0898342H-4.3869e-05V68.6559H0.0898342ZM0.0898342 70.0754H0.179714V70.7851H0.0898342H-4.3869e-05V70.0754H0.0898342ZM0.0898342 71.4948H0.179714V72.2046H0.0898342H-4.3869e-05V71.4948H0.0898342ZM0.0898342 72.9143H0.179714V73.6241H0.0898342H-4.3869e-05V72.9143H0.0898342ZM0.0898342 74.3338H0.179714V75.0436H0.0898342H-4.3869e-05V74.3338H0.0898342ZM0.0898342 75.7533H0.179714V76.4631H0.0898342H-4.3869e-05V75.7533H0.0898342ZM0.0898342 77.1728H0.179714V77.8826H0.0898342H-4.3869e-05V77.1728H0.0898342ZM0.0898342 78.5923H0.179714V79.3021H0.0898342H-4.3869e-05V78.5923H0.0898342ZM0.0898342 80.0118H0.179714V80.7216H0.0898342H-4.3869e-05V80.0118H0.0898342ZM0.0898342 81.4313H0.179714V82.1411H0.0898342H-4.3869e-05V81.4313H0.0898342ZM0.0898342 82.8508H0.179714V83.5605H0.0898342H-4.3869e-05V82.8508H0.0898342ZM0.0898342 84.2703H0.179714V84.98H0.0898342H-4.3869e-05V84.2703H0.0898342ZM0.0898342 85.6898H0.179714V86.3995H0.0898342H-4.3869e-05V85.6898H0.0898342ZM0.0898342 87.1093H0.179714V87.819H0.0898342H-4.3869e-05V87.1093H0.0898342ZM0.0898342 88.5288H0.179714V89.2385H0.0898342H-4.3869e-05V88.5288H0.0898342ZM0.0898342 89.9483H0.179714V90.658H0.0898342H-4.3869e-05V89.9483H0.0898342ZM0.0898342 91.3678H0.179714V92.0775H0.0898342H-4.3869e-05V91.3678H0.0898342ZM0.0898342 92.7873H0.179714V93.497H0.0898342H-4.3869e-05V92.7873H0.0898342ZM0.0898342 94.2068H0.179714V94.9165H0.0898342H-4.3869e-05V94.2068H0.0898342ZM0.0898342 95.6263H0.179714V96.336H0.0898342H-4.3869e-05V95.6263H0.0898342ZM0.0898342 97.0457H0.179714V97.7555H0.0898342H-4.3869e-05V97.0457H0.0898342ZM0.0898342 98.4652H0.179714V99.175H0.0898342H-4.3869e-05V98.4652H0.0898342ZM0.0898342 99.8847H0.179714V100.594H0.0898342H-4.3869e-05V99.8847H0.0898342ZM0.0898342 101.304H0.179714V102.014H0.0898342H-4.3869e-05V101.304H0.0898342ZM0.0898342 102.724H0.179714V103.433H0.0898342H-4.3869e-05V102.724H0.0898342ZM0.0898342 104.143H0.179714V104.853H0.0898342H-4.3869e-05V104.143H0.0898342ZM0.0898342 105.563H0.179714V105.918H0.0898342H-4.3869e-05V105.563H0.0898342Z" fill="#484849"/>
<defs>
<filter id="filter0_dddd_24_4679" x="32.7758" y="0.000728607" width="58.9688" height="59.3855" filterUnits="userSpaceOnUse" color-interpolation-filters="sRGB">
<feFlood flood-opacity="0" result="BackgroundImageFix"/>
<feColorMatrix in="SourceAlpha" type="matrix" values="0 0 0 0 0 0 0 0 0 0 0 0 0 0 0 0 0 0 127 0" result="hardAlpha"/>
<feOffset dy="5.90166"/>
<feGaussianBlur stdDeviation="7.37707"/>
<feComposite in2="hardAlpha" operator="out"/>
<feColorMatrix type="matrix" values="0 0 0 0 1 0 0 0 0 1 0 0 0 0 1 0 0 0 1 0"/>
<feBlend mode="normal" in2="BackgroundImageFix" result="effect1_dropShadow_24_4679"/>
<feColorMatrix in="SourceAlpha" type="matrix" values="0 0 0 0 0 0 0 0 0 0 0 0 0 0 0 0 0 0 127 0" result="hardAlpha"/>
<feOffset dy="-6.27051"/>
<feGaussianBlur stdDeviation="7.37707"/>
<feComposite in2="hardAlpha" operator="out"/>
<feColorMatrix type="matrix" values="0 0 0 0 1 0 0 0 0 1 0 0 0 0 1 0 0 0 1 0"/>
<feBlend mode="normal" in2="effect1_dropShadow_24_4679" result="effect2_dropShadow_24_4679"/>
<feColorMatrix in="SourceAlpha" type="matrix" values="0 0 0 0 0 0 0 0 0 0 0 0 0 0 0 0 0 0 127 0" result="hardAlpha"/>
<feOffset dx="-5.90166"/>
<feGaussianBlur stdDeviation="7.37707"/>
<feComposite in2="hardAlpha" operator="out"/>
<feColorMatrix type="matrix" values="0 0 0 0 1 0 0 0 0 1 0 0 0 0 1 0 0 0 1 0"/>
<feBlend mode="normal" in2="effect2_dropShadow_24_4679" result="effect3_dropShadow_24_4679"/>
<feColorMatrix in="SourceAlpha" type="matrix" values="0 0 0 0 0 0 0 0 0 0 0 0 0 0 0 0 0 0 127 0" result="hardAlpha"/>
<feOffset dx="5.90166"/>
<feGaussianBlur stdDeviation="7.37707"/>
<feComposite in2="hardAlpha" operator="out"/>
<feColorMatrix type="matrix" values="0 0 0 0 1 0 0 0 0 1 0 0 0 0 1 0 0 0 1 0"/>
<feBlend mode="normal" in2="effect3_dropShadow_24_4679" result="effect4_dropShadow_24_4679"/>
<feBlend mode="normal" in="SourceGraphic" in2="effect4_dropShadow_24_4679" result="shape"/>
</filter>
<filter id="filter1_dddd_24_4679" x="32.7719" y="51.2703" width="58.9688" height="59.3855" filterUnits="userSpaceOnUse" color-interpolation-filters="sRGB">
<feFlood flood-opacity="0" result="BackgroundImageFix"/>
<feColorMatrix in="SourceAlpha" type="matrix" values="0 0 0 0 0 0 0 0 0 0 0 0 0 0 0 0 0 0 127 0" result="hardAlpha"/>
<feOffset dy="5.90166"/>
<feGaussianBlur stdDeviation="7.37707"/>
<feComposite in2="hardAlpha" operator="out"/>
<feColorMatrix type="matrix" values="0 0 0 0 1 0 0 0 0 1 0 0 0 0 1 0 0 0 1 0"/>
<feBlend mode="normal" in2="BackgroundImageFix" result="effect1_dropShadow_24_4679"/>
<feColorMatrix in="SourceAlpha" type="matrix" values="0 0 0 0 0 0 0 0 0 0 0 0 0 0 0 0 0 0 127 0" result="hardAlpha"/>
<feOffset dy="-6.27051"/>
<feGaussianBlur stdDeviation="7.37707"/>
<feComposite in2="hardAlpha" operator="out"/>
<feColorMatrix type="matrix" values="0 0 0 0 1 0 0 0 0 1 0 0 0 0 1 0 0 0 1 0"/>
<feBlend mode="normal" in2="effect1_dropShadow_24_4679" result="effect2_dropShadow_24_4679"/>
<feColorMatrix in="SourceAlpha" type="matrix" values="0 0 0 0 0 0 0 0 0 0 0 0 0 0 0 0 0 0 127 0" result="hardAlpha"/>
<feOffset dx="-5.90166"/>
<feGaussianBlur stdDeviation="7.37707"/>
<feComposite in2="hardAlpha" operator="out"/>
<feColorMatrix type="matrix" values="0 0 0 0 1 0 0 0 0 1 0 0 0 0 1 0 0 0 1 0"/>
<feBlend mode="normal" in2="effect2_dropShadow_24_4679" result="effect3_dropShadow_24_4679"/>
<feColorMatrix in="SourceAlpha" type="matrix" values="0 0 0 0 0 0 0 0 0 0 0 0 0 0 0 0 0 0 127 0" result="hardAlpha"/>
<feOffset dx="5.90166"/>
<feGaussianBlur stdDeviation="7.37707"/>
<feComposite in2="hardAlpha" operator="out"/>
<feColorMatrix type="matrix" values="0 0 0 0 1 0 0 0 0 1 0 0 0 0 1 0 0 0 1 0"/>
<feBlend mode="normal" in2="effect3_dropShadow_24_4679" result="effect4_dropShadow_24_4679"/>
<feBlend mode="normal" in="SourceGraphic" in2="effect4_dropShadow_24_4679" result="shape"/>
</filter>
<filter id="filter2_dddd_24_4679" x="11.4379" y="27.2957" width="58.9688" height="59.3855" filterUnits="userSpaceOnUse" color-interpolation-filters="sRGB">
<feFlood flood-opacity="0" result="BackgroundImageFix"/>
<feColorMatrix in="SourceAlpha" type="matrix" values="0 0 0 0 0 0 0 0 0 0 0 0 0 0 0 0 0 0 127 0" result="hardAlpha"/>
<feOffset dy="5.90166"/>
<feGaussianBlur stdDeviation="7.37707"/>
<feComposite in2="hardAlpha" operator="out"/>
<feColorMatrix type="matrix" values="0 0 0 0 1 0 0 0 0 1 0 0 0 0 1 0 0 0 1 0"/>
<feBlend mode="normal" in2="BackgroundImageFix" result="effect1_dropShadow_24_4679"/>
<feColorMatrix in="SourceAlpha" type="matrix" values="0 0 0 0 0 0 0 0 0 0 0 0 0 0 0 0 0 0 127 0" result="hardAlpha"/>
<feOffset dy="-6.27051"/>
<feGaussianBlur stdDeviation="7.37707"/>
<feComposite in2="hardAlpha" operator="out"/>
<feColorMatrix type="matrix" values="0 0 0 0 1 0 0 0 0 1 0 0 0 0 1 0 0 0 1 0"/>
<feBlend mode="normal" in2="effect1_dropShadow_24_4679" result="effect2_dropShadow_24_4679"/>
<feColorMatrix in="SourceAlpha" type="matrix" values="0 0 0 0 0 0 0 0 0 0 0 0 0 0 0 0 0 0 127 0" result="hardAlpha"/>
<feOffset dx="-5.90166"/>
<feGaussianBlur stdDeviation="7.37707"/>
<feComposite in2="hardAlpha" operator="out"/>
<feColorMatrix type="matrix" values="0 0 0 0 1 0 0 0 0 1 0 0 0 0 1 0 0 0 1 0"/>
<feBlend mode="normal" in2="effect2_dropShadow_24_4679" result="effect3_dropShadow_24_4679"/>
<feColorMatrix in="SourceAlpha" type="matrix" values="0 0 0 0 0 0 0 0 0 0 0 0 0 0 0 0 0 0 127 0" result="hardAlpha"/>
<feOffset dx="5.90166"/>
<feGaussianBlur stdDeviation="7.37707"/>
<feComposite in2="hardAlpha" operator="out"/>
<feColorMatrix type="matrix" values="0 0 0 0 1 0 0 0 0 1 0 0 0 0 1 0 0 0 1 0"/>
<feBlend mode="normal" in2="effect3_dropShadow_24_4679" result="effect4_dropShadow_24_4679"/>
<feBlend mode="normal" in="SourceGraphic" in2="effect4_dropShadow_24_4679" result="shape"/>
</filter>
<clipPath id="clip0_24_4679">
<rect width="8.62839" height="8.62839" fill="white" transform="matrix(-1 0 0 1 66.5742 25.5645)"/>
</clipPath>
<clipPath id="clip1_24_4679">
<rect width="8.62839" height="8.62839" fill="white" transform="matrix(-1 0 0 1 45.2363 52.8594)"/>
</clipPath>
</defs>
</svg>
