<svg width="1052" height="593" viewBox="0 0 1052 593" fill="none" xmlns="http://www.w3.org/2000/svg">
<path d="M777.716 361.251C760.831 371.378 730.747 384.066 700.004 371.026L680.131 362.596L719.954 317.955C688.178 282.914 670.6 237.29 670.651 189.987C670.701 142.684 688.378 97.097 720.23 62.125C752.082 27.153 795.823 5.30551 842.915 0.847077C890.008 -3.61136 937.072 9.6392 974.921 38.0124C1012.77 66.3856 1038.69 107.845 1047.61 154.298C1056.54 200.751 1047.84 248.864 1023.2 289.245C998.566 329.627 959.766 359.378 914.375 372.693C868.985 386.007 820.261 381.929 777.715 361.255L777.716 361.251ZM701.416 189.883C701.329 211.689 705.754 233.277 714.414 253.289C723.075 273.302 735.783 291.306 751.738 306.169L762.723 316.492L737.664 344.583C750.717 341.935 762.086 334.873 767.851 330.772L775.761 325.144L784.268 329.818C807.783 342.693 834.16 349.44 860.968 349.438C948.946 349.438 1020.52 277.863 1020.52 189.884C1020.52 101.905 948.947 30.3288 860.969 30.3288C772.991 30.3288 701.415 101.901 701.415 189.883H701.416Z" fill="#1E3A8A"/>
<path d="M676 189.925C676.016 148.284 689.532 107.801 714.468 74.7031C739.405 41.6052 774.381 17.7252 814.018 6.73582C853.654 -4.25354 895.756 -1.74357 933.847 13.8797C971.939 29.5029 1003.91 57.3741 1024.84 93.2068C1045.78 129.039 1054.52 170.849 1049.71 212.205C1044.91 253.561 1026.84 292.173 998.264 322.102C969.693 352.031 932.21 371.621 891.58 377.857C850.95 384.093 809.424 376.631 773.387 356.618C760.42 365.967 728.789 384.613 697.541 371.182L735.158 328.454C716.46 310.701 701.56 289.244 691.384 265.415C681.207 241.585 675.971 215.89 676 189.925Z" fill="white"/>
<path d="M1006.18 190.262C1006.17 146.522 989.795 104.368 960.264 72.1018C930.733 39.8353 890.192 19.7949 846.623 15.9273C851.723 15.4803 856.878 15.2393 862.092 15.2393C885.076 15.2393 907.836 19.7664 929.07 28.5621C950.305 37.3578 969.6 50.2499 985.852 66.5023C1002.1 82.7547 1015 102.049 1023.79 123.284C1032.59 144.519 1037.12 167.278 1037.12 190.262C1037.12 213.247 1032.59 236.006 1023.79 257.241C1015 278.475 1002.1 297.77 985.852 314.022C969.6 330.275 950.305 343.167 929.07 351.962C907.836 360.758 885.076 365.285 862.092 365.285C856.886 365.285 851.738 365.04 846.647 364.595C890.211 360.722 930.746 340.679 960.272 308.414C989.798 276.148 1006.17 233.998 1006.18 190.262Z" fill="#EFECFC"/>
<path d="M206.606 551.407C162.872 551.429 120.459 536.419 86.475 508.891C52.4912 481.362 29.002 442.99 19.9439 400.204C10.8858 357.418 16.8094 312.819 36.7218 273.88C56.6343 234.942 89.3255 204.031 129.317 186.328C169.308 168.626 214.169 165.206 256.381 176.644C298.593 188.081 335.592 213.68 361.175 249.151C386.759 284.622 399.374 327.808 396.905 371.473C394.436 415.137 377.033 456.626 347.614 488.987L387.437 533.629L367.564 542.059C336.821 555.099 306.738 542.41 289.852 532.284C263.904 544.863 235.443 551.401 206.606 551.407ZM206.606 201.361C118.628 201.361 47.0523 272.937 47.0523 360.915C47.0523 448.893 118.628 520.469 206.606 520.469C233.421 520.471 259.805 513.721 283.324 500.842L291.817 496.175L299.727 501.803C305.492 505.903 316.861 512.966 329.914 515.614L304.855 487.523L315.84 477.2C331.796 462.337 344.504 444.333 353.164 424.32C361.825 404.308 366.25 382.72 366.162 360.914C366.162 272.936 294.586 201.36 206.608 201.36L206.606 201.361Z" fill="#1E3A8A"/>
<path d="M397 357.426C396.983 316.333 383.251 276.383 357.916 243.72C332.581 211.058 297.045 187.492 256.774 176.647C216.503 165.802 173.728 168.279 135.027 183.697C96.3262 199.115 63.843 226.619 42.5736 261.98C21.3041 297.342 12.4263 338.601 17.3057 379.413C22.185 420.224 40.5511 458.328 69.5794 487.864C98.6077 517.399 136.69 536.731 177.97 542.885C219.25 549.039 261.441 541.675 298.054 521.926C311.23 531.151 343.365 549.552 375.114 536.298L336.895 494.132C355.893 476.613 371.031 455.438 381.37 431.922C391.71 408.406 397.029 383.05 397 357.426Z" fill="white"/>
<path d="M62.521 360.03C62.5236 316.29 78.9031 274.136 108.434 241.869C137.965 209.603 178.506 189.563 222.075 185.695C216.975 185.248 211.82 185.007 206.606 185.007C160.187 185.007 115.669 203.447 82.8461 236.27C50.0229 269.093 31.583 313.611 31.583 360.03C31.583 406.449 50.0229 450.967 82.8461 483.79C115.669 516.613 160.187 535.053 206.606 535.053C211.812 535.053 216.96 534.808 222.051 534.363C178.487 530.489 137.952 510.447 108.426 478.181C78.9003 445.916 62.5238 403.766 62.521 360.03Z" fill="#EFECFC"/>
<path d="M902.057 134.278C890.606 114.929 867.95 114.027 867.95 114.027C867.95 114.027 845.873 111.204 831.711 140.673C818.511 168.141 800.293 194.662 828.778 201.092L833.923 185.078L837.109 202.285C841.165 202.577 845.234 202.646 849.297 202.493C879.802 201.508 908.854 202.781 907.919 191.834C906.676 177.282 913.076 152.896 902.057 134.278Z" fill="#090814"/>
<path d="M827.152 303.73C826.815 305.858 826.327 307.959 825.691 310.018C824.974 312.033 823.868 313.897 823.213 315.932C821.124 322.421 824.02 329.657 828.644 334.665C832.653 338.99 837.827 342.064 843.544 343.515C847.753 344.416 852.047 344.867 856.352 344.861C868.252 345.261 880.467 345.626 891.752 341.8C895.315 340.561 898.757 338.997 902.035 337.128C903.069 336.635 903.981 335.918 904.703 335.028C905.458 333.724 905.794 332.219 905.666 330.718C905.641 325.671 904.618 320.651 904.861 315.61C904.996 312.818 905.518 310.028 905.261 307.244C904.905 304.083 903.58 301.109 901.469 298.729C899.358 296.349 896.563 294.68 893.467 293.95C890.267 293.263 886.948 293.637 883.69 293.95C875.233 294.762 866.741 295.142 858.246 295.088C849.566 295.033 840.94 293.708 832.303 293.569C829.749 293.528 829.803 294.315 828.987 296.787C828.237 299.062 827.625 301.38 827.152 303.728V303.73Z" fill="#090814"/>
<path d="M851.784 179.118C851.525 181.334 850.781 183.466 849.603 185.361C848.093 187.426 845.631 188.606 844.003 190.582C841.558 193.557 841.417 197.743 841.403 201.593C841.394 205.14 841.466 208.924 843.444 211.869C844.852 213.698 846.6 215.239 848.591 216.407C856.01 221.407 864.026 226.496 872.971 226.661C876.677 226.729 880.651 225.772 883.089 222.981C884.142 221.669 884.97 220.192 885.539 218.61C887.826 212.972 889.212 207.009 889.647 200.941C889.977 198.088 889.71 195.197 888.865 192.453C887.778 189.423 885.581 186.931 884.129 184.058C882.412 180.642 881.784 176.782 882.329 172.999C882.401 172.733 882.379 172.45 882.266 172.199C882.146 172.064 881.997 171.958 881.831 171.891C881.664 171.823 881.483 171.795 881.304 171.809L863.568 170.532C861.916 170.45 860.271 170.261 858.644 169.969C857.688 169.775 855.163 168.417 854.251 168.778C852.573 169.446 852.13 177.307 851.784 179.118Z" fill="#ED9DA0"/>
<path d="M868.746 181.496C883.116 181.496 894.766 169.847 894.766 155.476C894.766 141.106 883.116 129.456 868.746 129.456C854.375 129.456 842.726 141.106 842.726 155.476C842.726 169.847 854.375 181.496 868.746 181.496Z" fill="#ED9DA0"/>
<path d="M855.434 213.755C856.72 215.243 858.269 216.481 860.004 217.407C861.814 218.154 863.757 218.524 865.714 218.494C870.404 218.626 875.489 217.766 878.752 214.394C882.958 210.047 882.819 203.036 886.116 197.965C886.382 197.505 886.744 197.108 887.178 196.803C887.731 196.501 888.356 196.357 888.985 196.387C893.149 196.348 896.776 199.049 900.049 201.622C901.59 202.682 902.912 204.029 903.943 205.589C904.591 206.851 905.034 208.209 905.256 209.611C906.88 217.541 907.407 225.648 907.929 233.726C908.217 238.188 908.506 242.653 908.484 247.126C908.413 261.855 904.99 276.338 901.584 290.669C901.145 292.516 900.545 294.579 898.866 295.464C898.118 295.8 897.314 295.996 896.494 296.043C886.762 297.353 876.969 298.168 867.154 298.486C863.323 298.544 859.494 298.452 855.666 298.208C855.008 298.199 854.354 298.085 853.731 297.871C852.886 297.464 852.159 296.847 851.621 296.079C846.311 289.388 845.997 280.136 846.031 271.594C846.114 250.708 846.86 229.839 848.27 208.987C848.386 207.266 848.412 205.176 847.17 203.822C849.585 207.4 852.352 210.728 855.43 213.756L855.434 213.755Z" fill="#716F97"/>
<path d="M849.922 183.711C849.043 185.302 842.564 189.252 841.313 190.571C834.324 197.938 821.569 197.661 815.177 205.551C812.928 208.327 811.76 211.815 810.9 215.283C809.685 220.183 809.036 225.536 811.072 230.161C813.031 234.611 817.155 237.687 819.955 241.661C823.029 246.025 824.411 251.325 825.736 256.496C826.714 260.314 827.7 264.227 827.319 268.151C826.886 272.612 824.727 276.696 823.453 280.993C822.179 285.29 821.959 290.407 824.905 293.783C827.07 296.264 830.466 297.247 833.711 297.8C837.868 298.425 842.06 298.79 846.262 298.893C849.972 299.057 854.062 299.093 856.914 296.71C859.165 294.833 860.143 291.788 860.269 288.86C860.235 285.929 859.945 283.006 859.405 280.125C859.005 277.113 858.857 274.075 858.73 271.04C858.16 257.422 858.082 243.795 858.496 230.159C858.705 227.325 858.566 224.476 858.082 221.676C857.282 218.028 855.315 214.768 853.67 211.417C850.384 205.104 848.897 198.009 849.37 190.908C849.867 183.61 853.05 178.05 849.922 183.711Z" fill="#716F97"/>
<path d="M886.461 184.265C887.8 185.641 892.348 186.094 894.051 186.98C895.652 187.72 897.324 188.298 899.04 188.707C905.251 190.499 911.159 193.211 916.568 196.752C917.692 197.41 918.685 198.268 919.499 199.284C920.356 200.679 920.909 202.24 921.12 203.863C922.121 207.96 922.619 212.164 922.604 216.382C922.404 220.85 921.059 225.182 919.724 229.446L914.735 245.395C911.011 257.3 907.264 269.323 906.216 281.753C905.636 288.642 905.894 295.576 906.984 302.403C907.086 302.735 907.117 303.085 907.073 303.43C907.03 303.775 906.913 304.107 906.732 304.403C906.403 304.728 905.97 304.927 905.51 304.965C903.102 305.342 900.772 304.114 898.59 303.027C891.922 299.709 884.806 297.38 877.467 296.115C880.335 291.97 882.548 287.409 884.028 282.59C884.868 279.531 885.53 276.426 886.01 273.29L888.331 259.867C889.275 254.961 889.94 250.006 890.322 245.024C890.497 243.155 890.388 241.27 889.999 239.433C889.464 237.685 888.754 235.995 887.879 234.39C884.054 226.434 882.26 217.355 883.765 208.657C884.424 204.85 885.703 201.039 885.165 197.213C884.652 193.534 885.185 190.675 884.241 187.035C880.372 172.085 883.943 181.676 886.461 184.265Z" fill="#716F97"/>
<path d="M815.111 218.129C813.367 221.747 810.452 224.829 809.46 228.722C809.073 230.541 808.908 232.4 808.967 234.258C808.794 237.059 809.071 239.87 809.788 242.583C810.342 244.299 811.243 245.883 811.888 247.565C812.792 249.916 813.195 252.43 813.071 254.946C812.896 258.431 811.712 261.815 811.619 265.303C811.473 270.789 814.011 275.946 816.487 280.844C817.11 279.301 818.063 277.912 819.278 276.776C820.494 275.639 821.944 274.782 823.525 274.264C825.107 273.746 826.783 273.58 828.435 273.778C830.088 273.975 831.677 274.531 833.093 275.407C833.66 274.71 833.928 273.818 833.841 272.924C834.023 266.559 834.2 260.195 834.371 253.83C834.639 243.986 834.894 234.011 832.63 224.43C831.608 220.103 830.017 215.793 827.1 212.436C825.564 210.669 820.351 206.014 817.83 207.994C816.696 208.884 816.961 211.308 816.782 212.535C816.511 214.476 815.945 216.365 815.105 218.135L815.111 218.129Z" fill="#716F97"/>
<path d="M923.115 207.701C923.816 210.31 924.117 213.011 924.006 215.71C924.039 221.212 923.966 226.712 923.787 232.21C923.814 235.032 923.454 237.843 922.715 240.566C922.152 242.337 921.283 243.997 920.701 245.766C918.958 251.055 919.91 256.791 920.06 262.358C920.165 264.16 920.011 265.968 919.603 267.725C918.683 271.176 916.212 273.964 914.486 277.091C912.848 280.061 911.859 283.391 909.902 286.16C907.945 288.929 904.558 291.126 901.274 290.275C898.786 289.631 897.019 287.429 895.796 285.168C893.128 280.199 892.215 274.474 893.206 268.92C894.434 262.164 898.406 256.17 899.833 249.454C901.798 240.231 898.811 230.714 898.9 221.285C898.859 219.808 899.06 218.333 899.494 216.919C900.245 214.765 901.857 213.045 903.347 211.319C905.208 209.159 906.938 206.888 908.525 204.519C909.591 202.929 911.04 198.838 912.93 198.498C917.148 197.742 922.068 204.44 923.115 207.701Z" fill="#716F97"/>
<path d="M793.21 299.63C790.876 299.043 788.471 298.788 786.066 298.871C783.539 299.01 781.07 299.686 778.825 300.854C776.579 302.021 774.608 303.654 773.042 305.642C771.476 307.63 770.351 309.929 769.742 312.386C769.133 314.843 769.055 317.401 769.511 319.891C770.094 322.587 771.047 325.191 772.342 327.627C774.237 331.472 776.509 335.308 780.017 337.772C782.131 339.127 784.406 340.21 786.79 340.996L805.264 347.955C807.982 348.979 810.7 350.003 813.444 350.955C827.233 355.721 841.608 358.578 856.171 359.449C860.603 359.864 865.071 359.638 869.437 358.777C870.493 358.639 871.46 358.116 872.154 357.309C872.506 356.697 872.713 356.013 872.761 355.309L873.898 347.351C874.152 346.242 874.117 345.087 873.798 343.996C873.129 342.713 872.047 341.693 870.727 341.102C858.582 334.126 844.401 330.278 834.178 320.702C831.771 318.448 829.757 314.876 826.833 313.345C823.517 311.609 819.612 310.618 816.185 309.018C808.697 305.515 801.33 301.496 793.21 299.63Z" fill="#090814"/>
<path opacity="0.1" d="M811.653 310.358C818.183 312.404 845.753 326.579 850.476 331.529C849.843 331.757 828.353 319.714 827.708 319.52C821.797 317.898 816.009 315.86 810.386 313.42C809.266 312.902 803.111 310.468 803.386 309.055C803.705 307.456 810.494 309.994 811.653 310.358Z" fill="black"/>
<path d="M893.11 363.574C893.48 363.602 893.848 363.495 894.145 363.274C894.276 363.106 894.371 362.915 894.427 362.711C894.482 362.506 894.497 362.293 894.469 362.083L894.439 351.241C891.321 349.756 887.834 349.279 884.411 348.822L868.44 346.687C868.807 346.736 865.94 353.566 866.382 354.478C867.156 356.085 873.071 357.509 874.741 358.268C880.547 360.901 886.578 363.801 893.11 363.574Z" fill="#ED9DA0"/>
<path d="M843.005 351.198C839.989 351.678 836.624 352.098 834.671 354.45C832.194 357.427 833.249 361.864 834.43 365.55C834.502 366.025 834.669 366.482 834.921 366.892C835.173 367.302 835.505 367.657 835.896 367.937C836.288 368.216 836.731 368.415 837.201 368.52C837.67 368.625 838.156 368.635 838.63 368.55C841.38 368.724 844.307 368.861 846.71 367.512C847.798 366.792 848.846 366.014 849.849 365.179C851.621 364 853.569 363.109 855.62 362.541C859.39 361.355 863.271 360.555 867.203 360.154C868.752 360.084 870.286 359.816 871.766 359.354C872.505 359.115 873.18 358.71 873.737 358.169C874.295 357.628 874.72 356.966 874.98 356.234C875.537 354.264 874.391 352.255 873.293 350.527C872.027 348.265 870.385 346.236 868.436 344.527C865.46 342.215 863.988 343.99 860.99 345.469C855.316 348.269 849.254 350.201 843.006 351.2L843.005 351.198Z" fill="#ED9DA0"/>
<path d="M835.125 353.91L815.978 348.252C813.681 347.452 811.281 346.986 808.852 346.87C807.636 346.821 806.423 347.031 805.294 347.487C804.166 347.943 803.148 348.635 802.308 349.517C800.823 351.26 800.398 353.641 800.028 355.901L799.236 360.733C798.708 363.17 798.559 365.673 798.793 368.155C798.92 369.395 799.328 370.591 799.987 371.65C800.645 372.71 801.537 373.605 802.593 374.269C805.243 375.715 808.493 375.009 811.447 374.404C817.42 373.183 823.496 372.531 829.592 372.457C831.884 372.43 834.292 372.458 836.313 371.386C837.489 370.689 838.478 369.716 839.192 368.551C839.907 367.385 840.326 366.063 840.413 364.698C840.789 360.573 839.413 355.181 835.125 353.91Z" fill="#2F2E41"/>
<path d="M900.642 348.983C903.124 348.548 905.315 347.137 907.693 346.305C911.041 345.133 914.669 345.133 918.216 345.146C919.52 345.027 920.831 345.29 921.989 345.902C923.551 346.942 923.952 349.024 924.218 350.882L925.818 362.093C926.247 364.185 926.291 366.337 925.949 368.444C925.764 369.496 925.3 370.479 924.605 371.291C923.911 372.103 923.012 372.714 922.001 373.06C919.501 373.711 917.043 372.111 914.679 371.06C908.77 368.434 901.902 369.105 895.741 367.142C895.152 367.024 894.595 366.782 894.107 366.433C893.618 366.083 893.209 365.634 892.907 365.115C892.697 364.493 892.622 363.832 892.687 363.178C892.792 359.578 892.032 354.654 893.117 351.21C894.094 348.113 897.871 348.983 900.642 348.983Z" fill="#2F2E41"/>
<path d="M941.162 295.115C944.988 294.155 948.954 293.884 952.875 294.315C956.006 294.66 959.233 295.531 961.519 297.699C964.302 300.337 965.196 304.417 965.27 308.25C965.392 315.885 962.86 323.327 958.105 329.303C956.943 330.814 955.561 332.143 954.005 333.246C952.328 334.295 950.541 335.156 948.675 335.814L907.304 352.132C896.42 356.425 885.498 360.732 874.145 363.56C873.835 363.709 873.497 363.796 873.153 363.813C872.809 363.831 872.465 363.779 872.141 363.662C871.817 363.544 871.52 363.363 871.267 363.129C871.014 362.895 870.81 362.612 870.668 362.299C867.043 357.121 864.002 351.558 861.6 345.712C861.486 345.573 861.408 345.408 861.371 345.233C861.335 345.057 861.341 344.875 861.389 344.702C861.438 344.529 861.527 344.371 861.65 344.24C861.772 344.109 861.925 344.009 862.094 343.95L891.356 327.137C893.502 326.019 895.502 324.642 897.312 323.037C898.577 321.811 899.612 320.369 900.37 318.78C900.977 317.513 901.033 314.523 901.808 313.587C902.567 312.67 905.162 312.597 906.36 312.236C908.05 311.718 909.706 311.092 911.316 310.363C917.862 307.435 923.691 303.18 929.966 299.751C933.485 297.738 937.246 296.182 941.158 295.118L941.162 295.115Z" fill="#090814"/>
<path opacity="0.1" d="M924.573 307.673C919.546 311.449 913.036 314.92 908.054 318.795C906.354 320.118 878.004 336.055 877.604 338.172C882.253 338.955 911.864 318.24 916.104 316.172C920.27 313.958 924.196 311.318 927.818 308.296C928.766 307.559 932.786 305.342 930.063 304.518C928.525 304.055 925.706 306.918 924.573 307.673Z" fill="black"/>
<path d="M889.98 184.63H845.85C844.057 184.63 842.338 185.342 841.07 186.61C839.803 187.878 839.09 189.597 839.09 191.39V193.866H838.611V199.402H839.09V203.277H838.611V206.599H839.09V247.449C839.09 249.242 839.803 250.961 841.07 252.229C842.338 253.497 844.057 254.209 845.85 254.209H889.981C891.774 254.209 893.494 253.497 894.761 252.229C896.029 250.961 896.741 249.242 896.741 247.449V191.39C896.741 190.502 896.566 189.623 896.227 188.803C895.887 187.982 895.389 187.237 894.761 186.609C894.133 185.982 893.388 185.484 892.568 185.144C891.747 184.805 890.868 184.63 889.98 184.63Z" fill="#D0CDE1"/>
<path d="M896.995 132.412L874.612 120.688L843.702 125.488L837.307 153.732L853.226 153.119L857.673 142.743V152.949L865.019 152.667L869.282 136.145L871.947 153.732L898.061 153.199L896.995 132.412Z" fill="#090814"/>
<path d="M820.967 291.459C821.979 293.18 823.418 294.611 825.145 295.615C826.277 296.132 827.513 296.384 828.758 296.351C830.002 296.318 831.223 296 832.327 295.423C834.531 294.241 836.334 292.431 837.51 290.223C839.943 285.923 840.446 280.787 840.143 275.86C839.84 270.933 838.787 266.081 838.322 261.167C837.983 257.594 837.956 254.001 837.929 250.412C837.845 249.658 838.003 248.896 838.381 248.237C839.031 247.59 839.872 247.169 840.781 247.037C845.69 245.578 848.949 240.977 851.281 236.419C852.841 233.376 854.198 230.049 853.897 226.642C853.596 223.235 851.147 219.804 847.744 219.456C844.944 219.17 842.35 220.951 840.327 222.915C835.223 227.9 831.943 234.455 831.014 241.528C830.57 244.992 830.697 248.55 829.755 251.912C827.743 259.092 821.45 263.494 818.313 269.954C814.86 277.078 816.768 285.16 820.967 291.459Z" fill="#ED9DA0"/>
<path d="M913.585 264.029C912.869 265.694 911.827 267.199 910.52 268.455C909.213 269.711 907.668 270.692 905.976 271.341C903.872 272.186 901.552 272.328 899.361 271.746C898.274 271.445 897.272 270.897 896.432 270.145C895.591 269.394 894.935 268.458 894.515 267.412C894.18 266.358 893.996 265.262 893.969 264.156C893.654 259.314 893.776 254.325 895.534 249.803C896.212 248.059 897.127 246.403 897.662 244.612C898.187 242.541 898.456 240.413 898.462 238.276L899.04 225.065C899.134 224.106 899.067 223.138 898.84 222.201C898.263 220.289 896.477 219.047 894.84 217.907C890.881 215.154 886.969 211.941 885.051 207.518C884.393 206.187 884.157 204.687 884.375 203.218C884.916 200.595 887.563 198.896 890.175 198.324C891.887 197.95 893.657 197.926 895.379 198.254C897.1 198.582 898.738 199.255 900.192 200.233C901.647 201.211 902.888 202.473 903.842 203.943C904.796 205.413 905.442 207.061 905.742 208.788C906.001 210.279 905.997 211.802 906.149 213.307C906.47 216.501 907.484 219.579 908.119 222.726C909.681 230.477 908.872 238.488 910.419 246.238C911.716 252.712 916.587 256.941 913.585 264.029Z" fill="#ED9DA0"/>
<path d="M868.506 214.349C871.563 214.349 874.042 211.871 874.042 208.813C874.042 205.756 871.563 203.277 868.506 203.277C865.448 203.277 862.97 205.756 862.97 208.813C862.97 211.871 865.448 214.349 868.506 214.349Z" fill="#716F97"/>
<path d="M16.331 354.797C25.3504 354.797 32.662 347.485 32.662 338.466C32.662 329.446 25.3504 322.135 16.331 322.135C7.31164 322.135 0 329.446 0 338.466C0 347.485 7.31164 354.797 16.331 354.797Z" fill="#582B01"/>
<path d="M75.5301 386.95L67.3041 378.95L50.7861 384.081L52.3721 403.207L86.3351 401.63L75.9001 387.456L75.5301 386.95Z" fill="#ED9DA0"/>
<path d="M57.5387 386.785C72.1207 386.785 83.9417 374.963 83.9417 360.382C83.9417 345.8 72.1207 333.979 57.5387 333.979C42.9568 333.979 31.1357 345.8 31.1357 360.382C31.1357 374.963 42.9568 386.785 57.5387 386.785Z" fill="#ED9DA0"/>
<path d="M221.451 420.838C221.451 420.838 253.888 476.581 261.607 484.95C265.278 489.068 269.189 492.967 273.32 496.624C273.32 496.624 269.69 508.662 263.91 508.232C260.617 508.031 257.387 507.233 254.38 505.877C254.38 505.877 251.8 499.19 247.3 496.257C242.8 493.324 206.037 457.157 206.9 445.597C207.763 434.037 221.451 420.838 221.451 420.838Z" fill="#090814"/>
<path d="M105.934 500.386C105.934 500.386 140.519 527.23 187.521 502.006L191.572 499.025C191.572 499.025 184.736 514.403 184.102 518.572C183.367 523.406 165.57 551.723 162.666 553.08C159.762 554.437 159.122 555.688 159.122 555.688L171.447 569.253L176.004 565.899C176.004 565.899 193.772 540.725 198.969 536.12C204.166 531.515 228.926 484.02 228.926 484.02C228.926 484.02 238.393 466.126 214.767 464.78C191.141 463.434 180.267 469.874 180.267 469.874L138.337 476.535L105.934 500.386Z" fill="#090814"/>
<path d="M273.721 493.987L291.214 506.087C291.214 506.087 313.531 513.079 299.784 517.732C286.037 522.385 249.81 524.068 248.984 517.648C248.158 511.228 250.413 501.123 252.22 501.676C254.027 502.229 266.576 505.489 273.721 493.987Z" fill="#2F2E41"/>
<path d="M177.551 561.742L180.789 579.522C180.789 579.522 189.995 597.129 178.942 591.666C167.889 586.203 145.114 565.451 148.477 561.101C151.84 556.751 159.262 552.032 160.016 553.45C160.77 554.868 166.348 564.359 177.551 561.742Z" fill="#2F2E41"/>
<path d="M144.195 482.376C144.195 482.376 120.685 509.824 106.412 503.157C92.139 496.49 33.744 419.257 40.412 404.988C47.08 390.719 49.312 393.753 49.312 393.753L79.463 396.541L70.788 382.632C72.0137 381.794 73.5114 381.452 74.9793 381.675C76.4471 381.897 77.7759 382.668 78.698 383.832C82.558 388.016 98.054 398.467 103.452 413.227C108.85 427.987 124.702 427.253 124.702 427.253L144.195 482.376Z" fill="#272459"/>
<path d="M239.134 425.774L198.381 469.034L161.874 404.578L196.58 362.646L239.134 425.774Z" fill="#3F3D56"/>
<path d="M236.058 425.309L199.25 463.324L165.896 404.744L196.485 366.233L236.058 425.309Z" fill="white"/>
<path d="M196.384 467.384L198.384 469.037L197.104 471.537L140.118 488.498L139.579 486.546L142.172 483.865L196.384 467.384Z" fill="#B3B3B3"/>
<path d="M198.888 468.664L139.877 487.114L103.905 419.142L161.874 404.58L198.888 468.664Z" fill="#D0CDE1"/>
<path d="M194.445 459.445L191.913 461.308L163.812 412.52L166.712 411.163L194.445 459.445Z" fill="#3F3D56"/>
<path d="M188.636 462.158L163.673 469.601L135.335 419.428L160.035 413.743L188.636 462.158Z" fill="#3F3D56"/>
<path d="M118.312 424.932L123.48 423.47C123.48 423.47 152.303 420.211 152.723 429.27C153.143 438.329 119.611 434.125 119.611 434.125L115.14 428.049L118.312 424.932Z" fill="#ED9DA0"/>
<path d="M143.592 465.647L150.786 462.695C150.786 462.695 172.501 452.959 166.271 446.616C160.041 440.273 140.83 451.292 140.83 451.292L137.152 454.779L143.592 465.647Z" fill="#ED9DA0"/>
<path d="M137.181 451.633C137.181 451.633 148.894 463.307 146.229 466.049C143.564 468.791 99.8577 504.857 89.0287 493.317C78.1997 481.777 25.4087 423.837 45.9487 418.869C66.4887 413.901 71.9156 425.517 71.9156 425.517L99.0307 471.907L137.181 451.633Z" fill="#272459"/>
<path d="M102.109 416.172L121.35 422.696L121.036 436.587L100.686 434.391L102.109 416.172Z" fill="#272459"/>
<path opacity="0.2" d="M119.45 458.828L98.7202 470.962L75.0352 434.535L97.8982 464.541L119.45 458.828Z" fill="black"/>
<path d="M45.9496 384.161C63.309 384.161 77.3816 370.088 77.3816 352.729C77.3816 335.369 63.309 321.297 45.9496 321.297C28.5902 321.297 14.5176 335.369 14.5176 352.729C14.5176 370.088 28.5902 384.161 45.9496 384.161Z" fill="#582B01"/>
<path d="M203.754 398.485C205.55 397.137 207.741 396.421 209.987 396.446C212.232 396.471 214.407 397.236 216.173 398.623C217.939 400.01 219.198 401.941 219.755 404.116C220.312 406.292 220.135 408.59 219.252 410.655C218.369 412.72 216.83 414.436 214.872 415.536C212.915 416.637 210.649 417.06 208.426 416.742C206.203 416.423 204.147 415.38 202.578 413.774C201.008 412.167 200.013 410.088 199.746 407.859L196.3 405.475C196.173 405.387 196.072 405.266 196.008 405.125C195.945 404.983 195.921 404.828 195.939 404.674C195.958 404.52 196.018 404.374 196.113 404.252C196.209 404.13 196.336 404.037 196.48 403.982L200.594 402.409C201.303 400.857 202.389 399.508 203.754 398.485ZM210.384 403.074C210.249 402.893 210.048 402.774 209.825 402.742C209.601 402.711 209.375 402.769 209.194 402.904C209.014 403.039 208.895 403.241 208.863 403.464C208.831 403.687 208.889 403.914 209.025 404.094L212.085 408.174C212.22 408.354 212.422 408.473 212.645 408.505C212.868 408.537 213.095 408.479 213.275 408.343C213.455 408.208 213.575 408.007 213.606 407.784C213.638 407.56 213.58 407.334 213.445 407.153L210.384 403.074ZM209.705 407.834L207.665 405.114C207.529 404.934 207.328 404.815 207.105 404.783C206.882 404.751 206.655 404.809 206.475 404.944C206.294 405.08 206.175 405.281 206.143 405.504C206.111 405.727 206.17 405.954 206.305 406.134L208.345 408.854C208.48 409.034 208.682 409.154 208.905 409.185C209.128 409.217 209.355 409.159 209.535 409.024C209.716 408.889 209.835 408.687 209.867 408.464C209.898 408.241 209.84 408.014 209.705 407.834Z" fill="black"/>
<path d="M204.668 419.326L203.696 414.866C204.33 415.319 204.994 415.703 205.689 416.019L206.238 418.551L214.015 422.111L214.93 421.374C215.281 421.091 215.506 420.681 215.554 420.232C215.603 419.784 215.471 419.335 215.188 418.984L213.404 416.767C213.992 416.628 214.57 416.442 215.137 416.21L216.513 417.918C217.078 418.62 217.341 419.518 217.245 420.415C217.148 421.312 216.699 422.133 215.996 422.698L209.375 428.029C208.673 428.594 207.775 428.857 206.878 428.761C205.982 428.664 205.16 428.215 204.595 427.512L197.132 418.243C196.567 417.541 196.304 416.642 196.4 415.746C196.497 414.849 196.946 414.028 197.649 413.462L200.39 411.256C200.676 411.738 201.001 412.204 201.363 412.655L198.715 414.787C198.363 415.069 198.139 415.48 198.091 415.928C198.042 416.377 198.174 416.826 198.457 417.177L205.919 426.446C206.202 426.798 206.612 427.022 207.061 427.07C207.509 427.119 207.958 426.987 208.309 426.704L212.535 423.303L205.145 419.92C205.025 419.865 204.919 419.782 204.836 419.679C204.753 419.576 204.696 419.456 204.668 419.326Z" fill="black"/>
<path d="M59.8691 331.743H69.5921C74.515 331.744 79.236 333.7 82.7166 337.182C86.1972 340.663 88.1524 345.384 88.1521 350.307H59.8691V331.743Z" fill="#582B01"/>
<path d="M272.993 315.754L270.489 315.623C270.392 316.54 270.322 317.462 270.24 318.381L259 318.116L270.791 333.669L284.033 318.706L272.752 318.44C272.831 317.542 272.898 316.647 272.993 315.754Z" fill="#3F3D56"/>
<path d="M338.923 188.979L340.919 190.052C343.913 187.291 347.042 184.535 350.215 181.859L348.288 180.726C345.09 183.421 341.939 186.198 338.923 188.979Z" fill="#3F3D56"/>
<path d="M358.16 172.773L360.014 173.965C363.345 171.396 366.806 168.846 370.295 166.382L368.517 165.134C365.002 167.615 361.517 170.185 358.16 172.773Z" fill="#3F3D56"/>
<path d="M379.341 157.823L381.046 159.122C384.689 156.767 388.453 154.441 392.227 152.208L390.612 150.854C386.802 153.107 383.012 155.451 379.341 157.823Z" fill="#3F3D56"/>
<path d="M321.78 206.323L323.903 207.267C326.542 204.327 329.314 201.387 332.142 198.526L330.081 197.516C327.231 200.398 324.44 203.363 321.78 206.323Z" fill="#3F3D56"/>
<path d="M402.294 144.248L403.823 145.648C407.746 143.527 411.778 141.448 415.821 139.454L414.382 138.005C410.313 140.012 406.246 142.111 402.294 144.248Z" fill="#3F3D56"/>
<path d="M306.877 224.673L309.11 225.481C311.373 222.381 313.766 219.281 316.22 216.258L314.04 215.38C311.566 218.426 309.156 221.552 306.877 224.673Z" fill="#3F3D56"/>
<path d="M282.652 274.436L280.22 273.995C278.978 277.387 277.831 280.846 276.811 284.277L279.268 284.641C280.281 281.237 281.42 277.803 282.652 274.436Z" fill="#3F3D56"/>
<path d="M426.847 132.153L428.195 133.645C432.357 131.78 436.638 129.956 440.917 128.222L439.664 126.69C435.352 128.434 431.04 130.272 426.847 132.153Z" fill="#3F3D56"/>
<path d="M276.521 294.942L274.042 294.655C273.235 298.106 272.528 301.623 271.937 305.108L274.431 305.317C275.018 301.859 275.721 298.368 276.521 294.942Z" fill="#3F3D56"/>
<path d="M294.341 243.891L296.668 244.557C298.53 241.331 300.522 238.088 302.589 234.921L300.307 234.183C298.223 237.374 296.216 240.638 294.341 243.891Z" fill="#3F3D56"/>
<path d="M284.281 263.831L286.684 264.347C288.133 261.011 289.705 257.655 291.362 254.371L288.995 253.78C287.327 257.088 285.74 260.469 284.281 263.831Z" fill="#3F3D56"/>
<path d="M596.739 96.9131C601.662 96.7931 606.676 96.7451 611.635 96.7781L611.658 95.0102C606.664 94.9772 601.611 95.0251 596.653 95.1461L596.739 96.9131Z" fill="#3F3D56"/>
<path d="M452.807 121.63L453.962 123.199C458.347 121.599 462.838 120.049 467.307 118.592L466.251 116.992C461.748 118.457 457.225 120.019 452.807 121.63Z" fill="#3F3D56"/>
<path d="M656.169 99.1172C661.069 99.6052 666.012 100.177 670.865 100.817L671.327 99.0792C666.439 98.4352 661.458 97.8592 656.52 97.3672L656.169 99.1172Z" fill="#3F3D56"/>
<path d="M685.44 102.973C690.251 103.764 695.101 104.643 699.864 105.585L700.543 103.885C695.747 102.936 690.857 102.051 686.011 101.254L685.44 102.973Z" fill="#3F3D56"/>
<path d="M714.108 108.645C718.796 109.734 723.52 110.913 728.144 112.15L729.036 110.498C724.377 109.251 719.62 108.063 714.895 106.966L714.108 108.645Z" fill="#3F3D56"/>
<path d="M626.524 97.099C631.47 97.282 636.469 97.544 641.378 97.878L641.621 96.119C636.673 95.782 631.637 95.519 626.657 95.334L626.524 97.099Z" fill="#3F3D56"/>
<path d="M566.753 96.8011L567.06 98.5562C571.954 98.1322 576.937 97.7792 581.871 97.5062L581.675 95.7432C576.704 96.0182 571.684 96.3741 566.753 96.8011Z" fill="#3F3D56"/>
<path d="M508.164 105.645L508.907 107.333C513.626 106.304 518.444 105.333 523.223 104.457L522.588 102.747C517.772 103.633 512.919 104.608 508.164 105.645Z" fill="#3F3D56"/>
<path d="M479.971 112.773L480.924 114.409C485.49 113.09 490.158 111.828 494.788 110.656L493.935 108.993C489.27 110.172 484.572 111.444 479.971 112.773Z" fill="#3F3D56"/>
<path d="M537.181 100.303L537.706 102.032C542.536 101.304 547.45 100.641 552.329 100.063L551.911 98.3193C546.999 98.9033 542.041 99.5703 537.181 100.303Z" fill="#3F3D56"/>
<path d="M765.616 123.081L751.58 108.481L746.645 115.632C745.45 115.257 744.262 114.873 743.069 114.509L742.074 116.132C743.239 116.487 744.392 116.859 745.551 117.223L740.64 124.34L765.616 123.081Z" fill="#3F3D56"/>
</svg>
