<svg width="314" height="413" viewBox="0 0 314 413" fill="none" xmlns="http://www.w3.org/2000/svg">
<g filter="url(#filter0_d_24_3448)">
<path d="M4 364.731C4 349.646 4 342.104 8.68629 337.418C13.3726 332.731 20.9151 332.731 36 332.731H269C284.085 332.731 291.627 332.731 296.314 337.418C301 342.104 301 349.647 301 364.731V372.731C301 387.816 301 395.359 296.314 400.045C291.627 404.731 284.085 404.731 269 404.731H36C20.9151 404.731 13.3726 404.731 8.68629 400.045C4 395.359 4 387.816 4 372.731L4 364.731Z" fill="white"/>
<path d="M36 334.231H269C276.585 334.231 282.123 334.234 286.356 334.804C290.547 335.367 293.235 336.461 295.253 338.479C297.271 340.497 298.364 343.184 298.928 347.375C299.497 351.609 299.5 357.147 299.5 364.731V372.731C299.5 380.316 299.497 385.854 298.928 390.088C298.364 394.279 297.271 396.966 295.253 398.984C293.235 401.002 290.547 402.096 286.356 402.659C282.123 403.228 276.585 403.231 269 403.231H36C28.4152 403.231 22.8774 403.228 18.6436 402.659C14.4529 402.096 11.7651 401.002 9.74707 398.984C7.72908 396.966 6.63569 394.279 6.07227 390.088C5.50305 385.854 5.5 380.316 5.5 372.731V364.731C5.5 357.147 5.50305 351.609 6.07227 347.375C6.63569 343.184 7.72908 340.497 9.74707 338.479C11.7651 336.461 14.4529 335.367 18.6436 334.804C22.8774 334.234 28.4152 334.231 36 334.231Z" stroke="#4682CD" stroke-width="3"/>
<path d="M39 351.731H40C49.3888 351.731 57 359.343 57 368.731C57 378.12 49.3888 385.731 40 385.731H39C29.6112 385.731 22 378.12 22 368.731C22 359.343 29.6112 351.731 39 351.731Z" fill="black"/>
<path d="M39 351.731H40C49.3888 351.731 57 359.343 57 368.731C57 378.12 49.3888 385.731 40 385.731H39C29.6112 385.731 22 378.12 22 368.731C22 359.343 29.6112 351.731 39 351.731Z" stroke="#4682CD" stroke-width="4"/>
<path d="M121.216 378.731V358.368H128.852C130.416 358.368 131.729 358.659 132.79 359.243C133.857 359.826 134.662 360.628 135.206 361.649C135.756 362.663 136.031 363.817 136.031 365.109C136.031 366.415 135.756 367.575 135.206 368.589C134.656 369.604 133.844 370.402 132.77 370.986C131.696 371.562 130.373 371.851 128.802 371.851H123.741V368.818H128.305C129.22 368.818 129.969 368.659 130.552 368.341C131.136 368.023 131.567 367.585 131.845 367.028C132.13 366.472 132.273 365.832 132.273 365.109C132.273 364.387 132.13 363.75 131.845 363.2C131.567 362.65 131.132 362.222 130.542 361.918C129.959 361.606 129.207 361.45 128.285 361.45H124.905V378.731H121.216ZM144.959 379.03C143.468 379.03 142.175 378.702 141.081 378.045C139.988 377.389 139.139 376.471 138.536 375.291C137.939 374.111 137.641 372.732 137.641 371.155C137.641 369.577 137.939 368.195 138.536 367.008C139.139 365.822 139.988 364.9 141.081 364.244C142.175 363.588 143.468 363.26 144.959 363.26C146.451 363.26 147.743 363.588 148.837 364.244C149.931 364.9 150.776 365.822 151.373 367.008C151.976 368.195 152.278 369.577 152.278 371.155C152.278 372.732 151.976 374.111 151.373 375.291C150.776 376.471 149.931 377.389 148.837 378.045C147.743 378.702 146.451 379.03 144.959 379.03ZM144.979 376.146C145.788 376.146 146.464 375.924 147.008 375.48C147.551 375.029 147.956 374.426 148.221 373.67C148.492 372.915 148.628 372.073 148.628 371.145C148.628 370.21 148.492 369.365 148.221 368.609C147.956 367.847 147.551 367.24 147.008 366.79C146.464 366.339 145.788 366.114 144.979 366.114C144.151 366.114 143.461 366.339 142.911 366.79C142.367 367.24 141.96 367.847 141.688 368.609C141.423 369.365 141.29 370.21 141.29 371.145C141.29 372.073 141.423 372.915 141.688 373.67C141.96 374.426 142.367 375.029 142.911 375.48C143.461 375.924 144.151 376.146 144.979 376.146ZM158.372 369.783V378.731H154.773V363.459H158.213V366.054H158.392C158.743 365.199 159.303 364.519 160.072 364.016C160.848 363.512 161.806 363.26 162.946 363.26C164 363.26 164.918 363.485 165.7 363.936C166.489 364.387 167.099 365.04 167.53 365.895C167.967 366.75 168.183 367.787 168.176 369.007V378.731H164.577V369.564C164.577 368.543 164.311 367.744 163.781 367.168C163.257 366.591 162.532 366.302 161.604 366.302C160.974 366.302 160.414 366.442 159.923 366.72C159.439 366.992 159.058 367.386 158.78 367.903C158.508 368.42 158.372 369.047 158.372 369.783ZM183.346 367.496L180.065 367.854C179.972 367.522 179.81 367.211 179.578 366.919C179.352 366.627 179.047 366.392 178.663 366.213C178.278 366.034 177.808 365.945 177.251 365.945C176.502 365.945 175.872 366.107 175.362 366.432C174.858 366.757 174.609 367.177 174.616 367.695C174.609 368.139 174.772 368.5 175.103 368.778C175.441 369.057 175.998 369.285 176.774 369.464L179.379 370.021C180.824 370.333 181.898 370.827 182.6 371.503C183.31 372.179 183.668 373.064 183.674 374.158C183.668 375.119 183.386 375.967 182.829 376.703C182.279 377.432 181.513 378.002 180.532 378.413C179.551 378.824 178.424 379.03 177.151 379.03C175.282 379.03 173.777 378.639 172.637 377.856C171.497 377.068 170.818 375.971 170.599 374.565L174.109 374.227C174.268 374.917 174.606 375.437 175.123 375.788C175.64 376.14 176.313 376.315 177.142 376.315C177.997 376.315 178.683 376.14 179.2 375.788C179.723 375.437 179.985 375.003 179.985 374.486C179.985 374.048 179.816 373.687 179.478 373.402C179.147 373.117 178.63 372.898 177.927 372.746L175.322 372.199C173.857 371.894 172.773 371.38 172.071 370.658C171.368 369.928 171.02 369.007 171.026 367.893C171.02 366.952 171.275 366.137 171.792 365.447C172.316 364.751 173.042 364.214 173.97 363.837C174.904 363.452 175.981 363.26 177.201 363.26C178.991 363.26 180.4 363.641 181.427 364.403C182.461 365.166 183.101 366.196 183.346 367.496Z" fill="#1E3A8A"/>
<path d="M245 356.731C245 352.313 248.582 348.731 253 348.731H277C281.418 348.731 285 352.313 285 356.731V380.731C285 385.15 281.418 388.731 277 388.731H253C248.582 388.731 245 385.15 245 380.731V356.731Z" fill="#1E3A8A"/>
<g clip-path="url(#clip0_24_3448)">
<path d="M263.281 371.648C263.206 371.36 263.056 371.097 262.846 370.886C262.635 370.675 262.372 370.525 262.083 370.451L256.971 369.132C256.884 369.108 256.807 369.055 256.752 368.983C256.698 368.91 256.668 368.822 256.668 368.731C256.668 368.641 256.698 368.553 256.752 368.48C256.807 368.408 256.884 368.355 256.971 368.331L262.083 367.011C262.372 366.937 262.635 366.787 262.845 366.577C263.056 366.366 263.206 366.103 263.281 365.815L264.599 360.702C264.624 360.615 264.676 360.538 264.749 360.483C264.821 360.428 264.91 360.398 265 360.398C265.091 360.398 265.18 360.428 265.252 360.483C265.325 360.538 265.377 360.615 265.402 360.702L266.719 365.815C266.794 366.103 266.944 366.366 267.155 366.577C267.365 366.788 267.628 366.938 267.917 367.012L273.029 368.33C273.117 368.354 273.195 368.406 273.25 368.479C273.305 368.552 273.335 368.64 273.335 368.731C273.335 368.823 273.305 368.911 273.25 368.984C273.195 369.056 273.117 369.109 273.029 369.133L267.917 370.451C267.628 370.525 267.365 370.675 267.155 370.886C266.944 371.097 266.794 371.36 266.719 371.648L265.401 376.761C265.376 376.848 265.324 376.925 265.251 376.98C265.179 377.035 265.091 377.065 265 377.065C264.909 377.065 264.82 377.035 264.748 376.98C264.675 376.925 264.623 376.848 264.598 376.761L263.281 371.648Z" stroke="white" stroke-width="2" stroke-linecap="round" stroke-linejoin="round"/>
<path d="M271.667 361.231V364.565" stroke="white" stroke-width="2" stroke-linecap="round" stroke-linejoin="round"/>
<path d="M273.333 362.898H270" stroke="white" stroke-width="2" stroke-linecap="round" stroke-linejoin="round"/>
<path d="M258.333 372.898V374.565" stroke="white" stroke-linecap="round" stroke-linejoin="round"/>
<path d="M259.167 373.731H257.5" stroke="white" stroke-linecap="round" stroke-linejoin="round"/>
</g>
</g>
<g clip-path="url(#clip1_24_3448)">
<path d="M9.73004 269.749C11.0505 254.722 11.7108 247.209 16.7893 242.951C21.8679 238.693 29.3814 239.353 44.4084 240.673L276.52 261.07C291.547 262.391 299.06 263.051 303.318 268.129C307.576 273.208 306.916 280.721 305.596 295.748L304.895 303.721C303.575 318.748 302.914 326.261 297.836 330.519C292.757 334.777 285.244 334.117 270.217 332.797L38.1054 312.4C23.0784 311.079 15.5649 310.419 11.3068 305.341C7.04873 300.262 7.70898 292.749 9.02948 277.721L9.73004 269.749Z" fill="white"/>
<path d="M44.74 259.777L45.7362 259.865C55.0889 260.687 62.004 268.936 61.1814 278.289C60.3588 287.641 52.1101 294.556 42.7574 293.734L41.7612 293.646C32.4085 292.824 25.4934 284.575 26.316 275.222C27.1385 265.87 35.3873 258.954 44.74 259.777Z" fill="black"/>
<path d="M44.74 259.777L45.7362 259.865C55.0889 260.687 62.004 268.936 61.1814 278.289C60.3588 287.641 52.1101 294.556 42.7574 293.734L41.7612 293.646C32.4085 292.824 25.4934 284.575 26.316 275.222C27.1385 265.87 35.3873 258.954 44.74 259.777Z" stroke="#4682CD" stroke-width="4"/>
<path d="M134.191 294.742L135.974 274.456L149.167 275.616L148.897 278.696L139.378 277.86L138.894 283.367L147.729 284.143L147.459 287.224L138.623 286.447L138.137 291.984L147.735 292.828L147.464 295.908L134.191 294.742ZM156.598 296.98C155.402 296.875 154.36 296.474 153.469 295.777C152.579 295.08 151.911 294.123 151.466 292.906C151.021 291.689 150.871 290.245 151.018 288.575C151.167 286.884 151.569 285.482 152.226 284.369C152.89 283.249 153.724 282.434 154.727 281.923C155.73 281.406 156.817 281.199 157.985 281.301C158.877 281.38 159.597 281.596 160.144 281.95C160.693 282.298 161.117 282.698 161.416 283.15C161.717 283.596 161.943 284.011 162.095 284.398L162.244 284.411L162.911 276.823L166.506 277.139L164.723 297.425L161.197 297.115L161.408 294.718L161.19 294.699C160.973 295.052 160.671 295.422 160.284 295.807C159.898 296.186 159.405 296.495 158.805 296.735C158.205 296.975 157.469 297.057 156.598 296.98ZM157.857 294.126C158.616 294.193 159.281 294.045 159.852 293.683C160.423 293.314 160.88 292.772 161.223 292.057C161.565 291.341 161.779 290.492 161.866 289.508C161.952 288.524 161.889 287.657 161.675 286.906C161.468 286.156 161.115 285.556 160.616 285.106C160.123 284.657 159.49 284.398 158.717 284.33C157.918 284.26 157.233 284.409 156.662 284.778C156.09 285.147 155.637 285.687 155.302 286.396C154.967 287.105 154.758 287.932 154.675 288.876C154.591 289.827 154.652 290.687 154.857 291.457C155.069 292.221 155.424 292.841 155.921 293.317C156.426 293.788 157.071 294.057 157.857 294.126ZM178.804 292.214L179.578 283.399L183.164 283.714L181.827 298.928L178.35 298.622L178.588 295.918L178.429 295.904C178.011 296.726 177.385 297.373 176.552 297.845C175.725 298.318 174.741 298.505 173.598 298.404C172.601 298.317 171.739 298.018 171.012 297.508C170.292 296.992 169.755 296.29 169.401 295.4C169.047 294.504 168.923 293.449 169.03 292.234L169.881 282.546L173.467 282.862L172.664 291.994C172.58 292.958 172.776 293.747 173.255 294.362C173.733 294.976 174.402 295.321 175.26 295.396C175.788 295.443 176.311 295.359 176.829 295.145C177.347 294.931 177.787 294.583 178.149 294.103C178.517 293.616 178.736 292.987 178.804 292.214Z" fill="#161616"/>
<path d="M251.506 282.965C251.893 278.563 255.775 275.309 260.176 275.696L284.084 277.799C288.485 278.186 291.739 282.068 291.352 286.469L289.25 310.377C288.863 314.778 284.981 318.032 280.58 317.645L256.672 315.542C252.271 315.155 249.016 311.274 249.403 306.872L251.506 282.965Z" fill="#4DA625"/>
<g clip-path="url(#clip2_24_3448)">
<path d="M268.409 299.425C268.361 299.132 268.234 298.856 268.043 298.628C267.851 298.4 267.602 298.227 267.321 298.128L262.344 296.366C262.259 296.334 262.188 296.275 262.139 296.198C262.091 296.121 262.07 296.031 262.078 295.941C262.085 295.85 262.123 295.765 262.183 295.698C262.244 295.631 262.325 295.585 262.414 295.568L267.623 294.702C267.916 294.653 268.192 294.526 268.42 294.335C268.648 294.144 268.821 293.895 268.921 293.615L270.682 288.637C270.714 288.552 270.773 288.48 270.85 288.431C270.927 288.383 271.017 288.361 271.108 288.369C271.199 288.377 271.284 288.415 271.351 288.476C271.419 288.537 271.464 288.618 271.481 288.708L272.346 293.916C272.394 294.21 272.521 294.485 272.712 294.713C272.904 294.941 273.153 295.114 273.434 295.214L278.411 296.974C278.496 297.006 278.569 297.065 278.618 297.142C278.666 297.219 278.689 297.31 278.681 297.401C278.673 297.492 278.635 297.577 278.574 297.645C278.512 297.712 278.43 297.758 278.341 297.774L273.132 298.639C272.839 298.688 272.563 298.814 272.335 299.006C272.107 299.197 271.934 299.446 271.835 299.727L270.073 304.704C270.041 304.789 269.982 304.861 269.905 304.91C269.828 304.958 269.738 304.98 269.647 304.972C269.556 304.964 269.471 304.927 269.404 304.866C269.336 304.805 269.291 304.723 269.274 304.634L268.409 299.425Z" stroke="white" stroke-width="2" stroke-linecap="round" stroke-linejoin="round"/>
<path d="M277.676 289.784L277.384 293.104" stroke="white" stroke-width="2" stroke-linecap="round" stroke-linejoin="round"/>
<path d="M279.19 291.59L275.869 291.298" stroke="white" stroke-width="2" stroke-linecap="round" stroke-linejoin="round"/>
<path d="M263.371 300.237L263.225 301.898" stroke="white" stroke-linecap="round" stroke-linejoin="round"/>
<path d="M264.128 301.14L262.468 300.994" stroke="white" stroke-linecap="round" stroke-linejoin="round"/>
</g>
</g>
<path d="M44.2771 242.168L276.389 262.564C283.944 263.228 289.46 263.716 293.628 264.654C297.754 265.582 300.335 266.906 302.169 269.093C304.002 271.28 304.856 274.053 305.051 278.277C305.247 282.545 304.765 288.061 304.102 295.617L303.401 303.589C302.737 311.145 302.249 316.661 301.312 320.829C300.383 324.954 299.059 327.536 296.872 329.37C294.685 331.203 291.912 332.057 287.688 332.252C283.421 332.448 277.904 331.966 270.348 331.302L38.2367 310.906C30.681 310.242 25.1648 309.754 20.997 308.816C16.8717 307.888 14.29 306.564 12.4564 304.377C10.6228 302.19 9.76887 299.417 9.57445 295.193C9.37804 290.925 9.85977 285.408 10.5237 277.853L11.2243 269.881C11.8882 262.325 12.376 256.809 13.3137 252.641C14.2418 248.516 15.5663 245.934 17.7532 244.1C19.9401 242.267 22.7133 241.413 26.9372 241.218C31.2046 241.022 36.7214 241.504 44.2771 242.168Z" stroke="#4682CD" stroke-width="3"/>
<g clip-path="url(#clip3_24_3448)">
<path d="M22.7566 215.174C14.0633 202.846 9.71671 196.681 10.8459 190.151C11.9752 183.62 18.1392 179.274 30.4674 170.581L246.221 18.4413C258.549 9.74804 264.713 5.40142 271.244 6.53063C277.774 7.65986 282.121 13.8239 290.814 26.1521L295.424 32.6901C304.118 45.0182 308.464 51.1823 307.335 57.7128C306.206 64.2433 300.042 68.5899 287.714 77.2832L71.9599 229.422C59.6318 238.116 53.4677 242.462 46.9372 241.333C40.4067 240.204 36.0601 234.04 27.3668 221.712L22.7566 215.174Z" fill="white"/>
<path d="M43.0514 184.956L43.8686 184.38C51.5416 178.969 62.1481 180.803 67.5587 188.476C72.9694 196.149 71.1354 206.755 63.4623 212.166L62.6451 212.742C54.9721 218.153 44.3657 216.319 38.955 208.646C33.5444 200.973 35.3784 190.366 43.0514 184.956Z" fill="black"/>
<path d="M43.0514 184.956L43.8686 184.38C51.5416 178.969 62.1481 180.803 67.5587 188.476C72.9694 196.149 71.1354 206.755 63.4623 212.166L62.6451 212.742C54.9721 218.153 44.3657 216.319 38.955 208.646C33.5444 200.973 35.3784 190.366 43.0514 184.956Z" stroke="#4682CD" stroke-width="4"/>
<path d="M111.72 153.062L108.68 155.205C108.242 154.767 107.771 154.439 107.267 154.218C106.759 153.992 106.236 153.866 105.698 153.84C105.161 153.814 104.622 153.889 104.082 154.067C103.544 154.236 103.02 154.499 102.511 154.859C101.606 155.496 100.965 156.289 100.587 157.237C100.205 158.18 100.124 159.226 100.344 160.377C100.56 161.523 101.109 162.722 101.991 163.973C102.889 165.246 103.843 166.179 104.853 166.773C105.866 167.357 106.875 167.626 107.882 167.582C108.89 167.528 109.844 167.184 110.743 166.55C111.241 166.198 111.661 165.805 112.003 165.369C112.346 164.924 112.6 164.449 112.763 163.945C112.932 163.437 113.002 162.909 112.973 162.361C112.949 161.81 112.811 161.258 112.56 160.706L115.61 158.579C116.054 159.45 116.331 160.366 116.441 161.327C116.556 162.284 116.497 163.242 116.265 164.201C116.029 165.154 115.609 166.066 115.007 166.937C114.401 167.803 113.602 168.585 112.61 169.284C111.148 170.316 109.603 170.898 107.977 171.03C106.351 171.163 104.757 170.823 103.195 170.011C101.632 169.198 100.221 167.898 98.9601 166.11C97.6957 164.317 96.9478 162.549 96.7164 160.806C96.4812 159.058 96.6991 157.44 97.37 155.953C98.041 154.466 99.1024 153.211 100.554 152.187C101.481 151.534 102.434 151.056 103.413 150.755C104.393 150.453 105.372 150.335 106.35 150.399C107.325 150.458 108.268 150.71 109.181 151.153C110.096 151.587 110.942 152.223 111.72 153.062ZM127.742 158.638C126.524 159.498 125.278 159.974 124.006 160.068C122.734 160.162 121.511 159.901 120.338 159.284C119.171 158.664 118.133 157.709 117.223 156.42C116.314 155.13 115.762 153.829 115.565 152.515C115.374 151.198 115.537 149.956 116.053 148.789C116.568 147.623 117.436 146.61 118.654 145.75C119.873 144.891 121.119 144.414 122.391 144.32C123.663 144.226 124.885 144.492 126.056 145.118C127.233 145.74 128.276 146.696 129.185 147.985C130.094 149.274 130.642 150.575 130.829 151.887C131.022 153.195 130.86 154.432 130.344 155.599C129.829 156.766 128.961 157.779 127.742 158.638ZM126.097 156.27C126.758 155.804 127.182 155.233 127.371 154.557C127.555 153.875 127.538 153.149 127.319 152.379C127.106 151.604 126.732 150.838 126.197 150.08C125.658 149.316 125.06 148.703 124.403 148.243C123.747 147.772 123.067 147.51 122.363 147.455C121.659 147.399 120.976 147.605 120.315 148.071C119.638 148.548 119.205 149.13 119.015 149.815C118.83 150.497 118.847 151.228 119.064 152.007C119.283 152.778 119.661 153.545 120.2 154.309C120.735 155.067 121.328 155.679 121.98 156.143C122.638 156.604 123.319 156.862 124.023 156.918C124.728 156.963 125.42 156.748 126.097 156.27ZM136.048 152.416L127.247 139.935L130.058 137.952L131.554 140.073L131.7 139.97C131.456 139.071 131.493 138.21 131.812 137.385C132.126 136.555 132.701 135.845 133.535 135.257C134.38 134.661 135.238 134.365 136.108 134.367C136.98 134.361 137.783 134.626 138.518 135.162L138.648 135.071C138.435 134.182 138.511 133.301 138.877 132.427C139.243 131.544 139.879 130.784 140.784 130.146C141.932 129.336 143.125 129.038 144.363 129.252C145.601 129.466 146.711 130.269 147.693 131.661L153.6 140.039L150.651 142.119L145.064 134.196C144.517 133.422 143.912 133.001 143.249 132.934C142.581 132.861 141.949 133.035 141.353 133.455C140.643 133.955 140.245 134.569 140.157 135.296C140.071 136.014 140.276 136.725 140.773 137.429L146.262 145.214L143.378 147.248L137.705 139.203C137.25 138.558 136.692 138.181 136.031 138.072C135.375 137.958 134.736 138.121 134.113 138.561C133.69 138.858 133.382 139.238 133.188 139.699C132.99 140.155 132.926 140.65 132.995 141.186C133.061 141.715 133.275 142.238 133.638 142.752L138.99 150.342L136.048 152.416ZM159.885 142.616L147.783 125.453L150.676 123.413L152.131 125.477L152.302 125.357C152.24 124.947 152.227 124.474 152.262 123.937C152.294 123.396 152.46 122.837 152.759 122.261C153.055 121.679 153.568 121.131 154.299 120.615C155.264 119.935 156.307 119.568 157.429 119.515C158.553 119.453 159.681 119.74 160.812 120.378C161.945 121.007 163 122.015 163.978 123.402C164.945 124.772 165.541 126.096 165.768 127.372C165.994 128.647 165.898 129.811 165.478 130.861C165.059 131.911 164.359 132.781 163.378 133.473C162.663 133.977 161.986 134.276 161.347 134.37C160.707 134.464 160.125 134.444 159.602 134.311C159.079 134.168 158.632 134.001 158.261 133.808L158.14 133.894L162.827 140.541L159.885 142.616ZM155.069 129.66C155.638 130.467 156.25 131.094 156.905 131.54C157.566 131.983 158.234 132.222 158.908 132.257C159.583 132.284 160.233 132.077 160.856 131.638C161.506 131.18 161.928 130.622 162.122 129.966C162.313 129.305 162.305 128.592 162.099 127.829C161.895 127.056 161.518 126.28 160.968 125.5C160.422 124.725 159.826 124.116 159.18 123.671C158.533 123.226 157.871 122.988 157.191 122.956C156.512 122.924 155.844 123.139 155.189 123.602C154.56 124.045 154.143 124.586 153.937 125.226C153.732 125.866 153.725 126.564 153.918 127.32C154.116 128.073 154.499 128.853 155.069 129.66ZM174.656 125.569C173.865 126.127 173.053 126.488 172.221 126.654C171.39 126.81 170.593 126.739 169.832 126.44C169.075 126.138 168.409 125.578 167.832 124.76C167.335 124.056 167.054 123.382 166.99 122.738C166.925 122.094 167.02 121.476 167.275 120.882C167.53 120.289 167.889 119.723 168.353 119.185C168.819 118.638 169.332 118.118 169.893 117.625C170.571 117.033 171.117 116.547 171.53 116.167C171.939 115.781 172.2 115.45 172.315 115.175C172.43 114.891 172.389 114.608 172.19 114.326L172.156 114.277C171.724 113.665 171.209 113.319 170.609 113.239C170.009 113.159 169.368 113.36 168.685 113.841C167.965 114.349 167.504 114.909 167.303 115.521C167.107 116.13 167.087 116.7 167.243 117.231L164.221 118.777C163.903 117.866 163.814 116.98 163.953 116.119C164.088 115.253 164.427 114.439 164.968 113.676C165.505 112.908 166.209 112.217 167.082 111.602C167.683 111.178 168.331 110.826 169.027 110.547C169.722 110.267 170.43 110.116 171.153 110.094C171.871 110.066 172.574 110.223 173.262 110.565C173.955 110.904 174.593 111.488 175.178 112.317L181.068 120.67L178.241 122.664L177.031 120.95L176.934 121.018C177 121.491 176.977 121.994 176.866 122.526C176.756 123.05 176.523 123.575 176.165 124.103C175.809 124.622 175.306 125.111 174.656 125.569ZM173.895 122.869C174.486 122.453 174.916 121.975 175.185 121.437C175.45 120.893 175.562 120.343 175.52 119.789C175.483 119.231 175.302 118.722 174.978 118.261L173.94 116.79C173.902 116.931 173.794 117.112 173.618 117.334C173.447 117.552 173.244 117.781 173.007 118.02C172.771 118.26 172.533 118.493 172.294 118.718C172.056 118.943 171.848 119.138 171.672 119.302C171.276 119.671 170.952 120.046 170.7 120.426C170.449 120.806 170.309 121.188 170.281 121.573C170.248 121.953 170.366 122.332 170.633 122.712C171.015 123.253 171.501 123.523 172.092 123.52C172.682 123.518 173.283 123.301 173.895 122.869ZM181.811 109.197L186.968 116.51L184.026 118.584L175.225 106.103L178.036 104.12L179.532 106.241L179.678 106.138C179.473 105.237 179.539 104.359 179.877 103.504C180.22 102.645 180.858 101.887 181.79 101.23C182.651 100.623 183.531 100.278 184.43 100.195C185.335 100.109 186.21 100.291 187.054 100.742C187.905 101.189 188.679 101.912 189.376 102.913L194.98 110.86L192.039 112.934L186.755 105.442C186.167 104.608 185.49 104.108 184.724 103.942C183.964 103.773 183.205 103.955 182.446 104.49C181.932 104.853 181.554 105.29 181.314 105.8C181.075 106.301 180.991 106.843 181.061 107.426C181.137 108.005 181.387 108.595 181.811 109.197ZM197.971 108.752L189.169 96.2699L192.111 94.1956L200.912 106.677L197.971 108.752ZM189.399 93.4555C188.933 93.7841 188.423 93.9124 187.87 93.8404C187.312 93.763 186.879 93.505 186.569 93.0662C186.256 92.6219 186.159 92.127 186.277 91.5814C186.391 91.0303 186.681 90.5905 187.147 90.262C187.618 89.9297 188.13 89.8041 188.682 89.8853C189.236 89.9572 189.669 90.2153 189.982 90.6595C190.292 91.0983 190.389 91.5932 190.275 92.1443C190.162 92.6861 189.87 93.1232 189.399 93.4555ZM209.635 100.891C208.383 101.774 207.119 102.276 205.842 102.398C204.567 102.51 203.348 102.259 202.184 101.644C201.016 101.023 199.972 100.06 199.052 98.7547C198.146 97.4708 197.596 96.1721 197.399 94.8585C197.205 93.5358 197.358 92.2922 197.859 91.1278C198.356 89.958 199.201 88.9529 200.392 88.1124C201.162 87.57 201.975 87.1827 202.834 86.9506C203.694 86.7092 204.568 86.6606 205.456 86.8047C206.35 86.945 207.229 87.3063 208.094 87.8887C208.955 88.4658 209.772 89.3014 210.543 90.3957L211.179 91.2977L200.949 98.5119L199.551 96.5292L206.962 91.3033C206.559 90.7437 206.084 90.3286 205.536 90.0578C204.984 89.7817 204.405 89.6672 203.797 89.7144C203.195 89.7577 202.612 89.9781 202.049 90.3753C201.448 90.7994 201.023 91.3181 200.774 91.9315C200.521 92.5395 200.434 93.169 200.511 93.8198C200.591 94.4614 200.824 95.0631 201.213 95.6249L202.433 97.3558C202.945 98.0817 203.517 98.6111 204.149 98.944C204.778 99.2715 205.427 99.4053 206.099 99.3454C206.767 99.2801 207.42 99.0221 208.059 98.5713C208.487 98.2695 208.833 97.9368 209.095 97.5731C209.354 97.204 209.527 96.8105 209.614 96.3926C209.7 95.9747 209.684 95.5439 209.566 95.1L212.53 93.4721C212.869 94.3202 212.985 95.1871 212.88 96.0726C212.776 96.9489 212.452 97.8016 211.909 98.6305C211.363 99.454 210.604 100.208 209.635 100.891ZM220.892 78.8404L218.416 81.0239C218.149 80.8065 217.837 80.6455 217.479 80.5408C217.127 80.4323 216.742 80.4157 216.325 80.491C215.908 80.5663 215.471 80.7644 215.016 81.0853C214.404 81.517 213.983 82.0126 213.753 82.5722C213.529 83.128 213.568 83.6152 213.871 84.034C214.122 84.4007 214.463 84.6024 214.894 84.6389C215.331 84.6716 215.918 84.5376 216.655 84.237L219.105 83.1907C220.465 82.6126 221.627 82.3973 222.591 82.545C223.561 82.6888 224.363 83.2057 224.999 84.0958C225.547 84.8851 225.806 85.7409 225.775 86.6631C225.746 87.5761 225.448 88.4832 224.884 89.3844C224.319 90.2857 223.516 91.103 222.476 91.8365C220.948 92.9137 219.493 93.4613 218.111 93.4791C216.724 93.4915 215.537 92.9864 214.548 91.964L217.222 89.665C217.749 90.1367 218.325 90.3672 218.95 90.3563C219.575 90.3455 220.226 90.1013 220.903 89.6238C221.602 89.131 222.062 88.5921 222.282 88.007C222.507 87.4181 222.471 86.9123 222.173 86.4898C221.921 86.1322 221.575 85.9344 221.134 85.8963C220.699 85.8543 220.15 85.9735 219.488 86.2539L217.044 87.3082C215.671 87.9033 214.489 88.108 213.499 87.9224C212.504 87.7315 211.689 87.179 211.053 86.2651C210.505 85.4996 210.243 84.6862 210.269 83.8248C210.296 82.9542 210.579 82.0971 211.12 81.2535C211.662 80.4007 212.432 79.6228 213.429 78.9199C214.891 77.8885 216.262 77.3882 217.541 77.4191C218.826 77.4462 219.942 77.9199 220.892 78.8404Z" fill="#4682CD"/>
<path d="M241.255 51.3097C238.709 47.6989 239.572 42.7076 243.183 40.1614L262.796 26.3306C266.407 23.7844 271.399 24.6475 273.945 28.2583L287.776 47.8723C290.322 51.4831 289.459 56.4743 285.848 59.0205L266.234 72.8514C262.623 75.3976 257.632 74.5345 255.086 70.9237L241.255 51.3097Z" fill="#1E3A8A"/>
<g clip-path="url(#clip4_24_3448)">
<path d="M264.791 52.9653C264.564 52.7725 264.29 52.6441 263.996 52.5933C263.703 52.5426 263.401 52.5714 263.122 52.6768L258.184 54.5456C258.099 54.5757 258.006 54.577 257.919 54.5494C257.833 54.5217 257.758 54.4667 257.706 54.3926C257.654 54.3185 257.627 54.2294 257.63 54.1388C257.633 54.0481 257.665 53.961 257.722 53.8905L261.14 49.8661C261.333 49.6392 261.462 49.3649 261.512 49.0715C261.563 48.7782 261.535 48.4766 261.429 48.198L259.561 43.2601C259.53 43.1744 259.529 43.0811 259.556 42.9945C259.584 42.9078 259.639 42.8325 259.713 42.7801C259.787 42.7277 259.877 42.7011 259.968 42.7043C260.059 42.7074 260.146 42.7402 260.216 42.7977L264.239 46.2166C264.466 46.4094 264.741 46.5379 265.034 46.5886C265.328 46.6394 265.63 46.6105 265.908 46.5051L270.846 44.6356C270.931 44.6048 271.025 44.6029 271.112 44.6304C271.199 44.6578 271.274 44.7131 271.327 44.7876C271.38 44.8621 271.406 44.9518 271.403 45.043C271.4 45.1341 271.366 45.2216 271.308 45.2921L267.89 49.3151C267.697 49.5421 267.568 49.8166 267.518 50.1101C267.467 50.4036 267.496 50.7053 267.601 50.9839L269.47 55.9218C269.5 56.0075 269.502 56.1008 269.474 56.1874C269.447 56.2741 269.392 56.3494 269.317 56.4018C269.243 56.4542 269.154 56.4808 269.063 56.4777C268.972 56.4745 268.885 56.4417 268.814 56.3843L264.791 52.9653Z" stroke="white" stroke-width="2" stroke-linecap="round" stroke-linejoin="round"/>
<path d="M265.642 39.6199L267.563 42.344" stroke="white" stroke-width="2" stroke-linecap="round" stroke-linejoin="round"/>
<path d="M267.964 40.0214L265.24 41.9424" stroke="white" stroke-width="2" stroke-linecap="round" stroke-linejoin="round"/>
<path d="M261.469 56.8381L262.429 58.2002" stroke="white" stroke-linecap="round" stroke-linejoin="round"/>
<path d="M262.63 57.039L261.268 57.9995" stroke="white" stroke-linecap="round" stroke-linejoin="round"/>
</g>
</g>
<path d="M31.3318 171.806L247.085 19.6671C253.284 15.2961 257.812 12.1073 261.6 10.1326C265.349 8.17798 268.176 7.52261 270.988 8.00887C273.8 8.49513 276.243 10.0616 279.118 13.1618C282.023 16.2938 285.217 20.8178 289.588 27.0165L294.198 33.5545C298.57 39.7532 301.758 44.2807 303.733 48.0688C305.688 51.8183 306.343 54.6451 305.857 57.4572C305.37 60.2693 303.804 62.7118 300.704 65.5873C297.572 68.4924 293.048 71.6862 286.849 76.0573L71.0955 228.197C64.8968 232.568 60.3693 235.756 56.5812 237.731C52.8317 239.686 50.0049 240.341 47.1928 239.855C44.3807 239.369 41.9382 237.802 39.0627 234.702C36.1576 231.57 32.9638 227.046 28.5927 220.847L23.9824 214.309C19.6114 208.111 16.4226 203.583 14.4479 199.795C12.4933 196.045 11.8379 193.219 12.3242 190.407C12.8104 187.594 14.3769 185.152 17.4771 182.276C20.6091 179.371 25.1331 176.178 31.3318 171.806Z" stroke="#4682CD" stroke-width="3"/>
<defs>
<filter id="filter0_d_24_3448" x="0" y="332.731" width="305" height="80" filterUnits="userSpaceOnUse" color-interpolation-filters="sRGB">
<feFlood flood-opacity="0" result="BackgroundImageFix"/>
<feColorMatrix in="SourceAlpha" type="matrix" values="0 0 0 0 0 0 0 0 0 0 0 0 0 0 0 0 0 0 127 0" result="hardAlpha"/>
<feOffset dy="4"/>
<feGaussianBlur stdDeviation="2"/>
<feComposite in2="hardAlpha" operator="out"/>
<feColorMatrix type="matrix" values="0 0 0 0 0 0 0 0 0 0 0 0 0 0 0 0 0 0 0.25 0"/>
<feBlend mode="normal" in2="BackgroundImageFix" result="effect1_dropShadow_24_3448"/>
<feBlend mode="normal" in="SourceGraphic" in2="effect1_dropShadow_24_3448" result="shape"/>
</filter>
<clipPath id="clip0_24_3448">
<rect width="20" height="20" fill="white" transform="translate(255 358.731)"/>
</clipPath>
<clipPath id="clip1_24_3448">
<path d="M9.73004 269.749C11.0505 254.722 11.7108 247.209 16.7893 242.951C21.8679 238.693 29.3814 239.353 44.4084 240.673L276.52 261.07C291.547 262.391 299.06 263.051 303.318 268.129C307.576 273.208 306.916 280.721 305.596 295.748L304.895 303.721C303.575 318.748 302.914 326.261 297.836 330.519C292.757 334.777 285.244 334.117 270.217 332.797L38.1054 312.4C23.0784 311.079 15.5649 310.419 11.3068 305.341C7.04873 300.262 7.70898 292.749 9.02948 277.721L9.73004 269.749Z" fill="white"/>
</clipPath>
<clipPath id="clip2_24_3448">
<rect width="20" height="20" fill="white" transform="translate(261.292 285.833) rotate(5.02622)"/>
</clipPath>
<clipPath id="clip3_24_3448">
<path d="M22.7566 215.174C14.0633 202.846 9.71671 196.681 10.8459 190.151C11.9752 183.62 18.1392 179.274 30.4674 170.581L246.221 18.4413C258.549 9.74804 264.713 5.40142 271.244 6.53063C277.774 7.65986 282.121 13.8239 290.814 26.1521L295.424 32.6901C304.118 45.0182 308.464 51.1823 307.335 57.7128C306.206 64.2433 300.042 68.5899 287.714 77.2832L71.9599 229.422C59.6318 238.116 53.4677 242.462 46.9372 241.333C40.4067 240.204 36.0601 234.04 27.3668 221.712L22.7566 215.174Z" fill="white"/>
</clipPath>
<clipPath id="clip4_24_3448">
<rect width="20" height="20" fill="white" transform="translate(250.58 47.1814) rotate(-35.1897)"/>
</clipPath>
</defs>
</svg>
