<svg width="309" height="408" viewBox="0 0 309 408" fill="none" xmlns="http://www.w3.org/2000/svg">
<g filter="url(#filter0_d_24_2864)">
<path d="M4 359.321C4 344.236 4 336.693 8.68629 332.007C13.3726 327.321 20.9151 327.321 36 327.321H269C284.085 327.321 291.627 327.321 296.314 332.007C301 336.693 301 344.236 301 359.321V367.321C301 382.406 301 389.948 296.314 394.634C291.627 399.321 284.085 399.321 269 399.321H36C20.9151 399.321 13.3726 399.321 8.68629 394.634C4 389.948 4 382.406 4 367.321L4 359.321Z" fill="white"/>
<path d="M36 328.821H269C276.585 328.821 282.123 328.824 286.356 329.393C290.547 329.956 293.235 331.05 295.253 333.068C297.271 335.086 298.364 337.773 298.928 341.964C299.497 346.198 299.5 351.736 299.5 359.321V367.321C299.5 374.905 299.497 380.443 298.928 384.677C298.364 388.868 297.271 391.555 295.253 393.573C293.235 395.591 290.547 396.685 286.356 397.248C282.123 397.818 276.585 397.821 269 397.821H36C28.4152 397.821 22.8774 397.818 18.6436 397.248C14.4529 396.685 11.7651 395.591 9.74707 393.573C7.72908 391.555 6.63569 388.868 6.07227 384.677C5.50305 380.443 5.5 374.905 5.5 367.321V359.321C5.5 351.736 5.50305 346.198 6.07227 341.964C6.63569 337.773 7.72908 335.086 9.74707 333.068C11.7651 331.05 14.4529 329.956 18.6436 329.393C22.8774 328.824 28.4152 328.821 36 328.821Z" stroke="#4682CD" stroke-width="3"/>
<path d="M39 346.321H40C49.3888 346.321 57 353.932 57 363.321C57 372.709 49.3888 380.321 40 380.321H39C29.6112 380.321 22 372.709 22 363.321C22 353.932 29.6112 346.321 39 346.321Z" fill="black"/>
<path d="M39 346.321H40C49.3888 346.321 57 353.932 57 363.321C57 372.709 49.3888 380.321 40 380.321H39C29.6112 380.321 22 372.709 22 363.321C22 353.932 29.6112 346.321 39 346.321Z" stroke="#4682CD" stroke-width="4"/>
<path d="M121.216 373.321V352.957H128.852C130.416 352.957 131.729 353.249 132.79 353.832C133.857 354.415 134.662 355.217 135.206 356.238C135.756 357.252 136.031 358.406 136.031 359.698C136.031 361.004 135.756 362.164 135.206 363.179C134.656 364.193 133.844 364.991 132.77 365.575C131.696 366.152 130.373 366.44 128.802 366.44H123.741V363.407H128.305C129.22 363.407 129.969 363.248 130.552 362.93C131.136 362.612 131.567 362.174 131.845 361.617C132.13 361.061 132.273 360.421 132.273 359.698C132.273 358.976 132.13 358.339 131.845 357.789C131.567 357.239 131.132 356.812 130.542 356.507C129.959 356.195 129.207 356.039 128.285 356.039H124.905V373.321H121.216ZM144.959 373.619C143.468 373.619 142.175 373.291 141.081 372.634C139.988 371.978 139.139 371.06 138.536 369.88C137.939 368.7 137.641 367.322 137.641 365.744C137.641 364.166 137.939 362.784 138.536 361.598C139.139 360.411 139.988 359.49 141.081 358.833C142.175 358.177 143.468 357.849 144.959 357.849C146.451 357.849 147.743 358.177 148.837 358.833C149.931 359.49 150.776 360.411 151.373 361.598C151.976 362.784 152.278 364.166 152.278 365.744C152.278 367.322 151.976 368.7 151.373 369.88C150.776 371.06 149.931 371.978 148.837 372.634C147.743 373.291 146.451 373.619 144.959 373.619ZM144.979 370.735C145.788 370.735 146.464 370.513 147.008 370.069C147.551 369.618 147.956 369.015 148.221 368.259C148.492 367.504 148.628 366.662 148.628 365.734C148.628 364.799 148.492 363.954 148.221 363.198C147.956 362.436 147.551 361.83 147.008 361.379C146.464 360.928 145.788 360.703 144.979 360.703C144.151 360.703 143.461 360.928 142.911 361.379C142.367 361.83 141.96 362.436 141.688 363.198C141.423 363.954 141.29 364.799 141.29 365.734C141.29 366.662 141.423 367.504 141.688 368.259C141.96 369.015 142.367 369.618 142.911 370.069C143.461 370.513 144.151 370.735 144.979 370.735ZM158.372 364.372V373.321H154.773V358.048H158.213V360.643H158.392C158.743 359.788 159.303 359.108 160.072 358.605C160.848 358.101 161.806 357.849 162.946 357.849C164 357.849 164.918 358.074 165.7 358.525C166.489 358.976 167.099 359.629 167.53 360.484C167.967 361.339 168.183 362.376 168.176 363.596V373.321H164.577V364.153C164.577 363.132 164.311 362.333 163.781 361.757C163.257 361.18 162.532 360.892 161.604 360.892C160.974 360.892 160.414 361.031 159.923 361.309C159.439 361.581 159.058 361.975 158.78 362.492C158.508 363.009 158.372 363.636 158.372 364.372ZM183.346 362.085L180.065 362.443C179.972 362.111 179.81 361.8 179.578 361.508C179.352 361.216 179.047 360.981 178.663 360.802C178.278 360.623 177.808 360.534 177.251 360.534C176.502 360.534 175.872 360.696 175.362 361.021C174.858 361.346 174.609 361.767 174.616 362.284C174.609 362.728 174.772 363.089 175.103 363.367C175.441 363.646 175.998 363.875 176.774 364.054L179.379 364.61C180.824 364.922 181.898 365.416 182.6 366.092C183.31 366.768 183.668 367.653 183.674 368.747C183.668 369.708 183.386 370.556 182.829 371.292C182.279 372.021 181.513 372.591 180.532 373.002C179.551 373.413 178.424 373.619 177.151 373.619C175.282 373.619 173.777 373.228 172.637 372.446C171.497 371.657 170.818 370.56 170.599 369.154L174.109 368.816C174.268 369.506 174.606 370.026 175.123 370.377C175.64 370.729 176.313 370.904 177.142 370.904C177.997 370.904 178.683 370.729 179.2 370.377C179.723 370.026 179.985 369.592 179.985 369.075C179.985 368.637 179.816 368.276 179.478 367.991C179.147 367.706 178.63 367.487 177.927 367.335L175.322 366.788C173.857 366.483 172.773 365.969 172.071 365.247C171.368 364.518 171.02 363.596 171.026 362.482C171.02 361.541 171.275 360.726 171.792 360.036C172.316 359.34 173.042 358.804 173.97 358.426C174.904 358.041 175.981 357.849 177.201 357.849C178.991 357.849 180.4 358.23 181.427 358.992C182.461 359.755 183.101 360.786 183.346 362.085Z" fill="#1E3A8A"/>
<path d="M245 351.321C245 346.902 248.582 343.321 253 343.321H277C281.418 343.321 285 346.902 285 351.321V375.321C285 379.739 281.418 383.321 277 383.321H253C248.582 383.321 245 379.739 245 375.321V351.321Z" fill="#1E3A8A"/>
<g clip-path="url(#clip0_24_2864)">
<path d="M263.281 366.237C263.206 365.949 263.056 365.686 262.846 365.475C262.635 365.264 262.372 365.114 262.083 365.04L256.971 363.721C256.884 363.697 256.807 363.644 256.752 363.572C256.698 363.499 256.668 363.411 256.668 363.321C256.668 363.23 256.698 363.142 256.752 363.069C256.807 362.997 256.884 362.945 256.971 362.92L262.083 361.601C262.372 361.526 262.635 361.376 262.845 361.166C263.056 360.955 263.206 360.692 263.281 360.404L264.599 355.291C264.624 355.204 264.676 355.127 264.749 355.072C264.821 355.017 264.91 354.987 265 354.987C265.091 354.987 265.18 355.017 265.252 355.072C265.325 355.127 265.377 355.204 265.402 355.291L266.719 360.404C266.794 360.692 266.944 360.956 267.155 361.166C267.365 361.377 267.628 361.527 267.917 361.601L273.029 362.919C273.117 362.943 273.195 362.996 273.25 363.068C273.305 363.141 273.335 363.229 273.335 363.321C273.335 363.412 273.305 363.5 273.25 363.573C273.195 363.646 273.117 363.698 273.029 363.722L267.917 365.04C267.628 365.114 267.365 365.264 267.155 365.475C266.944 365.686 266.794 365.949 266.719 366.237L265.401 371.35C265.376 371.437 265.324 371.514 265.251 371.569C265.179 371.624 265.091 371.654 265 371.654C264.909 371.654 264.82 371.624 264.748 371.569C264.675 371.514 264.623 371.437 264.598 371.35L263.281 366.237Z" stroke="white" stroke-width="2" stroke-linecap="round" stroke-linejoin="round"/>
<path d="M271.667 355.821V359.154" stroke="white" stroke-width="2" stroke-linecap="round" stroke-linejoin="round"/>
<path d="M273.333 357.487H270" stroke="white" stroke-width="2" stroke-linecap="round" stroke-linejoin="round"/>
<path d="M258.333 367.487V369.154" stroke="white" stroke-linecap="round" stroke-linejoin="round"/>
<path d="M259.167 368.321H257.5" stroke="white" stroke-linecap="round" stroke-linejoin="round"/>
</g>
</g>
<g clip-path="url(#clip1_24_2864)">
<path d="M9.73004 264.338C11.0505 249.311 11.7108 241.798 16.7893 237.54C21.8679 233.282 29.3814 233.942 44.4084 235.262L276.52 255.659C291.547 256.98 299.06 257.64 303.318 262.718C307.576 267.797 306.916 275.311 305.596 290.338L304.895 298.31C303.575 313.337 302.914 320.85 297.836 325.108C292.757 329.366 285.244 328.706 270.217 327.386L38.1054 306.989C23.0784 305.668 15.5649 305.008 11.3068 299.93C7.04873 294.851 7.70898 287.338 9.02948 272.311L9.73004 264.338Z" fill="white"/>
<path d="M44.74 254.366L45.7362 254.454C55.0889 255.276 62.004 263.525 61.1814 272.878C60.3588 282.231 52.1101 289.146 42.7574 288.323L41.7612 288.235C32.4085 287.413 25.4934 279.164 26.316 269.811C27.1385 260.459 35.3873 253.544 44.74 254.366Z" fill="black"/>
<path d="M44.74 254.366L45.7362 254.454C55.0889 255.276 62.004 263.525 61.1814 272.878C60.3588 282.231 52.1101 289.146 42.7574 288.323L41.7612 288.235C32.4085 287.413 25.4934 279.164 26.316 269.811C27.1385 260.459 35.3873 253.544 44.74 254.366Z" stroke="#4682CD" stroke-width="4"/>
<path d="M134.191 289.331L135.974 269.045L149.167 270.205L148.897 273.285L139.378 272.449L138.894 277.956L147.729 278.732L147.459 281.813L138.623 281.036L138.137 286.573L147.735 287.417L147.464 290.497L134.191 289.331ZM156.598 291.569C155.402 291.464 154.36 291.063 153.469 290.366C152.579 289.669 151.911 288.712 151.466 287.495C151.021 286.278 150.871 284.834 151.018 283.164C151.167 281.473 151.569 280.071 152.226 278.958C152.89 277.838 153.724 277.023 154.727 276.513C155.73 275.995 156.817 275.788 157.985 275.891C158.877 275.969 159.597 276.185 160.144 276.539C160.693 276.887 161.117 277.287 161.416 277.739C161.717 278.185 161.943 278.601 162.095 278.987L162.244 279L162.911 271.412L166.506 271.728L164.723 292.014L161.197 291.704L161.408 289.307L161.19 289.288C160.973 289.641 160.671 290.011 160.284 290.396C159.898 290.775 159.405 291.084 158.805 291.324C158.205 291.564 157.469 291.646 156.598 291.569ZM157.857 288.715C158.616 288.782 159.281 288.634 159.852 288.272C160.423 287.903 160.88 287.361 161.223 286.646C161.565 285.93 161.779 285.081 161.866 284.097C161.952 283.113 161.889 282.246 161.675 281.495C161.468 280.745 161.115 280.145 160.616 279.695C160.123 279.246 159.49 278.987 158.717 278.919C157.918 278.849 157.233 278.999 156.662 279.368C156.09 279.737 155.637 280.276 155.302 280.985C154.967 281.694 154.758 282.521 154.675 283.465C154.591 284.416 154.652 285.276 154.857 286.046C155.069 286.81 155.424 287.43 155.921 287.907C156.426 288.377 157.071 288.646 157.857 288.715ZM178.804 286.803L179.578 277.988L183.164 278.303L181.827 293.517L178.35 293.211L178.588 290.507L178.429 290.493C178.011 291.315 177.385 291.962 176.552 292.434C175.725 292.907 174.741 293.094 173.598 292.993C172.601 292.906 171.739 292.607 171.012 292.097C170.292 291.582 169.755 290.879 169.401 289.989C169.047 289.093 168.923 288.038 169.03 286.823L169.881 277.136L173.467 277.451L172.664 286.583C172.58 287.547 172.776 288.336 173.255 288.951C173.733 289.565 174.402 289.91 175.26 289.985C175.788 290.032 176.311 289.948 176.829 289.734C177.347 289.52 177.787 289.173 178.149 288.692C178.517 288.205 178.736 287.576 178.804 286.803Z" fill="#161616"/>
<path d="M251.506 277.554C251.893 273.152 255.775 269.898 260.176 270.285L284.084 272.388C288.485 272.775 291.739 276.657 291.352 281.058L289.25 304.966C288.863 309.367 284.981 312.621 280.58 312.234L256.672 310.132C252.271 309.744 249.016 305.863 249.403 301.461L251.506 277.554Z" fill="#4DA625"/>
<g clip-path="url(#clip2_24_2864)">
<path d="M268.409 294.015C268.361 293.721 268.234 293.445 268.043 293.217C267.851 292.989 267.602 292.816 267.321 292.717L262.344 290.956C262.259 290.923 262.188 290.864 262.139 290.787C262.091 290.711 262.07 290.62 262.078 290.53C262.085 290.439 262.123 290.354 262.183 290.287C262.244 290.22 262.325 290.174 262.414 290.157L267.623 289.291C267.916 289.242 268.192 289.115 268.42 288.924C268.648 288.733 268.821 288.484 268.921 288.204L270.682 283.226C270.714 283.141 270.773 283.069 270.85 283.021C270.927 282.972 271.017 282.95 271.108 282.958C271.199 282.966 271.284 283.004 271.351 283.065C271.419 283.126 271.464 283.207 271.481 283.297L272.346 288.505C272.394 288.799 272.521 289.074 272.712 289.302C272.904 289.531 273.153 289.703 273.434 289.803L278.411 291.563C278.496 291.595 278.569 291.654 278.618 291.731C278.666 291.808 278.689 291.899 278.681 291.99C278.673 292.081 278.635 292.167 278.574 292.234C278.512 292.301 278.43 292.347 278.341 292.363L273.132 293.228C272.839 293.277 272.563 293.403 272.335 293.595C272.107 293.786 271.934 294.035 271.835 294.316L270.073 299.293C270.041 299.378 269.982 299.451 269.905 299.499C269.828 299.547 269.738 299.569 269.647 299.561C269.556 299.553 269.471 299.516 269.404 299.455C269.336 299.394 269.291 299.312 269.274 299.223L268.409 294.015Z" stroke="white" stroke-width="2" stroke-linecap="round" stroke-linejoin="round"/>
<path d="M277.676 284.373L277.384 287.693" stroke="white" stroke-width="2" stroke-linecap="round" stroke-linejoin="round"/>
<path d="M279.19 286.179L275.869 285.887" stroke="white" stroke-width="2" stroke-linecap="round" stroke-linejoin="round"/>
<path d="M263.371 294.826L263.225 296.487" stroke="white" stroke-linecap="round" stroke-linejoin="round"/>
<path d="M264.128 295.73L262.468 295.583" stroke="white" stroke-linecap="round" stroke-linejoin="round"/>
</g>
</g>
<path d="M44.2771 236.757L276.389 257.153C283.944 257.817 289.46 258.305 293.628 259.243C297.754 260.171 300.335 261.495 302.169 263.682C304.002 265.869 304.856 268.642 305.051 272.866C305.247 277.134 304.765 282.651 304.102 290.206L303.401 298.178C302.737 305.734 302.249 311.25 301.312 315.418C300.383 319.543 299.059 322.125 296.872 323.959C294.685 325.792 291.912 326.646 287.688 326.841C283.421 327.037 277.904 326.555 270.348 325.891L38.2367 305.495C30.681 304.831 25.1648 304.343 20.997 303.405C16.8717 302.477 14.29 301.153 12.4564 298.966C10.6228 296.779 9.76887 294.006 9.57445 289.782C9.37804 285.514 9.85977 279.998 10.5237 272.442L11.2243 264.47C11.8882 256.914 12.376 251.398 13.3137 247.23C14.2418 243.105 15.5663 240.523 17.7532 238.689C19.9401 236.856 22.7133 236.002 26.9372 235.807C31.2046 235.611 36.7214 236.093 44.2771 236.757Z" stroke="#4682CD" stroke-width="3"/>
<g clip-path="url(#clip3_24_2864)">
<path d="M39.4422 213.081C29.9116 201.388 25.1462 195.542 25.8179 188.948C26.4896 182.355 32.336 177.59 44.0288 168.059L225.409 20.2176C237.102 10.6869 242.949 5.92159 249.542 6.59327C256.135 7.26496 260.901 13.1114 270.431 24.8042L275.486 31.0052C285.016 42.698 289.782 48.5444 289.11 55.1377C288.438 61.731 282.592 66.4963 270.899 76.027L89.5184 223.868C77.8256 233.399 71.9792 238.164 65.386 237.493C58.7927 236.821 54.0273 230.975 44.4966 219.282L39.4422 213.081Z" fill="white"/>
<path d="M57.5829 181.523L58.358 180.891C65.6356 174.959 76.344 176.05 82.2759 183.328C88.2077 190.605 87.1168 201.314 79.8392 207.246L79.0641 207.877C71.7865 213.809 61.0781 212.718 55.1463 205.441C49.2144 198.163 50.3053 187.455 57.5829 181.523Z" fill="black"/>
<path d="M57.5829 181.523L58.358 180.891C65.6356 174.959 76.344 176.05 82.2759 183.328C88.2077 190.605 87.1168 201.314 79.8392 207.246L79.0641 207.877C71.7865 213.809 61.0781 212.718 55.1463 205.441C49.2144 198.163 50.3053 187.455 57.5829 181.523Z" stroke="#4682CD" stroke-width="4"/>
<path d="M118.104 147.976C117.483 147.362 116.753 147.085 115.913 147.145C115.078 147.202 114.237 147.575 113.389 148.266C112.793 148.752 112.355 149.259 112.075 149.786C111.795 150.314 111.668 150.824 111.693 151.316C111.718 151.809 111.889 152.255 112.207 152.655C112.475 152.984 112.782 153.208 113.128 153.328C113.479 153.444 113.854 153.48 114.254 153.436C114.65 153.387 115.054 153.289 115.465 153.142C115.875 152.995 116.274 152.829 116.66 152.642L118.442 151.806C119.151 151.459 119.877 151.179 120.619 150.968C121.367 150.752 122.105 150.645 122.835 150.649C123.57 150.649 124.274 150.798 124.945 151.097C125.617 151.397 126.231 151.888 126.788 152.571C127.542 153.496 127.969 154.503 128.07 155.592C128.167 156.677 127.93 157.781 127.358 158.905C126.788 160.02 125.87 161.093 124.606 162.123C123.378 163.124 122.157 163.803 120.943 164.16C119.734 164.512 118.578 164.531 117.474 164.216C116.376 163.897 115.379 163.23 114.484 162.216L117.297 159.923C117.786 160.439 118.328 160.758 118.924 160.88C119.519 161.002 120.129 160.958 120.753 160.748C121.383 160.534 121.996 160.185 122.592 159.699C123.214 159.192 123.683 158.656 124 158.089C124.317 157.514 124.474 156.95 124.469 156.399C124.459 155.842 124.273 155.335 123.91 154.879C123.57 154.472 123.172 154.231 122.718 154.157C122.26 154.077 121.744 154.121 121.171 154.289C120.599 154.447 119.972 154.685 119.289 155.002L117.117 156.003C115.544 156.729 114.104 157.06 112.796 156.998C111.489 156.926 110.375 156.324 109.453 155.194C108.695 154.264 108.283 153.244 108.217 152.135C108.156 151.022 108.405 149.916 108.965 148.819C109.52 147.717 110.35 146.715 111.455 145.815C112.575 144.902 113.715 144.297 114.876 144.001C116.038 143.695 117.141 143.69 118.185 143.984C119.225 144.274 120.115 144.857 120.855 145.734L118.104 147.976ZM129.088 138.369L130.847 140.527L124.042 146.074L122.283 143.916L129.088 138.369ZM121.651 139.71L124.441 137.436L133.5 148.55C133.806 148.925 134.097 149.167 134.373 149.275C134.65 149.374 134.913 149.382 135.162 149.299C135.411 149.216 135.651 149.08 135.882 148.892C136.057 148.749 136.206 148.607 136.328 148.464C136.457 148.316 136.551 148.201 136.611 148.118L138.859 149.916C138.752 150.089 138.585 150.319 138.358 150.607C138.135 150.89 137.831 151.199 137.444 151.531C136.762 152.121 136.046 152.529 135.298 152.754C134.545 152.975 133.803 152.972 133.072 152.747C132.347 152.517 131.685 152.031 131.087 151.287L121.651 139.71ZM144.558 137.176L138.967 130.317L141.757 128.043L151.406 139.881L148.701 142.086L146.986 139.982L146.863 140.082C147.136 140.963 147.138 141.863 146.87 142.783C146.607 143.698 146.032 144.519 145.143 145.243C144.367 145.875 143.541 146.262 142.664 146.404C141.788 146.536 140.913 146.407 140.039 146.016C139.161 145.621 138.336 144.95 137.565 144.005L131.422 136.467L134.212 134.193L140.004 141.299C140.615 142.049 141.306 142.478 142.078 142.584C142.849 142.691 143.569 142.473 144.236 141.928C144.648 141.593 144.964 141.168 145.186 140.654C145.408 140.139 145.481 139.584 145.405 138.987C145.33 138.381 145.048 137.777 144.558 137.176ZM158.838 134.17C157.908 134.928 156.881 135.367 155.757 135.488C154.632 135.609 153.486 135.389 152.319 134.827C151.151 134.265 150.037 133.334 148.978 132.035C147.906 130.719 147.217 129.433 146.911 128.177C146.607 126.912 146.636 125.746 146.999 124.681C147.358 123.61 147.992 122.704 148.901 121.963C149.595 121.398 150.262 121.051 150.901 120.923C151.537 120.79 152.119 120.781 152.65 120.896C153.175 121.006 153.628 121.146 154.006 121.317L154.122 121.223L149.31 115.319L152.107 113.038L164.973 128.823L162.229 131.059L160.709 129.194L160.539 129.332C160.63 129.737 160.671 130.213 160.663 130.758C160.65 131.299 160.512 131.864 160.25 132.455C159.987 133.045 159.516 133.617 158.838 134.17ZM157.751 131.246C158.342 130.765 158.715 130.195 158.872 129.537C159.024 128.874 158.974 128.167 158.72 127.416C158.467 126.664 158.029 125.906 157.405 125.14C156.781 124.375 156.13 123.797 155.454 123.408C154.782 123.014 154.111 122.831 153.439 122.856C152.773 122.878 152.139 123.134 151.538 123.624C150.916 124.131 150.529 124.715 150.377 125.378C150.224 126.041 150.275 126.744 150.529 127.486C150.784 128.228 151.21 128.966 151.809 129.701C152.412 130.441 153.056 131.015 153.74 131.424C154.424 131.824 155.111 132.021 155.8 132.016C156.489 132.001 157.139 131.745 157.751 131.246ZM173.375 122.359C172.189 123.326 170.962 123.915 169.697 124.126C168.433 124.327 167.199 124.161 165.995 123.628C164.787 123.091 163.679 122.203 162.669 120.964C161.677 119.747 161.037 118.489 160.75 117.193C160.463 115.887 160.53 114.636 160.948 113.439C161.363 112.238 162.135 111.176 163.266 110.255C163.995 109.66 164.78 109.217 165.62 108.926C166.461 108.625 167.33 108.516 168.226 108.597C169.127 108.675 170.03 108.974 170.933 109.495C171.832 110.011 172.705 110.788 173.551 111.825L174.248 112.681L164.545 120.59L163.012 118.71L170.041 112.98C169.6 112.45 169.097 112.069 168.532 111.837C167.963 111.6 167.376 111.526 166.774 111.616C166.176 111.701 165.61 111.961 165.076 112.397C164.505 112.862 164.117 113.409 163.912 114.038C163.702 114.662 163.659 115.296 163.782 115.94C163.906 116.574 164.181 117.158 164.607 117.692L165.945 119.333C166.506 120.022 167.114 120.51 167.768 120.798C168.417 121.081 169.075 121.169 169.741 121.063C170.402 120.951 171.036 120.648 171.642 120.154C172.048 119.823 172.37 119.467 172.606 119.086C172.839 118.7 172.984 118.295 173.041 117.873C173.098 117.45 173.052 117.021 172.903 116.586L175.747 114.756C176.144 115.578 176.321 116.435 176.277 117.326C176.234 118.207 175.971 119.08 175.487 119.945C174.999 120.805 174.295 121.609 173.375 122.359ZM177.948 106.703L183.601 113.639L180.811 115.913L171.162 104.075L173.829 101.901L175.468 103.913L175.607 103.8C175.339 102.915 175.344 102.034 175.622 101.158C175.905 100.278 176.488 99.4772 177.372 98.7568C178.189 98.0909 179.043 97.6856 179.934 97.5408C180.83 97.3918 181.715 97.5126 182.59 97.9032C183.469 98.2896 184.291 98.9576 185.057 99.9072L191.201 107.445L188.411 109.719L182.619 102.613C181.974 101.822 181.264 101.37 180.488 101.258C179.718 101.142 178.973 101.377 178.254 101.963C177.766 102.361 177.419 102.823 177.215 103.349C177.012 103.865 176.965 104.412 177.076 104.988C177.192 105.561 177.483 106.132 177.948 106.703ZM190.299 88.4764L192.058 90.6344L185.253 96.1815L183.494 94.0235L190.299 88.4764ZM182.862 89.8177L185.652 87.5436L194.711 98.6575C195.017 99.0325 195.308 99.2742 195.584 99.3825C195.861 99.4814 196.124 99.4893 196.373 99.4063C196.622 99.3233 196.862 99.1876 197.093 98.9991C197.268 98.8567 197.417 98.714 197.54 98.5711C197.668 98.4239 197.762 98.3087 197.822 98.2253L200.07 100.023C199.963 100.196 199.796 100.426 199.569 100.714C199.347 100.998 199.042 101.306 198.655 101.639C197.973 102.229 197.257 102.637 196.509 102.862C195.756 103.082 195.014 103.08 194.283 102.854C193.558 102.625 192.896 102.138 192.298 101.394L182.862 89.8177ZM204.37 82.2153L202.053 84.5659C201.772 84.3676 201.449 84.2287 201.085 84.1492C200.726 84.0656 200.341 84.0758 199.93 84.18C199.519 84.2842 199.097 84.5121 198.666 84.8639C198.085 85.3372 197.7 85.8609 197.509 86.4352C197.324 87.0053 197.397 87.4886 197.729 87.8852C198.004 88.2336 198.359 88.4111 198.791 88.4175C199.229 88.4197 199.805 88.2451 200.52 87.8939L202.891 86.6796C204.208 86.008 205.352 85.7124 206.324 85.7925C207.301 85.8685 208.137 86.3283 208.834 87.1719C209.436 87.9211 209.753 88.7568 209.787 89.6789C209.821 90.5918 209.588 91.5174 209.087 92.4558C208.586 93.3942 207.842 94.2654 206.856 95.0695C205.407 96.2506 203.993 96.8981 202.615 97.0121C201.233 97.1211 200.014 96.7 198.956 95.7489L201.463 93.2692C202.022 93.7031 202.613 93.8929 203.236 93.8385C203.858 93.7842 204.491 93.4952 205.133 92.9717C205.796 92.4315 206.217 91.8618 206.396 91.2628C206.58 90.6597 206.508 90.1577 206.182 89.7569C205.905 89.4178 205.546 89.2446 205.104 89.2372C204.667 89.2257 204.128 89.3828 203.487 89.7085L201.122 90.9305C199.794 91.6198 198.629 91.9063 197.628 91.7902C196.623 91.6689 195.771 91.1746 195.072 90.3072C194.472 89.5817 194.155 88.7885 194.12 87.9275C194.086 87.0571 194.31 86.1823 194.79 85.3031C195.272 84.4146 195.986 83.585 196.931 82.8144C198.318 81.6836 199.651 81.0891 200.929 81.0308C202.212 80.9684 203.359 81.3632 204.37 82.2153Z" fill="#4682CD"/>
<path d="M222.745 53.3522C219.953 49.9274 220.467 44.8882 223.891 42.0967L242.495 26.9335C245.919 24.142 250.959 24.6554 253.75 28.0801L268.913 46.6833C271.705 50.108 271.191 55.1473 267.767 57.9387L249.164 73.1019C245.739 75.8934 240.7 75.3801 237.908 71.9553L222.745 53.3522Z" fill="#1E3A8A"/>
<g clip-path="url(#clip4_24_2864)">
<path d="M246.339 53.3649C246.099 53.1883 245.817 53.0793 245.52 53.0491C245.224 53.0189 244.925 53.0687 244.654 53.1932L239.859 55.4014C239.775 55.4373 239.683 55.4451 239.595 55.4236C239.507 55.4021 239.428 55.3524 239.371 55.2821C239.313 55.2118 239.281 55.1248 239.277 55.0342C239.274 54.9435 239.3 54.8543 239.352 54.78L242.482 50.5274C242.658 50.2877 242.767 50.005 242.797 49.7088C242.828 49.4127 242.778 49.1138 242.654 48.8433L240.446 44.0475C240.409 43.9641 240.401 43.8712 240.423 43.7828C240.444 43.6944 240.494 43.6155 240.564 43.558C240.635 43.5006 240.722 43.4678 240.813 43.4646C240.904 43.4614 240.993 43.4881 241.068 43.5405L245.319 46.6709C245.559 46.8475 245.842 46.9565 246.138 46.9867C246.434 47.0169 246.733 46.9671 247.004 46.8426L251.799 44.6337C251.882 44.597 251.976 44.5886 252.064 44.6099C252.153 44.6313 252.232 44.6811 252.29 44.7518C252.347 44.8225 252.38 44.9101 252.383 45.0013C252.386 45.0924 252.359 45.1821 252.306 45.2564L249.176 49.5077C248.999 49.7476 248.89 50.0304 248.86 50.3267C248.83 50.623 248.88 50.922 249.004 51.1925L251.213 55.9883C251.249 56.0717 251.257 56.1646 251.236 56.253C251.214 56.3414 251.164 56.4203 251.094 56.4777C251.023 56.5352 250.936 56.568 250.845 56.5712C250.754 56.5744 250.665 56.5477 250.591 56.4953L246.339 53.3649Z" stroke="white" stroke-width="2" stroke-linecap="round" stroke-linejoin="round"/>
<path d="M246.258 39.9922L248.364 42.576" stroke="white" stroke-width="2" stroke-linecap="round" stroke-linejoin="round"/>
<path d="M248.603 40.2312L246.02 42.3372" stroke="white" stroke-width="2" stroke-linecap="round" stroke-linejoin="round"/>
<path d="M243.294 57.4595L244.347 58.7514" stroke="white" stroke-linecap="round" stroke-linejoin="round"/>
<path d="M244.467 57.5788L243.175 58.6318" stroke="white" stroke-linecap="round" stroke-linejoin="round"/>
</g>
</g>
<path d="M44.9765 169.222L226.357 21.3803C232.236 16.5882 236.531 13.0918 240.172 10.8581C243.776 8.64711 246.551 7.79648 249.39 8.08572C252.229 8.37496 254.775 9.76755 257.859 12.6599C260.975 15.5821 264.476 19.8726 269.269 25.7519L274.323 31.9529C279.115 37.8322 282.611 42.1266 284.845 45.768C287.056 49.3723 287.907 52.1465 287.618 54.9857C287.328 57.8248 285.936 60.3705 283.043 63.4549C280.121 66.5711 275.831 70.0722 269.951 74.8643L88.5707 222.706C82.6915 227.498 78.3971 230.994 74.7557 233.228C71.1514 235.439 68.3772 236.29 65.538 236C62.6988 235.711 60.1531 234.318 57.0687 231.426C53.9526 228.504 50.4514 224.213 45.6593 218.334L40.6049 212.133C35.8128 206.254 32.3164 201.959 30.0827 198.318C27.8717 194.714 27.0211 191.94 27.3103 189.1C27.5996 186.261 28.9922 183.715 31.8845 180.631C34.8067 177.515 39.0972 174.014 44.9765 169.222Z" stroke="#4682CD" stroke-width="3"/>
<defs>
<filter id="filter0_d_24_2864" x="0" y="327.321" width="305" height="80" filterUnits="userSpaceOnUse" color-interpolation-filters="sRGB">
<feFlood flood-opacity="0" result="BackgroundImageFix"/>
<feColorMatrix in="SourceAlpha" type="matrix" values="0 0 0 0 0 0 0 0 0 0 0 0 0 0 0 0 0 0 127 0" result="hardAlpha"/>
<feOffset dy="4"/>
<feGaussianBlur stdDeviation="2"/>
<feComposite in2="hardAlpha" operator="out"/>
<feColorMatrix type="matrix" values="0 0 0 0 0 0 0 0 0 0 0 0 0 0 0 0 0 0 0.25 0"/>
<feBlend mode="normal" in2="BackgroundImageFix" result="effect1_dropShadow_24_2864"/>
<feBlend mode="normal" in="SourceGraphic" in2="effect1_dropShadow_24_2864" result="shape"/>
</filter>
<clipPath id="clip0_24_2864">
<rect width="20" height="20" fill="white" transform="translate(255 353.321)"/>
</clipPath>
<clipPath id="clip1_24_2864">
<path d="M9.73004 264.338C11.0505 249.311 11.7108 241.798 16.7893 237.54C21.8679 233.282 29.3814 233.942 44.4084 235.262L276.52 255.659C291.547 256.98 299.06 257.64 303.318 262.718C307.576 267.797 306.916 275.311 305.596 290.338L304.895 298.31C303.575 313.337 302.914 320.85 297.836 325.108C292.757 329.366 285.244 328.706 270.217 327.386L38.1054 306.989C23.0784 305.668 15.5649 305.008 11.3068 299.93C7.04873 294.851 7.70898 287.338 9.02948 272.311L9.73004 264.338Z" fill="white"/>
</clipPath>
<clipPath id="clip2_24_2864">
<rect width="20" height="20" fill="white" transform="translate(261.292 280.422) rotate(5.02622)"/>
</clipPath>
<clipPath id="clip3_24_2864">
<path d="M39.4422 213.081C29.9116 201.388 25.1462 195.542 25.8179 188.948C26.4896 182.355 32.336 177.59 44.0288 168.059L225.409 20.2176C237.102 10.6869 242.949 5.92159 249.542 6.59327C256.135 7.26496 260.901 13.1114 270.431 24.8042L275.486 31.0052C285.016 42.698 289.782 48.5444 289.11 55.1377C288.438 61.731 282.592 66.4963 270.899 76.027L89.5184 223.868C77.8256 233.399 71.9792 238.164 65.386 237.493C58.7927 236.821 54.0273 230.975 44.4966 219.282L39.4422 213.081Z" fill="white"/>
</clipPath>
<clipPath id="clip4_24_2864">
<rect width="20" height="20" fill="white" transform="translate(231.76 48.5845) rotate(-39.1831)"/>
</clipPath>
</defs>
</svg>
