<svg width="310" height="397" viewBox="0 0 310 397" fill="none" xmlns="http://www.w3.org/2000/svg">
<g filter="url(#filter0_d_24_3156)">
<path d="M4 348.648C4 333.563 4 326.021 8.68629 321.335C13.3726 316.648 20.9151 316.648 36 316.648H269C284.085 316.648 291.627 316.648 296.314 321.335C301 326.021 301 333.563 301 348.648V356.648C301 371.733 301 379.276 296.314 383.962C291.627 388.648 284.085 388.648 269 388.648H36C20.9151 388.648 13.3726 388.648 8.68629 383.962C4 379.276 4 371.733 4 356.648L4 348.648Z" fill="white"/>
<path d="M36 318.148H269C276.585 318.148 282.123 318.151 286.356 318.721C290.547 319.284 293.235 320.378 295.253 322.396C297.271 324.414 298.364 327.101 298.928 331.292C299.497 335.526 299.5 341.064 299.5 348.648V356.648C299.5 364.233 299.497 369.771 298.928 374.005C298.364 378.196 297.271 380.883 295.253 382.901C293.235 384.919 290.547 386.013 286.356 386.576C282.123 387.145 276.585 387.148 269 387.148H36C28.4152 387.148 22.8774 387.145 18.6436 386.576C14.4529 386.013 11.7651 384.919 9.74707 382.901C7.72908 380.883 6.63569 378.196 6.07227 374.005C5.50305 369.771 5.5 364.233 5.5 356.648V348.648C5.5 341.064 5.50305 335.526 6.07227 331.292C6.63569 327.101 7.72908 324.414 9.74707 322.396C11.7651 320.378 14.4529 319.284 18.6436 318.721C22.8774 318.151 28.4152 318.148 36 318.148Z" stroke="#4682CD" stroke-width="3"/>
<path d="M39 335.648H40C49.3888 335.648 57 343.26 57 352.648C57 362.037 49.3888 369.648 40 369.648H39C29.6112 369.648 22 362.037 22 352.648C22 343.26 29.6112 335.648 39 335.648Z" fill="black"/>
<path d="M39 335.648H40C49.3888 335.648 57 343.26 57 352.648C57 362.037 49.3888 369.648 40 369.648H39C29.6112 369.648 22 362.037 22 352.648C22 343.26 29.6112 335.648 39 335.648Z" stroke="#4682CD" stroke-width="4"/>
<path d="M121.216 362.648V342.285H128.852C130.416 342.285 131.729 342.576 132.79 343.16C133.857 343.743 134.662 344.545 135.206 345.566C135.756 346.58 136.031 347.734 136.031 349.026C136.031 350.332 135.756 351.492 135.206 352.506C134.656 353.521 133.844 354.319 132.77 354.903C131.696 355.479 130.373 355.768 128.802 355.768H123.741V352.735H128.305C129.22 352.735 129.969 352.576 130.552 352.258C131.136 351.94 131.567 351.502 131.845 350.945C132.13 350.388 132.273 349.749 132.273 349.026C132.273 348.304 132.13 347.667 131.845 347.117C131.567 346.567 131.132 346.139 130.542 345.835C129.959 345.523 129.207 345.367 128.285 345.367H124.905V362.648H121.216ZM144.959 362.947C143.468 362.947 142.175 362.619 141.081 361.962C139.988 361.306 139.139 360.388 138.536 359.208C137.939 358.028 137.641 356.649 137.641 355.072C137.641 353.494 137.939 352.112 138.536 350.925C139.139 349.739 139.988 348.817 141.081 348.161C142.175 347.505 143.468 347.177 144.959 347.177C146.451 347.177 147.743 347.505 148.837 348.161C149.931 348.817 150.776 349.739 151.373 350.925C151.976 352.112 152.278 353.494 152.278 355.072C152.278 356.649 151.976 358.028 151.373 359.208C150.776 360.388 149.931 361.306 148.837 361.962C147.743 362.619 146.451 362.947 144.959 362.947ZM144.979 360.063C145.788 360.063 146.464 359.841 147.008 359.397C147.551 358.946 147.956 358.343 148.221 357.587C148.492 356.832 148.628 355.99 148.628 355.062C148.628 354.127 148.492 353.282 148.221 352.526C147.956 351.764 147.551 351.157 147.008 350.707C146.464 350.256 145.788 350.031 144.979 350.031C144.151 350.031 143.461 350.256 142.911 350.707C142.367 351.157 141.96 351.764 141.688 352.526C141.423 353.282 141.29 354.127 141.29 355.062C141.29 355.99 141.423 356.832 141.688 357.587C141.96 358.343 142.367 358.946 142.911 359.397C143.461 359.841 144.151 360.063 144.979 360.063ZM158.372 353.7V362.648H154.773V347.376H158.213V349.971H158.392C158.743 349.116 159.303 348.436 160.072 347.933C160.848 347.429 161.806 347.177 162.946 347.177C164 347.177 164.918 347.402 165.7 347.853C166.489 348.304 167.099 348.957 167.53 349.812C167.967 350.667 168.183 351.704 168.176 352.924V362.648H164.577V353.481C164.577 352.46 164.311 351.661 163.781 351.085C163.257 350.508 162.532 350.219 161.604 350.219C160.974 350.219 160.414 350.359 159.923 350.637C159.439 350.909 159.058 351.303 158.78 351.82C158.508 352.337 158.372 352.964 158.372 353.7ZM183.346 351.413L180.065 351.771C179.972 351.439 179.81 351.128 179.578 350.836C179.352 350.544 179.047 350.309 178.663 350.13C178.278 349.951 177.808 349.862 177.251 349.862C176.502 349.862 175.872 350.024 175.362 350.349C174.858 350.674 174.609 351.094 174.616 351.612C174.609 352.056 174.772 352.417 175.103 352.695C175.441 352.974 175.998 353.202 176.774 353.381L179.379 353.938C180.824 354.25 181.898 354.744 182.6 355.42C183.31 356.096 183.668 356.981 183.674 358.075C183.668 359.036 183.386 359.884 182.829 360.62C182.279 361.349 181.513 361.919 180.532 362.33C179.551 362.741 178.424 362.947 177.151 362.947C175.282 362.947 173.777 362.556 172.637 361.773C171.497 360.985 170.818 359.888 170.599 358.482L174.109 358.144C174.268 358.834 174.606 359.354 175.123 359.705C175.64 360.057 176.313 360.232 177.142 360.232C177.997 360.232 178.683 360.057 179.2 359.705C179.723 359.354 179.985 358.92 179.985 358.403C179.985 357.965 179.816 357.604 179.478 357.319C179.147 357.034 178.63 356.815 177.927 356.663L175.322 356.116C173.857 355.811 172.773 355.297 172.071 354.575C171.368 353.845 171.02 352.924 171.026 351.81C171.02 350.869 171.275 350.054 171.792 349.364C172.316 348.668 173.042 348.131 173.97 347.754C174.904 347.369 175.981 347.177 177.201 347.177C178.991 347.177 180.4 347.558 181.427 348.32C182.461 349.083 183.101 350.113 183.346 351.413Z" fill="#1E3A8A"/>
<path d="M245 340.648C245 336.23 248.582 332.648 253 332.648H277C281.418 332.648 285 336.23 285 340.648V364.648C285 369.067 281.418 372.648 277 372.648H253C248.582 372.648 245 369.067 245 364.648V340.648Z" fill="#1E3A8A"/>
<g clip-path="url(#clip0_24_3156)">
<path d="M263.281 355.565C263.206 355.277 263.056 355.014 262.846 354.803C262.635 354.592 262.372 354.442 262.083 354.368L256.971 353.049C256.884 353.025 256.807 352.972 256.752 352.9C256.698 352.827 256.668 352.739 256.668 352.648C256.668 352.558 256.698 352.47 256.752 352.397C256.807 352.325 256.884 352.272 256.971 352.248L262.083 350.928C262.372 350.854 262.635 350.704 262.845 350.494C263.056 350.283 263.206 350.02 263.281 349.732L264.599 344.619C264.624 344.532 264.676 344.455 264.749 344.4C264.821 344.345 264.91 344.315 265 344.315C265.091 344.315 265.18 344.345 265.252 344.4C265.325 344.455 265.377 344.532 265.402 344.619L266.719 349.732C266.794 350.02 266.944 350.283 267.155 350.494C267.365 350.705 267.628 350.855 267.917 350.929L273.029 352.247C273.117 352.271 273.195 352.323 273.25 352.396C273.305 352.469 273.335 352.557 273.335 352.648C273.335 352.74 273.305 352.828 273.25 352.901C273.195 352.973 273.117 353.026 273.029 353.05L267.917 354.368C267.628 354.442 267.365 354.592 267.155 354.803C266.944 355.014 266.794 355.277 266.719 355.565L265.401 360.678C265.376 360.765 265.324 360.842 265.251 360.897C265.179 360.952 265.091 360.982 265 360.982C264.909 360.982 264.82 360.952 264.748 360.897C264.675 360.842 264.623 360.765 264.598 360.678L263.281 355.565Z" stroke="white" stroke-width="2" stroke-linecap="round" stroke-linejoin="round"/>
<path d="M271.667 345.148V348.482" stroke="white" stroke-width="2" stroke-linecap="round" stroke-linejoin="round"/>
<path d="M273.333 346.815H270" stroke="white" stroke-width="2" stroke-linecap="round" stroke-linejoin="round"/>
<path d="M258.333 356.815V358.482" stroke="white" stroke-linecap="round" stroke-linejoin="round"/>
<path d="M259.167 357.648H257.5" stroke="white" stroke-linecap="round" stroke-linejoin="round"/>
</g>
</g>
<g clip-path="url(#clip1_24_3156)">
<path d="M9.73004 253.666C11.0505 238.639 11.7108 231.126 16.7893 226.868C21.8679 222.61 29.3814 223.27 44.4084 224.59L276.52 244.987C291.547 246.308 299.06 246.968 303.318 252.046C307.576 257.125 306.916 264.638 305.596 279.665L304.895 287.638C303.575 302.665 302.914 310.178 297.836 314.436C292.757 318.694 285.244 318.034 270.217 316.714L38.1054 296.317C23.0784 294.996 15.5649 294.336 11.3068 289.258C7.04873 284.179 7.70898 276.666 9.02948 261.638L9.73004 253.666Z" fill="white"/>
<path d="M44.74 243.694L45.7362 243.782C55.0889 244.604 62.004 252.853 61.1814 262.206C60.3588 271.558 52.1101 278.473 42.7574 277.651L41.7612 277.563C32.4085 276.741 25.4934 268.492 26.316 259.139C27.1385 249.787 35.3873 242.871 44.74 243.694Z" fill="black"/>
<path d="M44.74 243.694L45.7362 243.782C55.0889 244.604 62.004 252.853 61.1814 262.206C60.3588 271.558 52.1101 278.473 42.7574 277.651L41.7612 277.563C32.4085 276.741 25.4934 268.492 26.316 259.139C27.1385 249.787 35.3873 242.871 44.74 243.694Z" stroke="#4682CD" stroke-width="4"/>
<path d="M134.191 278.659L135.974 258.373L149.167 259.533L148.897 262.613L139.378 261.777L138.894 267.284L147.729 268.06L147.459 271.141L138.623 270.364L138.137 275.901L147.735 276.745L147.464 279.825L134.191 278.659ZM156.598 280.897C155.402 280.792 154.36 280.391 153.469 279.694C152.579 278.997 151.911 278.04 151.466 276.823C151.021 275.606 150.871 274.162 151.018 272.492C151.167 270.801 151.569 269.399 152.226 268.286C152.89 267.166 153.724 266.351 154.727 265.84C155.73 265.323 156.817 265.116 157.985 265.218C158.877 265.297 159.597 265.513 160.144 265.867C160.693 266.215 161.117 266.615 161.416 267.067C161.717 267.513 161.943 267.928 162.095 268.315L162.244 268.328L162.911 260.74L166.506 261.056L164.723 281.342L161.197 281.032L161.408 278.635L161.19 278.616C160.973 278.969 160.671 279.339 160.284 279.724C159.898 280.103 159.405 280.412 158.805 280.652C158.205 280.892 157.469 280.974 156.598 280.897ZM157.857 278.043C158.616 278.11 159.281 277.962 159.852 277.6C160.423 277.231 160.88 276.689 161.223 275.974C161.565 275.258 161.779 274.409 161.866 273.425C161.952 272.441 161.889 271.574 161.675 270.823C161.468 270.073 161.115 269.473 160.616 269.023C160.123 268.574 159.49 268.315 158.717 268.247C157.918 268.177 157.233 268.326 156.662 268.695C156.09 269.064 155.637 269.604 155.302 270.313C154.967 271.022 154.758 271.849 154.675 272.793C154.591 273.744 154.652 274.604 154.857 275.374C155.069 276.138 155.424 276.758 155.921 277.234C156.426 277.705 157.071 277.974 157.857 278.043ZM178.804 276.131L179.578 267.316L183.164 267.631L181.827 282.845L178.35 282.539L178.588 279.835L178.429 279.821C178.011 280.643 177.385 281.29 176.552 281.762C175.725 282.235 174.741 282.422 173.598 282.321C172.601 282.234 171.739 281.935 171.012 281.425C170.292 280.909 169.755 280.207 169.401 279.317C169.047 278.421 168.923 277.366 169.03 276.151L169.881 266.463L173.467 266.779L172.664 275.911C172.58 276.875 172.776 277.664 173.255 278.279C173.733 278.893 174.402 279.238 175.26 279.313C175.788 279.36 176.311 279.276 176.829 279.062C177.347 278.848 177.787 278.5 178.149 278.02C178.517 277.533 178.736 276.904 178.804 276.131Z" fill="#161616"/>
<path d="M251.506 266.882C251.893 262.48 255.775 259.226 260.176 259.613L284.084 261.716C288.485 262.103 291.739 265.985 291.352 270.386L289.25 294.294C288.863 298.695 284.981 301.949 280.58 301.562L256.672 299.459C252.271 299.072 249.016 295.191 249.403 290.789L251.506 266.882Z" fill="#4DA625"/>
<g clip-path="url(#clip2_24_3156)">
<path d="M268.409 283.342C268.361 283.049 268.234 282.773 268.043 282.545C267.851 282.317 267.602 282.144 267.321 282.045L262.344 280.283C262.259 280.251 262.188 280.192 262.139 280.115C262.091 280.038 262.07 279.948 262.078 279.858C262.085 279.767 262.123 279.682 262.183 279.615C262.244 279.548 262.325 279.502 262.414 279.485L267.623 278.619C267.916 278.57 268.192 278.443 268.42 278.252C268.648 278.061 268.821 277.812 268.921 277.532L270.682 272.554C270.714 272.469 270.773 272.397 270.85 272.348C270.927 272.3 271.017 272.278 271.108 272.286C271.199 272.294 271.284 272.332 271.351 272.393C271.419 272.454 271.464 272.535 271.481 272.625L272.346 277.833C272.394 278.127 272.521 278.402 272.712 278.63C272.904 278.858 273.153 279.031 273.434 279.131L278.411 280.891C278.496 280.923 278.569 280.982 278.618 281.059C278.666 281.136 278.689 281.227 278.681 281.318C278.673 281.409 278.635 281.494 278.574 281.562C278.512 281.629 278.43 281.675 278.341 281.691L273.132 282.556C272.839 282.605 272.563 282.731 272.335 282.923C272.107 283.114 271.934 283.363 271.835 283.644L270.073 288.621C270.041 288.706 269.982 288.778 269.905 288.827C269.828 288.875 269.738 288.897 269.647 288.889C269.556 288.881 269.471 288.844 269.404 288.783C269.336 288.722 269.291 288.64 269.274 288.551L268.409 283.342Z" stroke="white" stroke-width="2" stroke-linecap="round" stroke-linejoin="round"/>
<path d="M277.676 273.701L277.384 277.021" stroke="white" stroke-width="2" stroke-linecap="round" stroke-linejoin="round"/>
<path d="M279.19 275.507L275.869 275.215" stroke="white" stroke-width="2" stroke-linecap="round" stroke-linejoin="round"/>
<path d="M263.371 284.154L263.225 285.815" stroke="white" stroke-linecap="round" stroke-linejoin="round"/>
<path d="M264.128 285.057L262.468 284.911" stroke="white" stroke-linecap="round" stroke-linejoin="round"/>
</g>
</g>
<path d="M44.2771 226.085L276.389 246.481C283.944 247.145 289.46 247.633 293.628 248.571C297.754 249.499 300.335 250.823 302.169 253.01C304.002 255.197 304.856 257.97 305.051 262.194C305.247 266.462 304.765 271.978 304.102 279.534L303.401 287.506C302.737 295.062 302.249 300.578 301.312 304.746C300.383 308.871 299.059 311.453 296.872 313.287C294.685 315.12 291.912 315.974 287.688 316.169C283.421 316.365 277.904 315.883 270.348 315.219L38.2367 294.823C30.681 294.159 25.1648 293.671 20.997 292.733C16.8717 291.805 14.29 290.481 12.4564 288.294C10.6228 286.107 9.76887 283.334 9.57445 279.11C9.37804 274.842 9.85977 269.325 10.5237 261.77L11.2243 253.798C11.8882 246.242 12.376 240.726 13.3137 236.558C14.2418 232.433 15.5663 229.851 17.7532 228.017C19.9401 226.184 22.7133 225.33 26.9372 225.135C31.2046 224.939 36.7214 225.421 44.2771 226.085Z" stroke="#4682CD" stroke-width="3"/>
<g clip-path="url(#clip3_24_3156)">
<path d="M26.3502 198.805C18.0571 186.205 13.9105 179.904 15.2487 173.413C16.5869 166.923 22.8873 162.776 35.4881 154.483L243.483 17.5923C256.084 9.29921 262.384 5.15265 268.875 6.49086C275.366 7.82909 279.513 14.1295 287.806 26.7303L292.204 33.4128C300.497 46.0136 304.644 52.314 303.305 58.8049C301.967 65.2958 295.667 69.4424 283.066 77.7355L75.0709 214.626C62.4701 222.919 56.1697 227.066 49.6788 225.727C43.1879 224.389 39.0414 218.089 30.7483 205.488L26.3502 198.805Z" fill="white"/>
<path d="M47.6044 169.254L48.4397 168.705C56.2825 163.543 66.8245 165.717 71.9862 173.559C77.1478 181.402 74.9743 191.944 67.1316 197.106L66.2963 197.655C58.4536 202.817 47.9115 200.644 42.7499 192.801C37.5883 184.958 39.7617 174.416 47.6044 169.254Z" fill="black"/>
<path d="M47.6044 169.254L48.4397 168.705C56.2825 163.543 66.8245 165.717 71.9862 173.559C77.1478 181.402 74.9743 191.944 67.1316 197.106L66.2963 197.655C58.4536 202.817 47.9115 200.644 42.7499 192.801C37.5883 184.958 39.7617 174.416 47.6044 169.254Z" stroke="#4682CD" stroke-width="4"/>
<path d="M110.112 160.438L98.9172 143.428L109.981 136.147L111.681 138.73L103.699 143.983L106.738 148.601L114.147 143.725L115.847 146.308L108.438 151.184L111.494 155.827L119.542 150.53L121.242 153.113L110.112 160.438ZM129.068 148.284C128.066 148.943 127 149.276 125.869 149.283C124.738 149.289 123.621 148.953 122.516 148.275C121.411 147.598 120.398 146.559 119.476 145.158C118.543 143.74 117.988 142.391 117.812 141.11C117.638 139.821 117.785 138.664 118.255 137.641C118.72 136.612 119.443 135.775 120.423 135.13C121.171 134.638 121.869 134.361 122.519 134.299C123.164 134.231 123.745 134.281 124.261 134.45C124.773 134.613 125.208 134.798 125.567 135.006L125.692 134.924L121.505 128.562L124.52 126.578L135.715 143.588L132.758 145.534L131.435 143.524L131.252 143.644C131.301 144.057 131.294 144.534 131.23 145.076C131.163 145.612 130.968 146.161 130.647 146.721C130.325 147.282 129.799 147.803 129.068 148.284ZM128.284 145.265C128.92 144.846 129.35 144.317 129.573 143.679C129.792 143.035 129.813 142.326 129.638 141.553C129.462 140.779 129.103 139.98 128.56 139.155C128.017 138.33 127.429 137.69 126.795 137.234C126.167 136.774 125.518 136.523 124.847 136.48C124.182 136.434 123.525 136.624 122.877 137.051C122.207 137.492 121.763 138.034 121.544 138.678C121.325 139.322 121.304 140.026 121.482 140.79C121.659 141.554 122.009 142.332 122.53 143.124C123.055 143.921 123.636 144.558 124.275 145.034C124.916 145.501 125.579 145.767 126.264 145.832C126.952 145.888 127.625 145.699 128.284 145.265ZM143.519 130.762L138.654 123.37L141.66 121.391L150.057 134.149L147.142 136.068L145.649 133.8L145.516 133.888C145.698 134.792 145.61 135.687 145.249 136.575C144.895 137.459 144.239 138.216 143.281 138.847C142.445 139.397 141.583 139.698 140.697 139.75C139.812 139.792 138.955 139.575 138.125 139.098C137.291 138.615 136.539 137.864 135.869 136.845L130.522 128.722L133.529 126.743L138.569 134.401C139.101 135.209 139.745 135.706 140.502 135.891C141.258 136.075 141.996 135.931 142.716 135.457C143.159 135.165 143.517 134.775 143.79 134.286C144.063 133.796 144.193 133.251 144.178 132.65C144.165 132.039 143.945 131.41 143.519 130.762ZM158.878 128.701C157.604 129.539 156.326 129.979 155.045 130.021C153.768 130.06 152.56 129.748 151.418 129.087C150.279 128.416 149.284 127.436 148.435 126.146C147.582 124.85 147.079 123.543 146.925 122.224C146.767 120.899 146.96 119.661 147.504 118.51C148.05 117.349 148.945 116.359 150.191 115.539C151.227 114.857 152.269 114.445 153.318 114.303C154.368 114.151 155.36 114.264 156.291 114.643C157.219 115.016 158.019 115.64 158.69 116.516L155.817 118.407C155.296 117.869 154.682 117.539 153.975 117.417C153.27 117.286 152.554 117.459 151.829 117.937C151.214 118.341 150.784 118.863 150.537 119.501C150.287 120.134 150.234 120.843 150.379 121.629C150.528 122.411 150.886 123.232 151.451 124.09C152.023 124.959 152.642 125.623 153.308 126.081C153.971 126.534 154.644 126.778 155.326 126.813C156.009 126.839 156.664 126.646 157.29 126.234C157.733 125.943 158.074 125.599 158.314 125.203C158.555 124.799 158.689 124.357 158.716 123.879C158.743 123.401 158.649 122.904 158.435 122.386L161.309 120.494C161.831 121.444 162.092 122.419 162.091 123.419C162.087 124.414 161.819 125.369 161.286 126.283C160.749 127.192 159.946 127.998 158.878 128.701ZM170.488 121.071C169.68 121.603 168.857 121.939 168.02 122.077C167.184 122.206 166.39 122.11 165.639 121.787C164.892 121.461 164.244 120.88 163.694 120.044C163.22 119.324 162.961 118.641 162.917 117.996C162.873 117.35 162.988 116.735 163.262 116.15C163.535 115.565 163.913 115.011 164.394 114.488C164.877 113.956 165.407 113.453 165.983 112.978C166.68 112.409 167.24 111.94 167.665 111.573C168.087 111.201 168.359 110.879 168.482 110.607C168.607 110.327 168.574 110.043 168.385 109.755L168.352 109.705C167.94 109.079 167.436 108.717 166.839 108.618C166.242 108.518 165.595 108.698 164.897 109.158C164.161 109.642 163.682 110.187 163.462 110.793C163.247 111.395 163.208 111.963 163.347 112.499L160.277 113.948C159.988 113.027 159.927 112.139 160.094 111.283C160.257 110.422 160.622 109.619 161.187 108.874C161.748 108.123 162.475 107.455 163.366 106.868C163.981 106.463 164.64 106.133 165.344 105.876C166.048 105.619 166.761 105.491 167.483 105.491C168.202 105.486 168.9 105.666 169.576 106.03C170.258 106.391 170.878 106.995 171.435 107.842L177.055 116.381L174.164 118.283L173.011 116.53L172.911 116.596C172.962 117.071 172.923 117.572 172.795 118.101C172.668 118.621 172.418 119.138 172.044 119.655C171.671 120.162 171.153 120.634 170.488 121.071ZM169.815 118.348C170.418 117.951 170.863 117.487 171.15 116.958C171.432 116.423 171.561 115.877 171.537 115.322C171.518 114.763 171.354 114.248 171.044 113.777L170.055 112.274C170.012 112.414 169.899 112.591 169.715 112.807C169.538 113.019 169.327 113.241 169.083 113.474C168.839 113.706 168.594 113.93 168.348 114.148C168.102 114.365 167.889 114.553 167.707 114.712C167.299 115.068 166.963 115.432 166.7 115.804C166.437 116.175 166.285 116.553 166.244 116.937C166.199 117.316 166.304 117.699 166.559 118.086C166.924 118.64 167.401 118.925 167.991 118.941C168.581 118.958 169.189 118.76 169.815 118.348ZM178.052 97.4405L179.583 99.7661L172.249 104.593L170.718 102.267L178.052 97.4405ZM170.517 98.0191L173.524 96.0403L181.406 108.017C181.672 108.421 181.937 108.691 182.201 108.827C182.467 108.954 182.728 108.988 182.984 108.931C183.24 108.874 183.492 108.763 183.742 108.599C183.93 108.475 184.092 108.348 184.229 108.219C184.372 108.085 184.477 107.98 184.545 107.903L186.599 109.92C186.475 110.082 186.285 110.294 186.03 110.557C185.78 110.817 185.446 111.092 185.027 111.384C184.288 111.902 183.535 112.235 182.768 112.383C181.997 112.525 181.259 112.447 180.555 112.149C179.856 111.847 179.247 111.295 178.728 110.494L170.517 98.0191ZM194.555 105.22C193.309 106.04 192.049 106.477 190.774 106.53C189.5 106.583 188.287 106.282 187.134 105.628C185.987 104.971 184.98 103.983 184.112 102.665C183.245 101.347 182.734 100.029 182.581 98.7097C182.432 97.3869 182.634 96.1508 183.187 95.0013C183.74 93.8518 184.639 92.8671 185.885 92.0471C187.131 91.2272 188.391 90.7907 189.666 90.7375C190.94 90.6844 192.153 90.9894 193.303 91.6526C194.459 92.3121 195.471 93.3008 196.339 94.6187C197.206 95.9365 197.712 97.2541 197.857 98.5713C198.007 99.8849 197.806 101.116 197.253 102.266C196.7 103.415 195.801 104.4 194.555 105.22ZM192.986 102.8C193.662 102.356 194.104 101.799 194.314 101.129C194.521 100.453 194.527 99.7273 194.333 98.9503C194.144 98.1697 193.795 97.3917 193.285 96.6165C192.771 95.8358 192.193 95.2045 191.55 94.7227C190.91 94.2317 190.239 93.9473 189.537 93.8696C188.835 93.7919 188.146 93.9754 187.471 94.42C186.779 94.8755 186.327 95.4428 186.115 96.1218C185.909 96.7971 185.901 97.5279 186.094 98.3141C186.287 99.0911 186.641 99.87 187.155 100.651C187.665 101.426 188.239 102.056 188.876 102.542C189.518 103.024 190.191 103.303 190.892 103.381C191.596 103.45 192.294 103.256 192.986 102.8ZM203.056 99.2681L194.66 86.5105L197.575 84.5918L198.974 86.718L199.107 86.6306C198.855 85.7411 198.88 84.9111 199.183 84.1407C199.487 83.3612 200.004 82.7309 200.735 82.2498C200.901 82.1405 201.092 82.0267 201.308 81.9085C201.526 81.7811 201.713 81.6857 201.87 81.6223L203.69 84.3881C203.534 84.4276 203.306 84.5218 203.007 84.6708C202.71 84.8106 202.435 84.9644 202.18 85.132C201.632 85.4928 201.217 85.9362 200.937 86.4622C200.658 86.979 200.53 87.527 200.554 88.1063C200.579 88.6856 200.769 89.2465 201.126 89.7892L206.063 97.2893L203.056 99.2681ZM216.235 77.1432L213.691 79.2461C213.432 79.0203 213.125 78.8493 212.771 78.7332C212.422 78.6135 212.038 78.5846 211.618 78.6464C211.199 78.7083 210.756 78.8923 210.291 79.1984C209.666 79.6102 209.229 80.0921 208.981 80.644C208.739 81.1923 208.763 81.6806 209.052 82.1088C209.291 82.4834 209.625 82.6959 210.055 82.7463C210.491 82.793 211.081 82.6779 211.828 82.401L214.31 81.434C215.688 80.8998 216.857 80.7219 217.815 80.9004C218.78 81.0753 219.565 81.6177 220.172 82.5277C220.695 83.3342 220.926 84.1979 220.865 85.1186C220.807 86.0302 220.481 86.9273 219.887 87.8099C219.293 88.6926 218.465 89.4838 217.402 90.1834C215.84 91.2111 214.369 91.7117 212.986 91.6851C211.6 91.653 210.429 91.1101 209.474 90.0565L212.22 87.8445C212.732 88.3329 213.3 88.5817 213.926 88.5909C214.551 88.6001 215.209 88.377 215.901 87.9214C216.616 87.4513 217.092 86.9274 217.331 86.3497C217.575 85.7683 217.555 85.2617 217.271 84.8298C217.03 84.4643 216.691 84.2555 216.252 84.2033C215.818 84.1474 215.266 84.2489 214.595 84.5078L212.118 85.4832C210.727 86.0339 209.539 86.2006 208.555 85.9833C207.567 85.7605 206.77 85.1822 206.163 84.2483C205.64 83.4657 205.405 82.6443 205.458 81.7842C205.513 80.9149 205.824 80.0673 206.391 79.2415C206.961 78.4065 207.755 77.6537 208.774 76.9832C210.269 75.9992 211.655 75.5432 212.932 75.6151C214.215 75.6834 215.316 76.1928 216.235 77.1432Z" fill="#4682CD"/>
<path d="M237.465 50.2846C235.036 46.5939 236.059 41.633 239.75 39.204L259.798 26.0097C263.488 23.5807 268.449 24.6035 270.878 28.2942L284.073 48.3419C286.502 52.0326 285.479 56.9936 281.788 59.4226L261.74 72.6168C258.05 75.0458 253.089 74.023 250.66 70.3324L237.465 50.2846Z" fill="#1E3A8A"/>
<g clip-path="url(#clip4_24_3156)">
<path d="M260.936 52.6949C260.716 52.4949 260.445 52.3577 260.154 52.2975C259.862 52.2374 259.56 52.2565 259.278 52.3529L254.282 54.0624C254.196 54.0896 254.103 54.0879 254.017 54.0576C253.932 54.0272 253.859 53.9698 253.809 53.8941C253.759 53.8183 253.735 53.7284 253.741 53.6379C253.747 53.5474 253.782 53.4613 253.842 53.3927L257.387 49.4801C257.587 49.2595 257.724 48.9894 257.784 48.6979C257.845 48.4063 257.826 48.1039 257.729 47.8222L256.02 42.8268C255.992 42.7402 255.994 42.6469 256.024 42.5612C256.054 42.4754 256.112 42.402 256.188 42.352C256.264 42.302 256.354 42.2782 256.445 42.2843C256.535 42.2904 256.622 42.326 256.69 42.3856L260.602 45.9319C260.822 46.1319 261.092 46.2691 261.384 46.3293C261.676 46.3894 261.978 46.3703 262.26 46.2739L267.255 44.5638C267.342 44.5357 267.435 44.5369 267.521 44.5671C267.608 44.5973 267.681 44.6549 267.731 44.7311C267.782 44.8073 267.805 44.8978 267.799 44.9888C267.793 45.0798 267.757 45.1662 267.697 45.2348L264.15 49.146C263.95 49.3667 263.813 49.6369 263.753 49.9286C263.693 50.2203 263.712 50.5228 263.808 50.8046L265.518 55.8C265.546 55.8866 265.544 55.9799 265.514 56.0656C265.484 56.1514 265.426 56.2248 265.35 56.2748C265.274 56.3248 265.184 56.3486 265.093 56.3425C265.002 56.3364 264.916 56.3008 264.848 56.2412L260.936 52.6949Z" stroke="white" stroke-width="2" stroke-linecap="round" stroke-linejoin="round"/>
<path d="M262.215 39.3833L264.047 42.1677" stroke="white" stroke-width="2" stroke-linecap="round" stroke-linejoin="round"/>
<path d="M264.523 39.8594L261.738 41.6919" stroke="white" stroke-width="2" stroke-linecap="round" stroke-linejoin="round"/>
<path d="M257.49 56.459L258.407 57.8512" stroke="white" stroke-linecap="round" stroke-linejoin="round"/>
<path d="M258.645 56.697L257.253 57.6133" stroke="white" stroke-linecap="round" stroke-linejoin="round"/>
</g>
</g>
<path d="M36.3128 155.736L244.308 18.8453C250.644 14.6755 255.271 11.6335 259.121 9.78143C262.931 7.94819 265.777 7.38388 268.572 7.96014C271.368 8.5364 273.758 10.1805 276.533 13.3713C279.336 16.595 282.383 21.2191 286.553 27.5549L290.951 34.2375C295.121 40.5733 298.163 45.2008 300.015 49.0503C301.848 52.8606 302.412 55.7069 301.836 58.502C301.26 61.2971 299.616 63.6881 296.425 66.4626C293.201 69.2657 288.577 72.3127 282.241 76.4825L74.2463 213.373C67.9105 217.543 63.283 220.585 59.4334 222.437C55.6231 224.27 52.7768 224.834 49.9818 224.258C47.1867 223.682 44.7957 222.038 42.0212 218.847C39.2181 215.623 36.1711 210.999 32.0012 204.663L27.6032 197.981C23.4333 191.645 20.3914 187.018 18.5393 183.168C16.706 179.358 16.1417 176.511 16.718 173.716C17.2942 170.921 18.9383 168.53 22.1291 165.756C25.3528 162.953 29.977 159.906 36.3128 155.736Z" stroke="#4682CD" stroke-width="3"/>
<defs>
<filter id="filter0_d_24_3156" x="0" y="316.648" width="305" height="80" filterUnits="userSpaceOnUse" color-interpolation-filters="sRGB">
<feFlood flood-opacity="0" result="BackgroundImageFix"/>
<feColorMatrix in="SourceAlpha" type="matrix" values="0 0 0 0 0 0 0 0 0 0 0 0 0 0 0 0 0 0 127 0" result="hardAlpha"/>
<feOffset dy="4"/>
<feGaussianBlur stdDeviation="2"/>
<feComposite in2="hardAlpha" operator="out"/>
<feColorMatrix type="matrix" values="0 0 0 0 0 0 0 0 0 0 0 0 0 0 0 0 0 0 0.25 0"/>
<feBlend mode="normal" in2="BackgroundImageFix" result="effect1_dropShadow_24_3156"/>
<feBlend mode="normal" in="SourceGraphic" in2="effect1_dropShadow_24_3156" result="shape"/>
</filter>
<clipPath id="clip0_24_3156">
<rect width="20" height="20" fill="white" transform="translate(255 342.648)"/>
</clipPath>
<clipPath id="clip1_24_3156">
<path d="M9.73004 253.666C11.0505 238.639 11.7108 231.126 16.7893 226.868C21.8679 222.61 29.3814 223.27 44.4084 224.59L276.52 244.987C291.547 246.308 299.06 246.968 303.318 252.046C307.576 257.125 306.916 264.638 305.596 279.665L304.895 287.638C303.575 302.665 302.914 310.178 297.836 314.436C292.757 318.694 285.244 318.034 270.217 316.714L38.1054 296.317C23.0784 294.996 15.5649 294.336 11.3068 289.258C7.04873 284.179 7.70898 276.666 9.02948 261.638L9.73004 253.666Z" fill="white"/>
</clipPath>
<clipPath id="clip2_24_3156">
<rect width="20" height="20" fill="white" transform="translate(261.292 269.75) rotate(5.02622)"/>
</clipPath>
<clipPath id="clip3_24_3156">
<path d="M26.3502 198.805C18.0571 186.205 13.9105 179.904 15.2487 173.413C16.5869 166.923 22.8873 162.776 35.4881 154.483L243.483 17.5923C256.084 9.29921 262.384 5.15265 268.875 6.49086C275.366 7.82909 279.513 14.1295 287.806 26.7303L292.204 33.4128C300.497 46.0136 304.644 52.314 303.305 58.8049C301.967 65.2958 295.667 69.4424 283.066 77.7355L75.0709 214.626C62.4701 222.919 56.1697 227.066 49.6788 225.727C43.1879 224.389 39.0414 218.089 30.7483 205.488L26.3502 198.805Z" fill="white"/>
</clipPath>
<clipPath id="clip4_24_3156">
<rect width="20" height="20" fill="white" transform="translate(246.918 46.4578) rotate(-33.3506)"/>
</clipPath>
</defs>
</svg>
