<svg width="64" height="64" viewBox="0 0 64 64" fill="none" xmlns="http://www.w3.org/2000/svg">
<g filter="url(#filter0_d_24_2915)">
<rect x="8" y="6" width="48" height="48" rx="9" fill="#1E3A8A"/>
<rect x="6" y="4" width="52" height="52" rx="11" stroke="#D9E5F9" stroke-width="4"/>
<path d="M29.9374 33.5C29.8482 33.1539 29.6678 32.8381 29.415 32.5854C29.1623 32.3327 28.8465 32.1523 28.5004 32.063L22.3654 30.481C22.2608 30.4513 22.1686 30.3883 22.103 30.3015C22.0374 30.2146 22.002 30.1088 22.002 30C22.002 29.8912 22.0374 29.7854 22.103 29.6986C22.1686 29.6118 22.2608 29.5487 22.3654 29.519L28.5004 27.936C28.8464 27.8468 29.1621 27.6666 29.4148 27.414C29.6675 27.1615 29.848 26.8459 29.9374 26.5L31.5194 20.365C31.5488 20.2599 31.6118 20.1673 31.6987 20.1014C31.7857 20.0355 31.8918 19.9998 32.0009 19.9998C32.11 19.9998 32.2162 20.0355 32.3031 20.1014C32.39 20.1673 32.453 20.2599 32.4824 20.365L34.0634 26.5C34.1527 26.8461 34.3331 27.1619 34.5858 27.4146C34.8385 27.6673 35.1544 27.8477 35.5004 27.937L41.6354 29.518C41.7409 29.5471 41.834 29.61 41.9003 29.6971C41.9666 29.7842 42.0025 29.8906 42.0025 30C42.0025 30.1094 41.9666 30.2159 41.9003 30.3029C41.834 30.39 41.7409 30.4529 41.6354 30.482L35.5004 32.063C35.1544 32.1523 34.8385 32.3327 34.5858 32.5854C34.3331 32.8381 34.1527 33.1539 34.0634 33.5L32.4814 39.635C32.452 39.7401 32.389 39.8327 32.3021 39.8986C32.2152 39.9646 32.109 40.0003 31.9999 40.0003C31.8908 40.0003 31.7847 39.9646 31.6977 39.8986C31.6108 39.8327 31.5478 39.7401 31.5184 39.635L29.9374 33.5Z" stroke="white" stroke-width="2" stroke-linecap="round" stroke-linejoin="round"/>
<path d="M40 21V25" stroke="white" stroke-width="2" stroke-linecap="round" stroke-linejoin="round"/>
<path d="M42 23H38" stroke="white" stroke-width="2" stroke-linecap="round" stroke-linejoin="round"/>
<path d="M24 35V37" stroke="white" stroke-linecap="round" stroke-linejoin="round"/>
<path d="M25 36H23" stroke="white" stroke-linecap="round" stroke-linejoin="round"/>
</g>
<defs>
<filter id="filter0_d_24_2915" x="0" y="0" width="64" height="64" filterUnits="userSpaceOnUse" color-interpolation-filters="sRGB">
<feFlood flood-opacity="0" result="BackgroundImageFix"/>
<feColorMatrix in="SourceAlpha" type="matrix" values="0 0 0 0 0 0 0 0 0 0 0 0 0 0 0 0 0 0 127 0" result="hardAlpha"/>
<feOffset dy="2"/>
<feGaussianBlur stdDeviation="2"/>
<feColorMatrix type="matrix" values="0 0 0 0 0.0627451 0 0 0 0 0.0941176 0 0 0 0 0.156863 0 0 0 0.1 0"/>
<feBlend mode="normal" in2="BackgroundImageFix" result="effect1_dropShadow_24_2915"/>
<feBlend mode="normal" in="SourceGraphic" in2="effect1_dropShadow_24_2915" result="shape"/>
</filter>
</defs>
</svg>
