<svg width="18" height="18" viewBox="0 0 18 18" fill="none" xmlns="http://www.w3.org/2000/svg">
<path d="M11.25 2.25C11.6478 2.25 12.0294 2.40804 12.3107 2.68934C12.592 2.97064 12.75 3.35218 12.75 3.75V6.75H14.25C14.6478 6.75 15.0294 6.90804 15.3107 7.18934C15.592 7.47064 15.75 7.85218 15.75 8.25V14.25C15.9489 14.25 16.1397 14.329 16.2803 14.4697C16.421 14.6103 16.5 14.8011 16.5 15C16.5 15.1989 16.421 15.3897 16.2803 15.5303C16.1397 15.671 15.9489 15.75 15.75 15.75H2.25C2.05109 15.75 1.86032 15.671 1.71967 15.5303C1.57902 15.3897 1.5 15.1989 1.5 15C1.5 14.8011 1.57902 14.6103 1.71967 14.4697C1.86032 14.329 2.05109 14.25 2.25 14.25V6.75C2.25 6.35218 2.40804 5.97064 2.68934 5.68934C2.97064 5.40804 3.35218 5.25 3.75 5.25H5.25V3.75C5.25 3.35218 5.40804 2.97064 5.68934 2.68934C5.97064 2.40804 6.35218 2.25 6.75 2.25H11.25ZM5.25 6.75H3.75V14.25H5.25V6.75ZM14.25 8.25H12.75V14.25H14.25V8.25ZM11.25 3.75H6.75V14.25H11.25V3.75ZM9.75 11.25V12.75H8.25V11.25H9.75ZM9.75 8.25V9.75H8.25V8.25H9.75ZM9.75 5.25V6.75H8.25V5.25H9.75Z" fill="#1E3A8A"/>
</svg>
